<?xml version="1.0" encoding="utf-8"?>
<!-- Generator: Adobe Illustrator 16.0.0, SVG Export Plug-In . SVG Version: 6.00 Build 0)  -->
<!DOCTYPE svg PUBLIC "-//W3C//DTD SVG 1.1//EN" "http://www.w3.org/Graphics/SVG/1.1/DTD/svg11.dtd">
<svg version="1.1" id="Layer_1" xmlns="http://www.w3.org/2000/svg" xmlns:xlink="http://www.w3.org/1999/xlink" x="0px" y="0px"
	 width="105.154px" height="133.832px" viewBox="0 0 105.154 133.832" enable-background="new 0 0 105.154 133.832"
	 xml:space="preserve">
<g id="Background">
</g>
<g id="Objects">
	<g>
		<path fill="#6D55AE" d="M0,51.61v72.718c0,5.227,4.275,9.502,9.503,9.502h86.148c5.228,0,9.503-4.275,9.503-9.502V51.61H0z"/>
		<path fill="#6D55AE" d="M105.155,53.61V35.495L70.047,0H9.503C4.276,0,0,4.276,0,9.503V53.61H105.155z"/>
		<path opacity="0.5" d="M69.047,0l-3.604,32.765c0,5.227,4.276,9.503,9.503,9.503l29.209-6.773L69.047,0z"/>
		<path fill="#FFFFFF" d="M69.138,0v25.946c0,5.227,4.276,9.502,9.503,9.502h25.516L69.138,0z"/>
		<g>
			<g>
				<path fill="#FFFFFF" d="M23.885,35.141c-0.709,0.354-2.127,0.709-3.943,0.709c-4.21,0-7.378-2.659-7.378-7.556
					c0-4.675,3.168-7.843,7.799-7.843c1.861,0,3.035,0.398,3.546,0.665l-0.467,1.572c-0.729-0.354-1.771-0.62-3.013-0.62
					c-3.501,0-5.827,2.238-5.827,6.159c0,3.656,2.104,6.005,5.738,6.005c1.175,0,2.371-0.244,3.146-0.621L23.885,35.141z"/>
				<path fill="#FFFFFF" d="M26.035,33.279c0.863,0.532,2.127,0.975,3.456,0.975c1.972,0,3.124-1.041,3.124-2.548
					c0-1.396-0.799-2.193-2.813-2.969c-2.438-0.864-3.943-2.127-3.943-4.231c0-2.326,1.928-4.055,4.829-4.055
					c1.529,0,2.638,0.354,3.303,0.731l-0.532,1.573c-0.487-0.267-1.484-0.709-2.836-0.709c-2.038,0-2.813,1.218-2.813,2.237
					c0,1.396,0.908,2.083,2.969,2.88c2.525,0.976,3.812,2.193,3.812,4.388c0,2.304-1.706,4.298-5.229,4.298
					c-1.439,0-3.013-0.421-3.811-0.953L26.035,33.279z"/>
				<path fill="#FFFFFF" d="M36.959,33.279c0.864,0.532,2.127,0.975,3.456,0.975c1.972,0,3.124-1.041,3.124-2.548
					c0-1.396-0.798-2.193-2.813-2.969c-2.438-0.864-3.942-2.127-3.942-4.231c0-2.326,1.927-4.055,4.828-4.055
					c1.529,0,2.638,0.354,3.303,0.731l-0.532,1.573c-0.487-0.267-1.484-0.709-2.836-0.709c-2.038,0-2.813,1.218-2.813,2.237
					c0,1.396,0.908,2.083,2.97,2.88c2.524,0.976,3.811,2.193,3.811,4.388c0,2.304-1.706,4.298-5.229,4.298
					c-1.44,0-3.014-0.421-3.812-0.953L36.959,33.279z"/>
			</g>
		</g>
		<g>
			<g>
				<g>
					<path fill="none" stroke="#FFFFFF" stroke-width="3" stroke-linecap="round" stroke-miterlimit="10" d="M34.562,73.61
						c-4,0-7,5.022-5.5,10.261c1.5,5.236-0.5,8.803-3,9.113"/>
					<path fill="none" stroke="#FFFFFF" stroke-width="3" stroke-linecap="round" stroke-miterlimit="10" d="M34.562,112.359
						c-4,0-7-5.023-5.5-10.26c1.5-5.237-0.5-8.803-3-9.114"/>
				</g>
				<g>
					<path fill="none" stroke="#FFFFFF" stroke-width="3" stroke-linecap="round" stroke-miterlimit="10" d="M69.562,73.61
						c4,0,7,5.022,5.5,10.261c-1.5,5.236,0.5,8.803,3,9.113"/>
					<path fill="none" stroke="#FFFFFF" stroke-width="3" stroke-linecap="round" stroke-miterlimit="10" d="M69.562,112.359
						c4,0,7-5.023,5.5-10.26c-1.5-5.237,0.5-8.803,3-9.114"/>
				</g>
				<g>
					<circle fill="#FFFFFF" cx="40.812" cy="100.921" r="2.75"/>
					<circle fill="#FFFFFF" cx="51.812" cy="100.921" r="2.75"/>
					<circle fill="#FFFFFF" cx="62.812" cy="100.921" r="2.75"/>
				</g>
			</g>
		</g>
		<rect x="0" y="52.61" fill="#FFFFFF" width="105.154" height="3"/>
	</g>
</g>
</svg>
