<?xml version="1.0" encoding="utf-8"?>
<!-- Generator: Adobe Illustrator 16.0.0, SVG Export Plug-In . SVG Version: 6.00 Build 0)  -->
<!DOCTYPE svg PUBLIC "-//W3C//DTD SVG 1.1//EN" "http://www.w3.org/Graphics/SVG/1.1/DTD/svg11.dtd">
<svg version="1.1" id="Layer_1" xmlns="http://www.w3.org/2000/svg" xmlns:xlink="http://www.w3.org/1999/xlink" x="0px" y="0px"
	 width="105.154px" height="133.832px" viewBox="0 0 105.154 133.832" enable-background="new 0 0 105.154 133.832"
	 xml:space="preserve">
<g id="Background">
</g>
<g id="Objects">
	<g>
		<path fill="#77DE45" d="M0,50.831v73.497c0,5.228,4.275,9.504,9.503,9.504h86.148c5.228,0,9.503-4.276,9.503-9.504V50.831H0z"/>
		<path fill="#77DE45" d="M105.155,53.831V35.495L70.047,0H9.503C4.276,0,0,4.276,0,9.503v44.328H105.155z"/>
		<path opacity="0.5" d="M70.047,0l-3.604,32.765c0,5.227,4.276,9.503,9.503,9.503l29.209-6.773L70.047,0z"/>
		<path fill="#FFFFFF" d="M70.138,0v25.946c0,5.227,4.276,9.502,9.503,9.502h25.516L70.138,0z"/>
		<g>
			<g>
				<path fill="#FFFFFF" d="M14.449,24.178v5.185h5.993v-5.185h1.618v12.393h-1.618V30.76h-5.993v5.811h-1.601V24.178H14.449z"/>
				<path fill="#FFFFFF" d="M27.19,25.539h-3.77v-1.36h9.175v1.36h-3.788v11.032H27.19V25.539z"/>
				<path fill="#FFFFFF" d="M44.418,31.128c-0.092-1.729-0.203-3.807-0.185-5.351h-0.055c-0.423,1.452-0.938,2.997-1.562,4.707
					l-2.188,6.013h-1.213l-2.004-5.902c-0.588-1.747-1.084-3.347-1.435-4.817H35.74c-0.037,1.544-0.13,3.622-0.239,5.479
					L35.17,36.57h-1.526l0.864-12.393h2.041l2.114,5.994c0.515,1.526,0.938,2.887,1.25,4.174h0.055
					c0.312-1.251,0.754-2.611,1.305-4.174l2.207-5.994h2.041l0.772,12.393H44.73L44.418,31.128z"/>
				<path fill="#FFFFFF" d="M48.756,24.178h1.6v11.051h5.295v1.342h-6.895V24.178z"/>
			</g>
		</g>
		<g>
			<g>
				<polyline fill="none" stroke="#FFFFFF" stroke-width="3" stroke-linecap="round" stroke-miterlimit="10" points="35.949,82.089 
					24.707,93.332 35.949,103.949 				"/>
				<polyline fill="none" stroke="#FFFFFF" stroke-width="3" stroke-linecap="round" stroke-miterlimit="10" points="67.176,82.089 
					78.418,93.332 67.176,103.949 				"/>
				
					<line fill="none" stroke="#FFFFFF" stroke-width="3" stroke-linecap="round" stroke-miterlimit="10" x1="60.325" y1="70.847" x2="42.818" y2="115.814"/>
			</g>
		</g>
		<rect x="0" y="50.831" fill="#FFFFFF" width="105.154" height="3"/>
	</g>
</g>
</svg>
