<?xml version="1.0" encoding="utf-8"?>
<!-- Generator: Adobe Illustrator 16.0.0, SVG Export Plug-In . SVG Version: 6.00 Build 0)  -->
<!DOCTYPE svg PUBLIC "-//W3C//DTD SVG 1.1//EN" "http://www.w3.org/Graphics/SVG/1.1/DTD/svg11.dtd">
<svg version="1.1" xmlns="http://www.w3.org/2000/svg" xmlns:xlink="http://www.w3.org/1999/xlink" x="0px" y="0px"
	 width="105.201px" height="133.83px" viewBox="0 0 105.201 133.83" enable-background="new 0 0 105.201 133.83"
	 xml:space="preserve">
<g id="Background">
</g>
<g id="Objects">
	<g>
		<path fill="#496EE3" d="M0.046,51.271v73.057c0,5.227,4.276,9.503,9.503,9.503h86.149c5.227,0,9.503-4.276,9.503-9.503V51.271
			H0.046z"/>
		<path fill="#496EE3" d="M105.201,54.271V35.494L70.093,0H9.549C4.322,0,0.046,4.276,0.046,9.503v44.768H105.201z"/>
		<path d="M70.093,0l-3.604,32.765c0,5.227,4.276,9.503,9.503,9.503l29.209-6.772L70.093,0z"/>
		<path fill="#FFFFFF" d="M70.183,0v25.946c0,5.226,4.276,9.502,9.503,9.502H105.2L70.183,0z"/>
		<g>
			<g>
				<path fill="#FFFFFF" d="M16.376,20.872c0.93-0.155,2.149-0.288,3.7-0.288c1.905,0,3.301,0.443,4.188,1.241
					c0.82,0.709,1.307,1.794,1.307,3.124c0,1.352-0.399,2.415-1.152,3.19c-1.02,1.085-2.681,1.639-4.564,1.639
					c-0.576,0-1.107-0.021-1.551-0.133v5.982h-1.927V20.872z M18.304,28.073c0.421,0.11,0.953,0.154,1.595,0.154
					c2.326,0,3.744-1.13,3.744-3.19c0-1.972-1.396-2.924-3.522-2.924c-0.842,0-1.484,0.066-1.817,0.154V28.073z"/>
				<path fill="#FFFFFF" d="M27.898,33.279c0.864,0.532,2.127,0.975,3.457,0.975c1.972,0,3.124-1.041,3.124-2.548
					c0-1.396-0.797-2.193-2.813-2.969c-2.437-0.864-3.944-2.127-3.944-4.231c0-2.326,1.928-4.055,4.83-4.055
					c1.529,0,2.636,0.354,3.301,0.731l-0.532,1.573c-0.488-0.267-1.484-0.709-2.836-0.709c-2.039,0-2.814,1.218-2.814,2.237
					c0,1.396,0.908,2.083,2.969,2.88c2.526,0.976,3.811,2.193,3.811,4.388c0,2.304-1.706,4.298-5.229,4.298
					c-1.44,0-3.013-0.421-3.811-0.953L27.898,33.279z"/>
				<path fill="#FFFFFF" d="M39.088,20.895c1.174-0.178,2.57-0.311,4.099-0.311c2.77,0,4.741,0.643,6.048,1.861
					c1.33,1.219,2.105,2.946,2.105,5.361c0,2.438-0.753,4.432-2.149,5.805c-1.396,1.396-3.7,2.149-6.603,2.149
					c-1.374,0-2.526-0.066-3.501-0.177V20.895z M41.016,34.1c0.487,0.088,1.196,0.11,1.95,0.11c4.121,0,6.359-2.305,6.359-6.337
					c0.022-3.522-1.972-5.76-6.049-5.76c-0.997,0-1.75,0.088-2.26,0.199V34.1z"/>
			</g>
		</g>
		<g>
			<g>
				
					<rect x="28.252" y="70.771" fill="none" stroke="#FFFFFF" stroke-width="3" stroke-miterlimit="10" width="31.169" height="31.169"/>
				
					<rect x="43.837" y="86.354" fill="none" stroke="#FFFFFF" stroke-width="3" stroke-miterlimit="10" width="31.169" height="31.17"/>
			</g>
		</g>
		<rect y="51.375" fill="#FFFFFF" width="105.155" height="3"/>
	</g>
</g>
</svg>
