<?xml version="1.0" encoding="utf-8"?>
<!-- Generator: Adobe Illustrator 16.0.0, SVG Export Plug-In . SVG Version: 6.00 Build 0)  -->
<!DOCTYPE svg PUBLIC "-//W3C//DTD SVG 1.1//EN" "http://www.w3.org/Graphics/SVG/1.1/DTD/svg11.dtd">
<svg version="1.1" id="Layer_1" xmlns="http://www.w3.org/2000/svg" xmlns:xlink="http://www.w3.org/1999/xlink" x="0px" y="0px"
	 width="91px" height="106px" viewBox="0 0 91 106" enable-background="new 0 0 91 106" xml:space="preserve">
<g>
	<rect fill="#FFFFFF" width="91" height="106"/>
	<g>
		<polygon fill="#E75F55" points="12.066,0 0,0 0,8 8.934,8 		"/>
		<polygon fill="#3E9BD3" points="33.066,0 19.066,0 15.934,8 29.934,8 		"/>
		<polygon fill="#E75F55" points="54.066,0 40.066,0 36.934,8 50.934,8 		"/>
		<polygon fill="#3E9BD3" points="75.066,0 61.066,0 57.934,8 71.934,8 		"/>
		<polygon fill="#E75F55" points="91,0 82.066,0 78.934,8 91,8 		"/>
	</g>
	<rect x="8" y="15" fill="#5D5D5D" width="35" height="5"/>
	<rect x="8" y="24" fill="#5D5D5D" width="44" height="5"/>
	<rect x="8" y="40" opacity="0.25" fill="#5D5D5D" width="74" height="3"/>
	<rect x="8" y="46" opacity="0.25" fill="#5D5D5D" width="73" height="3"/>
	<rect x="8" y="52" opacity="0.25" fill="#5D5D5D" width="74" height="3"/>
	<rect x="8" y="58" opacity="0.25" fill="#5D5D5D" width="69" height="3"/>
	<rect x="8" y="64" opacity="0.25" fill="#5D5D5D" width="74" height="3"/>
	<rect x="8" y="70" opacity="0.25" fill="#5D5D5D" width="73" height="3"/>
	<rect x="8" y="76" opacity="0.25" fill="#5D5D5D" width="71" height="3"/>
	<rect x="8" y="82" opacity="0.25" fill="#5D5D5D" width="73" height="3"/>
	<rect x="8" y="88" opacity="0.25" fill="#5D5D5D" width="74" height="3"/>
</g>
</svg>
