<?xml version="1.0" encoding="utf-8"?>
<!-- Generator: Adobe Illustrator 21.0.2, SVG Export Plug-In . SVG Version: 6.00 Build 0)  -->
<svg version="1.1" id="Layer_1" xmlns="http://www.w3.org/2000/svg" xmlns:xlink="http://www.w3.org/1999/xlink" x="0px" y="0px"
	 viewBox="0 0 91 106" style="enable-background:new 0 0 91 106;" xml:space="preserve">
<style type="text/css">
	.st0{fill:#FFFFFF;}
	.st1{fill:#E75F55;}
	.st2{fill:#3E9BD3;}
	.st3{fill:#5D5D5D;}
	.st4{opacity:0.25;fill:#5D5D5D;enable-background:new    ;}
	.st5{opacity:0.5;}
</style>
<g>
	<rect class="st0" width="91" height="106"/>
	<g>
		<polygon class="st1" points="12.1,0 0,0 0,8 8.9,8 		"/>
		<polygon class="st2" points="33.1,0 19.1,0 15.9,8 29.9,8 		"/>
		<polygon class="st1" points="54.1,0 40.1,0 36.9,8 50.9,8 		"/>
		<polygon class="st2" points="75.1,0 61.1,0 57.9,8 71.9,8 		"/>
		<polygon class="st1" points="91,0 82.1,0 78.9,8 91,8 		"/>
	</g>
	<rect x="8" y="15" class="st3" width="35" height="5"/>
	<rect x="8" y="24" class="st3" width="44" height="5"/>
	<rect x="8" y="40" class="st4" width="74" height="3"/>
	<rect x="8" y="46" class="st4" width="73" height="3"/>
	<rect x="8" y="52" class="st4" width="74" height="3"/>
	<rect x="8" y="58" class="st4" width="69" height="3"/>
	<rect x="8" y="64" class="st4" width="74" height="3"/>
	<rect x="8" y="70" class="st4" width="73" height="3"/>
	<rect x="8" y="76" class="st4" width="71" height="3"/>
	<rect x="8" y="82" class="st4" width="73" height="3"/>
	<rect x="8" y="88" class="st4" width="74" height="3"/>
</g>
<g class="st5">
	<path d="M76,18.8l-0.3,3.3c0,0.1,0,0.2,0,0.3c0,0.4,0.2,0.7,0.6,0.7c0.8,0,1.1-0.9,1.1-2.2c0-2.6-1.3-3.8-3.8-3.8
		c-2.1,0-4.1,1.5-4.1,4.5c0,2.7,2,4.2,4,4.2c1,0,1.9-0.1,3.2-0.8l0.4,0.9c-1.4,0.6-2.1,0.9-3.5,0.9c-2.9,0-5.1-2-5.1-5.2
		c0-3.4,2.5-5.4,5.2-5.4c2.9,0,4.8,1.7,4.8,4.8c0,2.2-1,3.2-2.3,3.2c-0.7,0-1.2-0.4-1.5-0.9c-0.4,0.6-1,0.9-1.7,0.9
		c-1.5,0-2.2-1.1-2.2-2.4c0-1.6,1-2.9,2.7-2.9c0.7,0,1.2,0.3,1.4,0.7l0.1-0.7H76z M71.9,21.7c0,0.9,0.4,1.4,1.3,1.4
		c1,0,1.6-0.9,1.6-2c0-1-0.5-1.4-1.3-1.4C72.5,19.7,71.9,20.5,71.9,21.7z"/>
</g>
</svg>
