<svg id="Objects" xmlns="http://www.w3.org/2000/svg" viewBox="0 0 338.89 693.84"><defs><style>.cls-1{fill:#ad8366;}.cls-2{fill:#efbca0;}.cls-3{fill:#cba690;}.cls-4{fill:#a2795c;}.cls-5{fill:#1f1f1d;}.cls-6{fill:#4b4b4b;}.cls-7{fill:#575554;}.cls-8{fill:#3498db;}.cls-9{fill:#fff;opacity:0.05;}.cls-10{fill:#d6d6d6;}.cls-11{fill:#b8b8b8;}</style></defs><title>phone hold</title><rect class="cls-1" x="87.14" y="413.75" width="168.8" height="218.8"/><path class="cls-2" d="M318.87,131.36a12.28,12.28,0,0,1,3.48.52,24.91,24.91,0,0,0-3.21-1.85l-.88,1.37C318.47,131.39,318.67,131.36,318.87,131.36Z"/><path class="cls-3" d="M303.55,151.06c0,10.88-.93,20,15.33,19.7,4.55-.1,7.71-.85,10-2.09-3.13-21.35-5.79-36.27-5.79-36.27s-.26-.2-.7-.51a12.28,12.28,0,0,0-3.48-.52C310.42,131.36,303.55,140.19,303.55,151.06Z"/><path class="cls-1" d="M328.84,168.67c-2.26,1.24-5.41,2-10,2.09-16.26.35-15.33-8.82-15.33-19.7s6.87-19.69,15.33-19.69a12.28,12.28,0,0,1,3.48.52c-4.86-3.34-34-20.18-40.23,51.67l-1.7,90.38H173l46,216.55,52.86-68.21s44.34-81.85,61.38-109.13C345,294.37,335.76,215.82,328.84,168.67Z"/><path class="cls-4" d="M328.84,168.67c-2.26,1.24-5.41,2-10,2.09-4.14.09-7.16-.44-9.37-1.46.32,13.24-.63,26.5.63,39.71,3.13,32.86,8,57.87,2,86.66-6.14,29.58-27.4,71.46-45.7,95.33-15.75,20.54-34.5,40.65-57.05,54L219,490.48l52.86-68.21s44.34-81.85,61.38-109.13C345,294.37,335.76,215.82,328.84,168.67Z"/><rect class="cls-4" x="169.11" y="413.75" width="86.83" height="218.8"/><path class="cls-1" d="M61.55,120.75S24,83.24,5.28,100.28s15.35,58,56.27,78.44Z"/><path class="cls-5" d="M154,390.79c0,8.71,7.8,15.78,17.4,15.79s17.42-7,17.42-15.76S181,375,171.42,375,154,382.08,154,390.79Z"/><path class="cls-6" d="M154,390.79c0-8.71,7.83-15.77,17.42-15.76V359.77L76,359.68l.28-300.9,100,.09,0-23.87-16.95,0a4,4,0,0,1-4.19-3.81,4,4,0,0,1,4.2-3.8l16.95,0,0-27.33L99.24,0C78.15,0,61.06,15.46,61,34.55l-.33,352.78c0,19.12,17,34.62,38.14,34.63l72.52.07V406.59C161.79,406.58,154,399.51,154,390.79ZM142.16,27.37a4,4,0,0,1,4.19,3.81,4.22,4.22,0,0,1-8.4,0A4,4,0,0,1,142.16,27.37Z"/><path class="cls-7" d="M244.29.13l-68-.06,0,27.33,25.05,0a4,4,0,0,1,4.18,3.81,4,4,0,0,1-4.18,3.8l-25.05,0,0,23.87,90.88.08-.28,300.9-95.43-.09V375c9.61,0,17.4,7.08,17.4,15.79s-7.81,15.77-17.42,15.76V422l72.52.07c21.09,0,38.18-15.44,38.2-34.56l.33-352.78C282.44,15.66,265.37.15,244.29.13Z"/><path class="cls-5" d="M142.15,35a4,4,0,0,0,4.2-3.8,4.22,4.22,0,0,0-8.4,0A4,4,0,0,0,142.15,35Z"/><path class="cls-5" d="M155.14,31.18A4,4,0,0,0,159.33,35l16.95,0,25.05,0a4,4,0,0,0,4.18-3.8,4,4,0,0,0-4.18-3.81l-25.05,0-16.95,0A4,4,0,0,0,155.14,31.18Z"/><polygon class="cls-8" points="76 359.68 171.43 359.77 266.86 359.86 267.14 58.96 76.28 58.78 76 359.68"/><polygon class="cls-9" points="76 359.68 267.14 58.96 176.25 58.88 76.28 58.78 76 359.68"/><path class="cls-1" d="M100.19,228.92c6.69,6.16,5.37,18.45-2.93,27.46h0c-8.3,9-20.45,11.3-27.12,5.14L23.6,218.61c-6.69-6.16-5.38-18.45,2.92-27.46h0c8.3-9,20.44-11.3,27.12-5.15Z"/><path class="cls-3" d="M88.38,229.11c7.7,7.69,10,17.88,5.1,22.76s-15.07,2.6-22.76-5.09S56.51,233.63,65.63,224,80.69,221.42,88.38,229.11Z"/><path class="cls-1" d="M95.84,289.53c7.2,6.63,6.31,19.31-2,28.31h0c-8.3,9-20.87,10.92-28.06,4.28L15.65,275.92c-7.2-6.64-6.3-19.31,2-28.32h0c8.3-9,20.86-10.92,28.05-4.28Z"/><path class="cls-3" d="M81.56,288.88c7.69,7.69,10,17.88,5.09,22.76s-15.07,2.6-22.76-5.09-14.21-13.15-5.09-22.76S73.87,281.19,81.56,288.88Z"/><path class="cls-1" d="M95.72,354.31c8.21,7.56,8.13,21-.17,30h0c-8.3,9-21.67,10.17-29.87,2.61L8.55,334.25c-8.2-7.56-8.13-21,.17-30h0c8.3-9,21.68-10.17,29.88-2.6Z"/><ellipse class="cls-3" cx="77.47" cy="367.67" rx="12.49" ry="19.69" transform="translate(-237.29 162.47) rotate(-45)"/><rect class="cls-10" x="71.79" y="448.48" width="202.34" height="78.68"/><path class="cls-11" d="M307.45,555.83a38,38,0,0,0-38-38h-193a38,38,0,0,0-38,38v138h269Z"/></svg>