<svg id="Objects" xmlns="http://www.w3.org/2000/svg" viewBox="0 0 89.22 136.04"><defs><style>.cls-1{fill:#f0ce49;}.cls-2{fill:#e78900;opacity:0.38;}.cls-3{fill:#e8edee;}.cls-4{fill:#cbd4d8;}.cls-5{fill:#9c8630;}</style></defs><title>phone hold</title><path class="cls-1" d="M88.94,40.58A45.86,45.86,0,0,0,48.6.23C47.19.23,46,0,44.61,0a22.75,22.75,0,0,0-4,.23A46.09,46.09,0,0,0,.28,40.58a45.2,45.2,0,0,0,13.84,38C19.75,84,24.44,91,25.85,98.51H63.37C64.78,91,69.47,84,75.1,78.57a45.2,45.2,0,0,0,13.84-38"/><ellipse class="cls-2" cx="44.61" cy="98.51" rx="17.47" ry="20.66"/><path class="cls-3" d="M25.85,98.51v28.15H63.37V98.51Z"/><path class="cls-4" d="M41.09,136a7,7,0,0,1-5.63-2.81l-4.93-6.57H58.68l-4.93,6.57A7,7,0,0,1,48.13,136h-7"/><path class="cls-4" d="M47,110.24H63.37v-4.69H47a2.35,2.35,0,0,0,0,4.69Z"/><path class="cls-4" d="M54,119.62h9.38v-4.69H54a2.35,2.35,0,1,0,0,4.69Z"/><path class="cls-4" d="M25.85,107.89v2.35h9.38a2.35,2.35,0,0,0,0-4.69H25.85Z"/><path class="cls-4" d="M42.27,114.93H25.85v4.69H42.27a2.35,2.35,0,0,0,0-4.69Z"/><path class="cls-5" d="M63.65,42.64a3.22,3.22,0,0,0-3.82.11l-6.62,5.18L46.6,42.75a3.22,3.22,0,0,0-4,0L36,47.92,29.4,42.75a3.22,3.22,0,0,0-5.06,3.51L34.95,79.58v19h6.44V82.3h6.44V98.54h6.44v-19L64.88,46.26A3.22,3.22,0,0,0,63.65,42.64Zm-15,33.22H40.52l-6.88-21.6.38.3a3.22,3.22,0,0,0,4,0l6.61-5.18,6.62,5.18a3.22,3.22,0,0,0,4,0l.38-.3Z"/></svg>