<svg id="Objects" xmlns="http://www.w3.org/2000/svg" viewBox="0 0 89.21 89.21"><defs><style>.cls-1{fill:#2c3e50;}.cls-2{fill:#fff;}</style></defs><title>phone hold</title><rect class="cls-1" width="89.21" height="89.21"/><path class="cls-2" d="M48.52,68.58c-.65,0-1.28,0-1.87,0-6.65-.36-17-1.84-17.1-1.86-3.79-.56-5.4-2.49-5.4-6.44V58.13c0-3.87,0-10.34,0-12.82,0-2,1-2.71,2.33-3.75l.19-.14c.6-.45,1.28-1,2-1.47,1.42-1,3-2.21,4.24-3.26a19.39,19.39,0,0,0,6.3-9c.12-.33.25-.66.37-1a6.26,6.26,0,0,0-.14-1c-.26-1.35-.81-4.15,2-5a3.66,3.66,0,0,1,1-.14A5.83,5.83,0,0,1,46.89,23c1.67,2.05,3.3,6.18,1.87,14.3h9.79a4.9,4.9,0,0,1,4,7.73,4.9,4.9,0,0,1,1,7.81,4.9,4.9,0,0,1-1.31,8A4.16,4.16,0,0,1,63,63.13a4.23,4.23,0,0,1-3.64,4.43A68.45,68.45,0,0,1,48.52,68.58Z"/></svg>