<svg id="Objects" xmlns="http://www.w3.org/2000/svg" viewBox="0 0 199.59 40.64"><defs><style>.cls-1{fill:#2ecc71;}.cls-2{fill:#27ae60;}.cls-3,.cls-4{fill:#fff;}.cls-3{opacity:0.79;}</style></defs><title>phone hold</title><rect class="cls-1" x="158.95" width="40.64" height="40.64"/><rect class="cls-2" width="158.95" height="40.64"/><rect class="cls-3" x="64.18" y="-54.13" width="30.6" height="148.9" rx="5.84" ry="5.84" transform="translate(99.79 -59.15) rotate(90)"/><path class="cls-4" d="M192.05,32.87a1.36,1.36,0,0,1-2,0l-7.49-7.49a1.42,1.42,0,1,1,2-2l7.49,7.49A1.79,1.79,0,0,1,192.05,32.87ZM168,22.55a9.72,9.72,0,1,1,13.75,0A9.65,9.65,0,0,1,168,22.55Zm11.74-11.74A6.88,6.88,0,0,0,170,20.54a7,7,0,0,0,9.73,0A7,7,0,0,0,179.72,10.81Zm-6.3,9.73a1.36,1.36,0,0,1-2,0l-.59-.59a6,6,0,0,1,0-8.31l.41-.41a1.42,1.42,0,0,1,2,2c-.18,0-.18.18-.41.41a2.69,2.69,0,0,0,0,4.06l.59.59A1.54,1.54,0,0,1,173.42,20.54Z"/></svg>