<?xml version="1.0" encoding="utf-8"?>
<!-- Generator: Adobe Illustrator 21.1.0, SVG Export Plug-In . SVG Version: 6.00 Build 0)  -->
<svg version="1.1" id="Layer_1" xmlns="http://www.w3.org/2000/svg" xmlns:xlink="http://www.w3.org/1999/xlink" x="0px" y="0px"
	 viewBox="0 0 138.7 59.1" style="enable-background:new 0 0 138.7 59.1;" xml:space="preserve">
<style type="text/css">
	.st0{fill:none;stroke:#CFCFCF;stroke-miterlimit:10;}
	.st1{fill:#BDBDBD;}
	.st2{opacity:0.1;fill:#FFFFFF;enable-background:new    ;}
	.st3{fill:#878787;}
	.st4{fill:#D9D9D9;}
</style>
<g>
	<g>
		<line class="st0" x1="29.8" y1="4.9" x2="1.4" y2="30.9"/>
		<line class="st0" x1="29.8" y1="7.9" x2="5.1" y2="30.9"/>
		<line class="st0" x1="29.8" y1="10.8" x2="8.8" y2="30.9"/>
		<line class="st0" x1="29.8" y1="13.8" x2="12.6" y2="30.9"/>
		<line class="st0" x1="29.8" y1="16.7" x2="16.3" y2="30.9"/>
		<line class="st0" x1="29.8" y1="19.7" x2="20" y2="30.9"/>
		<line class="st0" x1="29.8" y1="22.6" x2="23.8" y2="30.9"/>
		<line class="st0" x1="29.8" y1="25.6" x2="27.5" y2="30.9"/>
	</g>
	<g>
		<line class="st0" x1="33.3" y1="4.9" x2="69.4" y2="30.9"/>
		<line class="st0" x1="33.3" y1="7.9" x2="64.5" y2="30.9"/>
		<line class="st0" x1="33.3" y1="10.8" x2="59.7" y2="30.9"/>
		<line class="st0" x1="33.3" y1="13.8" x2="54.9" y2="30.9"/>
		<line class="st0" x1="33.3" y1="16.7" x2="50.1" y2="30.9"/>
		<line class="st0" x1="33.3" y1="19.7" x2="45.3" y2="30.9"/>
		<line class="st0" x1="33.3" y1="22.6" x2="40.4" y2="30.9"/>
		<line class="st0" x1="33.3" y1="25.6" x2="35.6" y2="30.9"/>
	</g>
	<g>
		<line class="st0" x1="109" y1="4.9" x2="137.5" y2="30.9"/>
		<line class="st0" x1="109" y1="7.9" x2="133.8" y2="30.9"/>
		<line class="st0" x1="109" y1="10.8" x2="130" y2="30.9"/>
		<line class="st0" x1="109" y1="13.8" x2="126.3" y2="30.9"/>
		<line class="st0" x1="109" y1="16.7" x2="122.6" y2="30.9"/>
		<line class="st0" x1="109" y1="19.7" x2="118.8" y2="30.9"/>
		<line class="st0" x1="109" y1="22.6" x2="115.1" y2="30.9"/>
		<line class="st0" x1="109" y1="25.6" x2="111.4" y2="30.9"/>
	</g>
	<g>
		<line class="st0" x1="105.6" y1="4.9" x2="69.5" y2="30.9"/>
		<line class="st0" x1="105.6" y1="7.9" x2="74.3" y2="30.9"/>
		<line class="st0" x1="105.6" y1="10.8" x2="79.1" y2="30.9"/>
		<line class="st0" x1="105.6" y1="13.8" x2="84" y2="30.9"/>
		<line class="st0" x1="105.6" y1="16.7" x2="88.8" y2="30.9"/>
		<line class="st0" x1="105.6" y1="19.7" x2="93.6" y2="30.9"/>
		<line class="st0" x1="105.6" y1="22.6" x2="98.4" y2="30.9"/>
		<line class="st0" x1="105.6" y1="25.6" x2="103.2" y2="30.9"/>
	</g>
</g>
<g id="Background">
</g>
<g id="Objects">
	<g>
		<g>
			<rect y="30.4" class="st1" width="138.7" height="7.1"/>
			<rect y="30.4" class="st2" width="138.7" height="3.5"/>
		</g>
		<g>
			<rect x="13.9" y="31.6" class="st3" width="4.6" height="4.6"/>
			<rect x="21.5" y="31.6" class="st3" width="4.6" height="4.6"/>
			<rect x="6.3" y="31.6" class="st3" width="4.6" height="4.6"/>
			<rect x="29.1" y="31.6" class="st3" width="4.6" height="4.6"/>
			<rect x="36.7" y="31.6" class="st3" width="4.6" height="4.6"/>
			<rect x="44.3" y="31.6" class="st3" width="4.6" height="4.6"/>
			<rect x="51.9" y="31.6" class="st3" width="4.6" height="4.6"/>
			<rect x="59.4" y="31.6" class="st3" width="4.6" height="4.6"/>
			<rect x="67" y="31.6" class="st3" width="4.6" height="4.6"/>
			<rect x="74.6" y="31.6" class="st3" width="4.6" height="4.6"/>
			<rect x="82.2" y="31.6" class="st3" width="4.6" height="4.6"/>
			<rect x="89.8" y="31.6" class="st3" width="4.6" height="4.6"/>
			<rect x="97.4" y="31.6" class="st3" width="4.6" height="4.6"/>
			<rect x="105" y="31.6" class="st3" width="4.6" height="4.6"/>
			<rect x="112.6" y="31.6" class="st3" width="4.6" height="4.6"/>
			<rect x="120.2" y="31.6" class="st3" width="4.6" height="4.6"/>
			<rect x="127.8" y="31.6" class="st3" width="4.6" height="4.6"/>
		</g>
		<g>
			<g>
				<rect x="104.8" y="1.6" class="st4" width="4.9" height="57.5"/>
				<rect x="104.8" y="1.6" class="st2" width="2.5" height="57.5"/>
				<rect x="103.9" class="st1" width="6.7" height="3.7"/>
				<rect x="103.9" class="st2" width="6.7" height="1.9"/>
			</g>
			<g>
				<rect x="28.9" y="1.6" class="st4" width="4.9" height="57.5"/>
				<rect x="28.9" y="1.6" class="st2" width="2.5" height="57.5"/>
				<rect x="28" class="st1" width="6.7" height="3.7"/>
				<rect x="28" class="st2" width="6.7" height="1.9"/>
			</g>
		</g>
	</g>
</g>
<g>
	<path d="M-61.8-7.1v-1.6c0,0,0,0,0,0c0,0,0,0,0,0c0,0,0,0,0,0c0,0,0,0,0,0c0,0,0,0,0,0v0l-2.1-2.4l0,0l0,0c0,0,0,0,0,0c0,0,0,0,0,0
		s0,0,0,0c0,0,0,0,0,0c0,0,0,0,0,0c0,0,0,0,0,0c0,0,0,0,0,0h0c0,0,0,0,0,0c0,0,0,0,0,0c0,0,0,0,0,0l0,0l-2.4,2.4l0,0c0,0,0,0,0,0
		l0,0c0,0,0,0.1,0,0.1v1.6C-75.9-5.7-83,2.2-83,11.8c0,10.5,8.5,19,19,19s19-8.5,19-19C-45,2-52.3-6-61.8-7.1z M-45.8,11.8
		c0,0.2,0,0.3,0,0.5l-15.9-17v-1.5C-52.8-5.2-45.8,2.5-45.8,11.8z M-64,29.9c-3.6,0-7-1.1-9.8-2.9h19.6C-57,28.9-60.4,29.9-64,29.9z
		 M-74.4,26.6c-0.5-0.4-1-0.8-1.5-1.2h4.8h2h1.8h0.5h5.1h1.8h2.7h5.3c-0.5,0.4-1,0.8-1.5,1.2H-74.4z M-76.4,25l9.2-17.7L-71.3,25
		L-76.4,25C-76.4,25-76.4,25-76.4,25z M-68.9,25l3.4-14.7l1,4.2L-67,25H-68.9z M-64.3,15.4l2.2,9.5h-4.5L-64.3,15.4z M-65.3,9.4
		c0-0.1-0.1-0.2-0.2-0.2c-0.1,0-0.2,0.1-0.2,0.2L-69.3,25h-1.6l4.6-19.7h1.5l4.6,19.7h-1.4L-65.3,9.4z M-59.8,25L-64,7l-0.4-1.7h2.2
		l4.6,19.7H-59.8z M-62.2,4.8h-2.2V-8.5h2.2V4.8z M-64.9,4.8h-1.4V-8.5h1.4V4.8z M-66.7-3.3L-82,13.8c0-0.5-0.1-1-0.1-1.5l15.5-16.4
		V-3.3z M-66.7-2.7v0.8l-15,17.7c-0.1-0.5-0.2-0.9-0.3-1.4L-66.7-2.7z M-66.7-1.3v0.8l-14.5,18.1c-0.2-0.5-0.3-0.9-0.4-1.4
		L-66.7-1.3z M-66.7,0.2v0.7l-13.7,18.5c-0.2-0.4-0.4-0.9-0.6-1.4L-66.7,0.2z M-66.7,1.6v0.7l-12.8,18.9c-0.3-0.4-0.5-0.9-0.8-1.4
		L-66.7,1.6z M-66.7,3.1v0.7L-78.2,23c-0.3-0.4-0.7-0.9-1-1.3L-66.7,3.1z M-57.1,25l-4.1-17.7l9.2,17.7H-57.1z M-61.8,3.1L-49,22
		c-0.3,0.5-0.7,0.9-1,1.3L-61.8,3.8V3.1z M-61.8,2.4V1.6L-48,20.3c-0.2,0.5-0.5,0.9-0.8,1.3L-61.8,2.4z M-61.8,0.9V0.2l14.6,18.3
		c-0.2,0.5-0.4,0.9-0.6,1.4L-61.8,0.9z M-61.8-0.5v-0.8l15.3,17.9c-0.1,0.5-0.3,0.9-0.4,1.4L-61.8-0.5z M-61.8-1.9v-0.8l15.7,17.5
		c-0.1,0.5-0.2,0.9-0.3,1.4L-61.8-1.9z M-61.8-3.3v-0.8l15.9,16.9c0,0.5-0.1,1-0.1,1.4L-61.8-3.3z M-64.4-8.9l0.4-1.7l1.5,1.7H-64.4
		z M-64.5-10.4l-0.2,0.9l-0.1,0.5H-66L-64.5-10.4z M-66.7-6.2v1.5l-15.5,16.4C-82.1,2.6-75.4-4.9-66.7-6.2z M-78,23.4l11.3-18.7V5
		l-0.1,0.6l-9.9,19.1C-77.2,24.3-77.6,23.8-78,23.4z M-51.6,25L-51.6,25L-61.7,5.6L-61.8,5V4.7l11.5,19
		C-50.7,24.1-51.1,24.6-51.6,25z"/>
</g>
</svg>
