<?xml version="1.0" encoding="utf-8"?>
<!-- Generator: Adobe Illustrator 21.1.0, SVG Export Plug-In . SVG Version: 6.00 Build 0)  -->
<svg version="1.1" id="Layer_1" xmlns="http://www.w3.org/2000/svg" xmlns:xlink="http://www.w3.org/1999/xlink" x="0px" y="0px"
	 viewBox="0 0 168.5 269.7" style="enable-background:new 0 0 168.5 269.7;" xml:space="preserve">
<style type="text/css">
	.st0{fill:none;stroke:#231F20;stroke-miterlimit:10;}
	.st1{fill-rule:evenodd;clip-rule:evenodd;fill:#525252;}
	.st2{fill-rule:evenodd;clip-rule:evenodd;fill:#FFFFFF;}
	.st3{fill-rule:evenodd;clip-rule:evenodd;fill:#EA2029;}
	.st4{fill-rule:evenodd;clip-rule:evenodd;fill:#007ABB;}
	.st5{fill-rule:evenodd;clip-rule:evenodd;fill:#D8242C;}
	.st6{fill-rule:evenodd;clip-rule:evenodd;fill:#F05A27;}
</style>
<g id="Background">
</g>
<g>
	<g>
		<line class="st0" x1="19.5" y1="244.7" x2="44.1" y2="269.2"/>
		<line class="st0" x1="44.4" y1="244.7" x2="19.5" y2="269.6"/>
	</g>
	<g>
		<line class="st0" x1="45.7" y1="244.7" x2="70.3" y2="269.2"/>
		<line class="st0" x1="70.6" y1="244.7" x2="45.7" y2="269.6"/>
	</g>
	<g>
		<line class="st0" x1="71.8" y1="244.7" x2="96.4" y2="269.2"/>
		<line class="st0" x1="96.7" y1="244.7" x2="71.8" y2="269.6"/>
	</g>
	<g>
		<line class="st0" x1="98.1" y1="244.7" x2="122.7" y2="269.2"/>
		<line class="st0" x1="123" y1="244.7" x2="98.1" y2="269.6"/>
	</g>
	<g>
		<line class="st0" x1="124.1" y1="244.7" x2="148.6" y2="269.2"/>
		<line class="st0" x1="149" y1="244.7" x2="124.1" y2="269.6"/>
	</g>
	<g>
		<path class="st1" d="M14.6,0h139.4c8,0,14.6,6.6,14.6,14.6v140.1c0,8-6.6,14.6-14.6,14.6H14.6c-8,0-14.6-6.6-14.6-14.6V14.6
			C0,6.6,6.6,0,14.6,0L14.6,0z"/>
		<path class="st2" d="M13.4,4.3h141.8c5,0,9.1,4.1,9.1,9.1v142.5c0,5-4.1,9.1-9.1,9.1H13.4c-5,0-9.1-4.1-9.1-9.1V13.4
			C4.3,8.4,8.4,4.3,13.4,4.3L13.4,4.3z"/>
		<polygon class="st3" points="17,121.1 147.6,121.1 82.6,82.6 17,121.1 		"/>
		<path class="st4" d="M45.1,149.2v7.8l-0.4,0.2l-0.5,0.2l-0.6,0.3l-0.7,0.3l-0.8,0.3l-0.9,0.3l-1,0.3l-1.1,0.2l-1.2,0.2l-1.2,0.1
			l-1.3,0.1l-1.4,0l-1.4-0.1l-1.5-0.2l-1.5-0.3l-1.6-0.5l-0.9-0.3l-0.8-0.4l-0.8-0.5l-0.7-0.5l-0.7-0.5l-0.6-0.6l-0.5-0.6l-0.5-0.6
			l-0.5-0.6l-0.4-0.6l-0.4-0.6l-0.3-0.6l-0.2-0.6l-0.2-0.5l-0.2-0.5l-0.1-0.4l-0.1-0.6l-0.2-0.9l-0.1-1.2l-0.1-1.4l0-1.6l0.1-1.7
			l0.2-1.8l0.4-1.8l0.6-1.8l0.8-1.7l1-1.6l1.3-1.5l1.6-1.3l2-1.1l2.4-0.8l2.8-0.5l0.8-0.1l0.8-0.1l0.9,0h0.9l0.9,0l0.9,0l0.9,0.1
			l0.9,0.1l0.8,0.1l0.8,0.1l0.8,0.2l0.7,0.2l0.6,0.2l0.6,0.2l0.5,0.3l0.4,0.3v7.7l-0.3-0.2l-0.3-0.2l-0.4-0.2l-0.5-0.2L43,137
			l-0.6-0.3l-0.7-0.2l-0.7-0.2l-0.8-0.2l-0.9-0.2l-0.9-0.1l-1-0.1h-1l-1,0.1l-1.1,0.1l-1.1,0.2l-1.1,0.4l-0.9,0.6l-0.8,0.8l-0.7,0.9
			l-0.5,1l-0.4,1.1l-0.3,1.2l-0.1,1.2l0,1.2l0.1,1.2l0.3,1.1l0.4,1.1l0.5,1l0.6,0.8l0.8,0.7l0.9,0.5l1,0.4l1,0.3l1.1,0.2l1.1,0.1
			l1.1,0l1.1-0.1l1-0.1l1-0.2l0.9-0.2l0.9-0.3l0.8-0.3l0.7-0.3l0.6-0.3l0.5-0.3l0.3-0.3L45.1,149.2L45.1,149.2z M57.6,158.6V129
			h-8.4v29.6H57.6L57.6,158.6z M59.6,129v7.1h8v22.6h8.4v-22.5h7.7V129H59.6L59.6,129z M110.1,130.4l-0.3-0.2l-0.4-0.2l-0.5-0.2
			l-0.6-0.2l-0.7-0.2l-0.9-0.2l-1-0.2l-1-0.2l-1.1-0.1l-1.2-0.1l-1.3-0.1l-1.4,0l-1.4,0l-1.5,0.1l-1.5,0.2l-1.6,0.3l-1.4,0.3
			l-1.2,0.5l-1.1,0.6l-0.9,0.7l-0.8,0.8l-0.7,0.8l-0.6,0.9l-0.5,0.9l-0.4,0.9l-0.3,0.9l-0.3,0.8l-0.2,0.7l-0.2,0.6l-0.1,0.5
			l-0.1,0.4l0,0.2l-0.1,0.5l-0.1,0.8l-0.1,1l-0.1,1.2l0,1.3l0,1.5l0.1,1.5l0.2,1.6l0.4,1.6l0.5,1.5l0.7,1.5l0.9,1.3l1.1,1.2l1.3,1
			l1.6,0.8l1.9,0.5l2.1,0.3l2.1,0.2l1.9,0.1l1.8,0l1.7-0.1l1.6-0.2l1.5-0.4l1.4-0.5l1.2-0.6l1.1-0.8l0.9-0.9l0.8-1.1l0.6-1.2
			l0.4-1.4l0.3-1.5l0.1-1.7v-7.5H99.3v6.3h6.1l0,0.5l0,0.5l0,0.4l-0.1,0.4l-0.1,0.4l-0.1,0.4l-0.1,0.4l-0.1,0.3l-0.2,0.3l-0.2,0.3
			l-0.2,0.3l-0.3,0.2l-0.3,0.2l-0.4,0.2l-0.4,0.1l-0.4,0.1l-0.5,0.1l-0.6,0.1l-0.7,0.1l-0.8,0l-0.8,0l-0.8-0.1l-0.9-0.2l-0.8-0.2
			l-0.8-0.3l-0.8-0.5l-0.7-0.6l-0.6-0.7l-0.5-0.9l-0.4-1.1l-0.2-1.3l0-1.5l0-1.3l0.1-1.2l0.1-1.1l0.2-1l0.2-0.9l0.3-0.8l0.4-0.8
			l0.5-0.7l0.6-0.6l0.7-0.5l0.9-0.4l1-0.3l1.2-0.2l1.4-0.1l1.5,0l1.8,0.2l0.7,0.1l0.7,0.1l0.6,0.1l0.6,0.1l0.6,0.1l0.6,0.1l0.5,0.1
			l0.5,0.1l0.4,0.1l0.4,0.1l0.3,0.1l0.3,0.1l0.2,0.1l0.2,0.1l0.1,0l0,0L110.1,130.4L110.1,130.4z M115.9,144.7l0.1,2l0.2,1.8
			l0.3,1.7l0.4,1.5l0.5,1.4l0.6,1.3l0.7,1.1l0.8,1l1,0.8l1.1,0.7l1.2,0.6l1.4,0.5l1.5,0.4l1.7,0.3l1.8,0.1l2,0l1.9-0.1l1.8-0.2
			l1.6-0.3l1.5-0.4l1.4-0.5l1.2-0.7l1.1-0.8l0.9-0.9l0.8-1l0.7-1.2l0.6-1.3l0.5-1.4l0.4-1.6l0.3-1.7l0.1-1.8l0.1-2l-0.1-2l-0.2-1.8
			l-0.3-1.7l-0.4-1.6l-0.5-1.4l-0.6-1.3l-0.7-1.1l-0.8-1l-1-0.9l-1.1-0.8l-1.2-0.6l-1.4-0.5l-1.5-0.4l-1.7-0.3l-1.8-0.2l-2-0.1l-2,0
			l-1.8,0.2l-1.7,0.3l-1.5,0.4l-1.4,0.5l-1.2,0.6l-1.1,0.8l-0.9,0.9l-0.8,1l-0.7,1.2l-0.6,1.3l-0.5,1.5l-0.3,1.6l-0.2,1.8l-0.1,1.9
			L115.9,144.7L115.9,144.7z M123.4,144.3l0,1.1l0.1,1l0.1,0.9l0.2,0.8l0.2,0.7l0.3,0.7l0.4,0.6l0.4,0.5l0.5,0.5l0.5,0.4l0.6,0.3
			l0.7,0.3l0.7,0.2l0.8,0.1l0.9,0.1l1,0l0.9,0l0.9-0.1l0.8-0.2l0.7-0.2l0.7-0.3l0.6-0.4l0.5-0.4l0.5-0.5l0.4-0.5l0.3-0.6l0.3-0.7
			l0.2-0.8l0.2-0.8l0.1-0.9l0.1-1l0-1l0-1.1l-0.1-1l-0.1-0.9l-0.2-0.8l-0.2-0.7l-0.3-0.7l-0.4-0.6l-0.4-0.5l-0.5-0.5l-0.5-0.4
			l-0.6-0.3l-0.7-0.3l-0.7-0.2l-0.8-0.2l-0.9-0.1l-1,0l-1,0l-0.9,0.1l-0.8,0.2l-0.7,0.2l-0.7,0.3l-0.6,0.4l-0.5,0.4l-0.5,0.5
			l-0.4,0.6l-0.3,0.6l-0.3,0.7l-0.2,0.8l-0.2,0.9l-0.1,0.9l-0.1,1L123.4,144.3L123.4,144.3z"/>
		<polygon class="st5" points="147.6,121.1 82.6,10.8 82.6,82.6 147.6,121.1 		"/>
		<polygon class="st6" points="17,121.1 82.6,10.8 82.6,82.6 17,121.1 		"/>
	</g>
	<g>
		<line class="st0" x1="19.5" y1="169.1" x2="44.1" y2="193.7"/>
		<line class="st0" x1="44.4" y1="169.1" x2="19.5" y2="194"/>
	</g>
	<g>
		<line class="st0" x1="45.7" y1="169.1" x2="70.3" y2="193.7"/>
		<line class="st0" x1="70.6" y1="169.1" x2="45.7" y2="194"/>
	</g>
	<g>
		<line class="st0" x1="71.8" y1="169.1" x2="96.4" y2="193.7"/>
		<line class="st0" x1="96.7" y1="169.1" x2="71.8" y2="194"/>
	</g>
	<g>
		<line class="st0" x1="98.1" y1="169.1" x2="122.7" y2="193.7"/>
		<line class="st0" x1="123" y1="169.1" x2="98.1" y2="194"/>
	</g>
	<g>
		<line class="st0" x1="124.1" y1="169.1" x2="148.6" y2="193.7"/>
		<line class="st0" x1="149" y1="169.1" x2="124.1" y2="194"/>
	</g>
	<g>
		<line class="st0" x1="19.5" y1="219.6" x2="44.1" y2="244.1"/>
		<line class="st0" x1="44.4" y1="219.6" x2="19.5" y2="244.5"/>
	</g>
	<g>
		<line class="st0" x1="45.7" y1="219.6" x2="70.3" y2="244.1"/>
		<line class="st0" x1="70.6" y1="219.6" x2="45.7" y2="244.5"/>
	</g>
	<g>
		<line class="st0" x1="71.8" y1="219.6" x2="96.4" y2="244.1"/>
		<line class="st0" x1="96.7" y1="219.6" x2="71.8" y2="244.5"/>
	</g>
	<g>
		<line class="st0" x1="98.1" y1="219.6" x2="122.7" y2="244.1"/>
		<line class="st0" x1="123" y1="219.6" x2="98.1" y2="244.5"/>
	</g>
	<g>
		<line class="st0" x1="124.1" y1="219.6" x2="148.6" y2="244.1"/>
		<line class="st0" x1="149" y1="219.6" x2="124.1" y2="244.5"/>
	</g>
	<g>
		<line class="st0" x1="19.5" y1="194.6" x2="44.1" y2="219.1"/>
		<line class="st0" x1="44.4" y1="194.6" x2="19.5" y2="219.5"/>
	</g>
	<g>
		<line class="st0" x1="45.7" y1="194.6" x2="70.3" y2="219.1"/>
		<line class="st0" x1="70.6" y1="194.6" x2="45.7" y2="219.5"/>
	</g>
	<g>
		<line class="st0" x1="71.8" y1="194.6" x2="96.4" y2="219.1"/>
		<line class="st0" x1="96.7" y1="194.6" x2="71.8" y2="219.5"/>
	</g>
	<g>
		<line class="st0" x1="98.1" y1="194.6" x2="122.7" y2="219.1"/>
		<line class="st0" x1="123" y1="194.6" x2="98.1" y2="219.5"/>
	</g>
	<g>
		<line class="st0" x1="124.1" y1="194.6" x2="148.6" y2="219.1"/>
		<line class="st0" x1="149" y1="194.6" x2="124.1" y2="219.5"/>
	</g>
	<g>
		<rect x="17.5" y="169.2" class="st1" width="2.8" height="100.5"/>
		<rect x="43.7" y="169.2" class="st1" width="2.8" height="100.5"/>
		<rect x="69.8" y="169.2" class="st1" width="2.8" height="100.5"/>
		<rect x="95.9" y="169.2" class="st1" width="2.8" height="100.5"/>
		<rect x="122" y="169.2" class="st1" width="2.8" height="100.5"/>
		<rect x="148.1" y="169.2" class="st1" width="2.8" height="100.5"/>
	</g>
	
		<rect x="82.8" y="129.3" transform="matrix(-1.836970e-16 1 -1 -1.836970e-16 278.8427 110.3142)" class="st1" width="2.8" height="130.6"/>
	
		<rect x="82.8" y="154.3" transform="matrix(-1.836970e-16 1 -1 -1.836970e-16 303.8427 135.3142)" class="st1" width="2.8" height="130.6"/>
	
		<rect x="82.8" y="179.4" transform="matrix(-1.836970e-16 1 -1 -1.836970e-16 328.9207 160.3922)" class="st1" width="2.8" height="130.6"/>
</g>
</svg>
