<?xml version="1.0" encoding="utf-8"?>
<!-- Generator: Adobe Illustrator 21.1.0, SVG Export Plug-In . SVG Version: 6.00 Build 0)  -->
<svg version="1.1" id="Layer_1" xmlns="http://www.w3.org/2000/svg" xmlns:xlink="http://www.w3.org/1999/xlink" x="0px" y="0px"
	 viewBox="0 0 108.8 376.4" style="enable-background:new 0 0 108.8 376.4;" xml:space="preserve">
<style type="text/css">
	.st0{fill:#FFFFFF;}
	.st1{fill:#F00008;}
	.st2{fill:#1C75B8;}
	.st3{fill:#8AB0D6;}
	.st4{opacity:0.4;fill:#1F6FAB;enable-background:new    ;}
	.st5{fill:#79B6E8;}
	.st6{fill:#4894CF;}
	.st7{fill:#124B78;}
	.st8{opacity:0.2;fill:#FFFFFF;enable-background:new    ;}
</style>
<g id="Background">
</g>
<g>
	<g>
		<polygon class="st0" points="22.4,25 21.6,25 29,9 29.7,9 		"/>
		<polygon class="st0" points="40.4,25 41.2,25 33.8,9 33.1,9 		"/>
	</g>
	<path class="st1" d="M32,43.2c0,0.5-0.3,0.9-0.6,0.9l0,0c-0.3,0-0.6-0.4-0.6-0.9V0.9c0-0.5,0.3-0.9,0.6-0.9l0,0
		C31.7,0,32,0.4,32,0.9V43.2z"/>
	<rect x="18.5" y="25" class="st2" width="25.7" height="2.2"/>
	<rect x="18.5" y="27.2" class="st3" width="25.7" height="7.6"/>
	<g>
		<rect x="21" y="29.6" class="st4" width="1.4" height="5.2"/>
		<rect x="24.9" y="29.6" class="st4" width="1.4" height="5.2"/>
		<rect x="28.8" y="29.6" class="st4" width="1.4" height="5.2"/>
		<rect x="32.7" y="29.6" class="st4" width="1.4" height="5.2"/>
		<rect x="36.5" y="29.6" class="st4" width="1.4" height="5.2"/>
		<rect x="40.4" y="29.6" class="st4" width="1.4" height="5.2"/>
	</g>
	<rect x="26.3" y="5.5" class="st2" width="10.3" height="4"/>
</g>
<g>
	<path class="st1" d="M17.2,40c0,0.5-0.3,0.9-0.6,0.9l0,0c-0.3,0-0.6-0.4-0.6-0.9"/>
	<polygon class="st5" points="0,33.6 59.9,19.2 59.9,376.9 0,376.9 	"/>
	<polygon class="st2" points="0,31.6 59.9,17.2 59.9,19.2 0,33.6 	"/>
	<line class="st3" x1="29.5" y1="31.6" x2="3.8" y2="31.6"/>
	<g>
		<line class="st4" x1="7.6" y1="31.6" x2="6.2" y2="31.6"/>
		<line class="st4" x1="11.5" y1="31.6" x2="10.1" y2="31.6"/>
		<line class="st4" x1="15.3" y1="31.6" x2="14" y2="31.6"/>
		<line class="st4" x1="19.2" y1="31.6" x2="17.9" y2="31.6"/>
		<line class="st4" x1="23.1" y1="31.6" x2="21.7" y2="31.6"/>
		<line class="st4" x1="27" y1="31.6" x2="25.6" y2="31.6"/>
	</g>
	<polygon class="st6" points="0,38.3 59.9,23.9 59.9,25.1 0,39.5 	"/>
	<polygon class="st6" points="0,45.3 59.9,30.9 59.9,32.1 0,46.5 	"/>
	<polygon class="st6" points="0,52.3 59.9,37.9 59.9,39.1 0,53.5 	"/>
	<polygon class="st6" points="0,59.3 59.9,44.9 59.9,46.1 0,60.5 	"/>
	<polygon class="st6" points="0,66.3 59.9,51.9 59.9,53.1 0,67.5 	"/>
	<polygon class="st6" points="0,73.3 59.9,58.9 59.9,60.1 0,74.5 	"/>
	<polygon class="st6" points="0,80.3 59.9,65.9 59.9,67.1 0,81.5 	"/>
	<polygon class="st6" points="0,87.3 59.9,72.9 59.9,74.1 0,88.5 	"/>
	<polygon class="st6" points="0,94.3 59.9,79.9 59.9,81.1 0,95.5 	"/>
	<polygon class="st6" points="0,101.3 59.9,86.9 59.9,88.1 0,102.5 	"/>
	<polygon class="st6" points="0,108.3 59.9,93.9 59.9,95.1 0,109.5 	"/>
	<polygon class="st6" points="0,115.3 59.9,100.9 59.9,102.1 0,116.5 	"/>
	<polygon class="st6" points="0,122.3 59.9,107.9 59.9,109.1 0,123.5 	"/>
	<polygon class="st6" points="0,129.3 59.9,114.9 59.9,116.1 0,130.5 	"/>
	<polygon class="st6" points="0,136.3 59.9,121.9 59.9,123.1 0,137.5 	"/>
	<polygon class="st6" points="0,143.3 59.9,128.9 59.9,130.1 0,144.5 	"/>
	<polygon class="st6" points="0,150.3 59.9,135.9 59.9,137.1 0,151.5 	"/>
	<polygon class="st6" points="0,157.3 59.9,142.9 59.9,144.1 0,158.5 	"/>
	<polygon class="st6" points="0,164.3 59.9,149.9 59.9,151.1 0,165.5 	"/>
	<polygon class="st6" points="0,171.3 59.9,156.9 59.9,158.1 0,172.5 	"/>
	<polygon class="st6" points="0,178.3 59.9,163.9 59.9,165.1 0,179.5 	"/>
	<polygon class="st6" points="0,185.3 59.9,170.9 59.9,172.1 0,186.5 	"/>
	<polygon class="st6" points="0,192.3 59.9,177.9 59.9,179.1 0,193.5 	"/>
	<polygon class="st6" points="0,199.3 59.9,184.9 59.9,186.1 0,200.5 	"/>
	<polygon class="st6" points="0,206.3 59.9,191.9 59.9,193.1 0,207.5 	"/>
	<polygon class="st6" points="0,213.3 59.9,198.9 59.9,200.1 0,214.5 	"/>
	<polygon class="st6" points="0,220.3 59.9,205.9 59.9,207.1 0,221.5 	"/>
	<polygon class="st6" points="0,227.3 59.9,212.9 59.9,214.1 0,228.5 	"/>
	<polygon class="st6" points="0,234.3 59.9,219.9 59.9,221.1 0,235.5 	"/>
	<polygon class="st6" points="0,241.3 59.9,226.9 59.9,228.1 0,242.5 	"/>
	<polygon class="st6" points="0,248.3 59.9,233.9 59.9,235.1 0,249.5 	"/>
	<polygon class="st6" points="0,255.3 59.9,240.9 59.9,242.1 0,256.5 	"/>
	<polygon class="st6" points="0,262.3 59.9,247.8 59.9,249.1 0,263.5 	"/>
	<polygon class="st6" points="0,269.3 59.9,254.8 59.9,256.1 0,270.5 	"/>
	<polygon class="st6" points="0,276.3 59.9,261.8 59.9,263 0,277.5 	"/>
	<polygon class="st6" points="0,283.3 59.9,268.8 59.9,270 0,284.5 	"/>
	<polygon class="st6" points="0,290.2 59.9,275.8 59.9,277 0,291.5 	"/>
	<polygon class="st6" points="0,297.2 59.9,282.8 59.9,284 0,298.5 	"/>
	<polygon class="st6" points="0,304.2 59.9,289.8 59.9,291 0,305.4 	"/>
	<polygon class="st6" points="0,311.2 59.9,296.8 59.9,298 0,312.4 	"/>
	<polygon class="st6" points="0,318.2 59.9,303.8 59.9,305 0,319.4 	"/>
	<polygon class="st6" points="0,325.2 59.9,310.8 59.9,312 0,326.4 	"/>
	<polygon class="st6" points="0,332.2 59.9,317.8 59.9,319 0,333.4 	"/>
	<polygon class="st6" points="0,339.2 59.9,324.8 59.9,326 0,340.4 	"/>
	<polygon class="st6" points="0,346.2 59.9,331.8 59.9,333 0,347.4 	"/>
	<polygon class="st6" points="0,353.2 59.9,338.8 59.9,340 0,354.4 	"/>
	<polygon class="st6" points="0,360.2 59.9,345.8 59.9,347 0,361.4 	"/>
	<polygon class="st6" points="0,367.2 59.9,352.8 59.9,354 0,368.4 	"/>
</g>
<g>
	<path class="st1" d="M75.2,25.6c0,0.5-0.3,0.9-0.7,0.9l0,0c-0.4,0-0.7-0.4-0.7-0.9"/>
	<rect x="59.9" y="19.2" class="st5" width="48.9" height="357.6"/>
	<rect x="84.9" y="17.2" class="st2" width="6.9" height="359.7"/>
	<rect x="84.9" y="17.2" class="st7" width="4.3" height="359.7"/>
	<rect x="59.9" y="17.2" class="st2" width="48.9" height="2.1"/>
	<line class="st3" x1="93.1" y1="17.2" x2="67.3" y2="17.2"/>
	<g>
		<line class="st4" x1="60.5" y1="17.2" x2="58.8" y2="17.2"/>
		<line class="st4" x1="68.1" y1="17.2" x2="63.7" y2="17.2"/>
		<line class="st4" x1="72.9" y1="17.2" x2="71.2" y2="17.2"/>
		<line class="st4" x1="77.7" y1="17.2" x2="76" y2="17.2"/>
		<line class="st4" x1="85.2" y1="17.2" x2="83.5" y2="17.2"/>
		<line class="st4" x1="87.3" y1="17.2" x2="85.6" y2="17.2"/>
	</g>
	<rect x="59.9" y="23.9" class="st6" width="48.9" height="1.2"/>
	<rect x="59.9" y="30.9" class="st6" width="48.9" height="1.2"/>
	<rect x="59.9" y="37.9" class="st6" width="48.9" height="1.2"/>
	<rect x="59.9" y="44.9" class="st6" width="48.9" height="1.2"/>
	<rect x="59.9" y="51.9" class="st6" width="48.9" height="1.2"/>
	<rect x="59.9" y="58.9" class="st6" width="48.9" height="1.2"/>
	<rect x="59.9" y="65.9" class="st6" width="48.9" height="1.2"/>
	<rect x="59.9" y="72.9" class="st6" width="48.9" height="1.2"/>
	<rect x="59.9" y="79.9" class="st6" width="48.9" height="1.2"/>
	<rect x="59.9" y="86.9" class="st6" width="48.9" height="1.2"/>
	<rect x="59.9" y="93.9" class="st6" width="48.9" height="1.2"/>
	<rect x="59.9" y="100.9" class="st6" width="48.9" height="1.2"/>
	<rect x="59.9" y="107.9" class="st6" width="48.9" height="1.2"/>
	<rect x="59.9" y="114.9" class="st6" width="48.9" height="1.2"/>
	<rect x="59.9" y="121.9" class="st6" width="48.9" height="1.2"/>
	<rect x="59.9" y="128.9" class="st6" width="48.9" height="1.2"/>
	<rect x="59.9" y="135.9" class="st6" width="48.9" height="1.2"/>
	<rect x="59.9" y="142.9" class="st6" width="48.9" height="1.2"/>
	<rect x="59.9" y="149.9" class="st6" width="48.9" height="1.2"/>
	<rect x="59.9" y="156.9" class="st6" width="48.9" height="1.2"/>
	<rect x="59.9" y="163.9" class="st6" width="48.9" height="1.2"/>
	<rect x="59.9" y="170.9" class="st6" width="48.9" height="1.2"/>
	<rect x="59.9" y="177.9" class="st6" width="48.9" height="1.2"/>
	<rect x="59.9" y="184.9" class="st6" width="48.9" height="1.2"/>
	<rect x="59.9" y="191.9" class="st6" width="48.9" height="1.2"/>
	<rect x="59.9" y="198.9" class="st6" width="48.9" height="1.2"/>
	<rect x="59.9" y="205.9" class="st6" width="48.9" height="1.2"/>
	<rect x="59.9" y="212.9" class="st6" width="48.9" height="1.2"/>
	<rect x="59.9" y="219.9" class="st6" width="48.9" height="1.2"/>
	<rect x="59.9" y="226.9" class="st6" width="48.9" height="1.2"/>
	<rect x="59.9" y="233.9" class="st6" width="48.9" height="1.2"/>
	<rect x="59.9" y="240.9" class="st6" width="48.9" height="1.2"/>
	<rect x="59.9" y="247.8" class="st6" width="48.9" height="1.2"/>
	<rect x="59.9" y="254.8" class="st6" width="48.9" height="1.2"/>
	<rect x="59.9" y="261.8" class="st6" width="48.9" height="1.2"/>
	<rect x="59.9" y="268.8" class="st6" width="48.9" height="1.2"/>
	<rect x="59.9" y="275.8" class="st6" width="48.9" height="1.2"/>
	<rect x="59.9" y="282.8" class="st6" width="48.9" height="1.2"/>
	<rect x="59.9" y="289.8" class="st6" width="48.9" height="1.2"/>
	<rect x="59.9" y="296.8" class="st6" width="48.9" height="1.2"/>
	<rect x="59.9" y="303.8" class="st6" width="48.9" height="1.2"/>
	<rect x="59.9" y="310.8" class="st6" width="48.9" height="1.2"/>
	<rect x="59.9" y="317.8" class="st6" width="48.9" height="1.2"/>
	<rect x="59.9" y="324.8" class="st6" width="48.9" height="1.2"/>
	<rect x="59.9" y="331.8" class="st6" width="48.9" height="1.2"/>
	<rect x="59.9" y="338.8" class="st6" width="48.9" height="1.2"/>
	<rect x="59.9" y="345.8" class="st6" width="48.9" height="1.2"/>
	<rect x="59.9" y="352.8" class="st6" width="48.9" height="1.2"/>
</g>
<path class="st8" d="M59.9,17.2L0,31.7v2.7v6.1V42v7.5V51v7.5v1.6v7.5v1.6v7.5v1.6v7.5v1.6v7.5v1.6v7.5v1.6v7.5v1.6v7.5v1.6v7.5v1.6
	v7.5v1.6v7.5v1.6v7.5v1.6v7.5v1.6v7.5v1.6v7.5v1.6v7.5v1.6v7.5v1.6v7.5v1.6v7.5v1.6v7.5v1.6v7.5v1.6v7.5v1.6v7.5v1.6v7.5v1.6v7.5
	v1.6v7.5v1.6v7.5v1.6v7.5v1.6v7.5v1.6v7.5v1.6v7.5v1.6v7.5v1.6v7.5v1.6v7.5v1.6v7.5v1.6v9.5h59.9V17.2z M59.9,17.2L59.9,17.2
	c-1.3,0-1.5,0.4-1.5,0.9"/>
</svg>
