<?xml version="1.0" encoding="utf-8"?>
<!-- Generator: Adobe Illustrator 21.1.0, SVG Export Plug-In . SVG Version: 6.00 Build 0)  -->
<svg version="1.1" id="Layer_1" xmlns="http://www.w3.org/2000/svg" xmlns:xlink="http://www.w3.org/1999/xlink" x="0px" y="0px"
	 viewBox="0 0 171 356.1" style="enable-background:new 0 0 171 356.1;" xml:space="preserve">
<style type="text/css">
	.st0{fill:#FFFFFF;}
	.st1{fill:#F00008;}
	.st2{fill:#1C75B8;}
	.st3{fill:#8AB0D6;}
	.st4{opacity:0.4;fill:#1F6FAB;enable-background:new    ;}
	.st5{fill:#79B6E8;}
	.st6{fill:#4894CF;}
	.st7{fill:#124B78;}
	.st8{opacity:0.2;fill:#FFFFFF;enable-background:new    ;}
</style>
<g id="Background">
</g>
<g>
	<g>
		<polygon class="st0" points="33,25 31.9,25 42.8,9 43.9,9 		"/>
		<polygon class="st0" points="59.7,25 60.9,25 50,9 48.8,9 		"/>
	</g>
	<path class="st1" d="M47.2,43.2c0,0.5-0.4,0.9-0.9,0.9l0,0c-0.5,0-0.9-0.4-0.9-0.9V0.9c0-0.5,0.4-0.9,0.9-0.9l0,0
		c0.5,0,0.9,0.4,0.9,0.9V43.2z"/>
	<rect x="27.4" y="25" class="st2" width="38" height="2.2"/>
	<rect x="27.4" y="27.2" class="st3" width="38" height="7.6"/>
	<g>
		<rect x="31" y="29.6" class="st4" width="2" height="5.2"/>
		<rect x="36.8" y="29.6" class="st4" width="2" height="5.2"/>
		<rect x="42.5" y="29.6" class="st4" width="2" height="5.2"/>
		<rect x="48.2" y="29.6" class="st4" width="2" height="5.2"/>
		<rect x="53.9" y="29.6" class="st4" width="2" height="5.2"/>
		<rect x="59.7" y="29.6" class="st4" width="2" height="5.2"/>
	</g>
	<rect x="38.8" y="5.5" class="st2" width="15.2" height="4"/>
</g>
<g>
	<path class="st1" d="M25.4,40c0,0.5-0.4,0.9-0.9,0.9l0,0c-0.5,0-0.9-0.4-0.9-0.9"/>
	<polygon class="st5" points="0,33.6 98.8,19.2 98.8,376.9 0,376.9 	"/>
	<polygon class="st2" points="0,31.6 98.8,17.2 98.8,19.2 0,33.6 	"/>
	<line class="st3" x1="43.5" y1="31.6" x2="5.5" y2="31.6"/>
	<g>
		<line class="st4" x1="11.2" y1="31.6" x2="9.2" y2="31.6"/>
		<line class="st4" x1="16.9" y1="31.6" x2="14.9" y2="31.6"/>
		<line class="st4" x1="22.7" y1="31.6" x2="20.6" y2="31.6"/>
		<line class="st4" x1="28.4" y1="31.6" x2="26.4" y2="31.6"/>
		<line class="st4" x1="34.1" y1="31.6" x2="32.1" y2="31.6"/>
		<line class="st4" x1="39.8" y1="31.6" x2="37.8" y2="31.6"/>
	</g>
	<polygon class="st6" points="0,38.3 98.8,23.9 98.8,25.1 0,39.5 	"/>
	<polygon class="st6" points="0,45.3 98.8,30.9 98.8,32.1 0,46.5 	"/>
	<polygon class="st6" points="0,52.3 98.8,37.9 98.8,39.1 0,53.5 	"/>
	<polygon class="st6" points="0,59.3 98.8,44.9 98.8,46.1 0,60.5 	"/>
	<polygon class="st6" points="0,66.3 98.8,51.9 98.8,53.1 0,67.5 	"/>
	<polygon class="st6" points="0,73.3 98.8,58.9 98.8,60.1 0,74.5 	"/>
	<polygon class="st6" points="0,80.3 98.8,65.9 98.8,67.1 0,81.5 	"/>
	<polygon class="st6" points="0,87.3 98.8,72.9 98.8,74.1 0,88.5 	"/>
	<polygon class="st6" points="0,94.3 98.8,79.9 98.8,81.1 0,95.5 	"/>
	<polygon class="st6" points="0,101.3 98.8,86.9 98.8,88.1 0,102.5 	"/>
	<polygon class="st6" points="0,108.3 98.8,93.9 98.8,95.1 0,109.5 	"/>
	<polygon class="st6" points="0,115.3 98.8,100.9 98.8,102.1 0,116.5 	"/>
	<polygon class="st6" points="0,122.3 98.8,107.9 98.8,109.1 0,123.5 	"/>
	<polygon class="st6" points="0,129.3 98.8,114.9 98.8,116.1 0,130.5 	"/>
	<polygon class="st6" points="0,136.3 98.8,121.9 98.8,123.1 0,137.5 	"/>
	<polygon class="st6" points="0,143.3 98.8,128.9 98.8,130.1 0,144.5 	"/>
	<polygon class="st6" points="0,150.3 98.8,135.9 98.8,137.1 0,151.5 	"/>
	<polygon class="st6" points="0,157.3 98.8,142.9 98.8,144.1 0,158.5 	"/>
	<polygon class="st6" points="0,164.3 98.8,149.9 98.8,151.1 0,165.5 	"/>
	<polygon class="st6" points="0,171.3 98.8,156.9 98.8,158.1 0,172.5 	"/>
	<polygon class="st6" points="0,178.3 98.8,163.9 98.8,165.1 0,179.5 	"/>
	<polygon class="st6" points="0,185.3 98.8,170.9 98.8,172.1 0,186.5 	"/>
	<polygon class="st6" points="0,192.3 98.8,177.9 98.8,179.1 0,193.5 	"/>
	<polygon class="st6" points="0,199.3 98.8,184.9 98.8,186.1 0,200.5 	"/>
	<polygon class="st6" points="0,206.3 98.8,191.9 98.8,193.1 0,207.5 	"/>
	<polygon class="st6" points="0,213.3 98.8,198.9 98.8,200.1 0,214.5 	"/>
	<polygon class="st6" points="0,220.3 98.8,205.9 98.8,207.1 0,221.5 	"/>
	<polygon class="st6" points="0,227.3 98.8,212.9 98.8,214.1 0,228.5 	"/>
	<polygon class="st6" points="0,234.3 98.8,219.9 98.8,221.1 0,235.5 	"/>
	<polygon class="st6" points="0,241.3 98.8,226.9 98.8,228.1 0,242.5 	"/>
	<polygon class="st6" points="0,248.3 98.8,233.9 98.8,235.1 0,249.5 	"/>
	<polygon class="st6" points="0,255.3 98.8,240.9 98.8,242.1 0,256.5 	"/>
	<polygon class="st6" points="0,262.3 98.8,247.8 98.8,249.1 0,263.5 	"/>
	<polygon class="st6" points="0,269.3 98.8,254.8 98.8,256.1 0,270.5 	"/>
	<polygon class="st6" points="0,276.3 98.8,261.8 98.8,263 0,277.5 	"/>
	<polygon class="st6" points="0,283.3 98.8,268.8 98.8,270 0,284.5 	"/>
	<polygon class="st6" points="0,290.2 98.8,275.8 98.8,277 0,291.5 	"/>
	<polygon class="st6" points="0,297.2 98.8,282.8 98.8,284 0,298.5 	"/>
	<polygon class="st6" points="0,304.2 98.8,289.8 98.8,291 0,305.4 	"/>
	<polygon class="st6" points="0,311.2 98.8,296.8 98.8,298 0,312.4 	"/>
	<polygon class="st6" points="0,318.2 98.8,303.8 98.8,305 0,319.4 	"/>
	<polygon class="st6" points="0,325.2 98.8,310.8 98.8,312 0,326.4 	"/>
	<polygon class="st6" points="0,332.2 98.8,317.8 98.8,319 0,333.4 	"/>
	<polygon class="st6" points="0,339.2 98.8,324.8 98.8,326 0,340.4 	"/>
	<polygon class="st6" points="0,346.2 98.8,331.8 98.8,333 0,347.4 	"/>
	<polygon class="st6" points="0,353.2 98.8,338.8 98.8,340 0,354.4 	"/>
	<polygon class="st6" points="0,360.2 98.8,345.8 98.8,347 0,361.4 	"/>
	<polygon class="st6" points="0,367.2 98.8,352.8 98.8,354 0,368.4 	"/>
</g>
<g>
	<path class="st1" d="M121.3,25.6c0,0.5-0.5,0.9-1.1,0.9l0,0c-0.6,0-1.1-0.4-1.1-0.9"/>
	<rect x="98.8" y="19.2" class="st5" width="72.2" height="357.6"/>
	<rect x="135.7" y="17.2" class="st2" width="10.1" height="359.7"/>
	<rect x="135.7" y="17.2" class="st7" width="6.3" height="359.7"/>
	<rect x="98.8" y="17.2" class="st2" width="72.2" height="2.1"/>
	<line class="st3" x1="147.8" y1="17.2" x2="109.7" y2="17.2"/>
	<g>
		<line class="st4" x1="99.7" y1="17.2" x2="97.2" y2="17.2"/>
		<line class="st4" x1="110.8" y1="17.2" x2="104.3" y2="17.2"/>
		<line class="st4" x1="117.9" y1="17.2" x2="115.4" y2="17.2"/>
		<line class="st4" x1="125" y1="17.2" x2="122.5" y2="17.2"/>
		<line class="st4" x1="136.1" y1="17.2" x2="133.7" y2="17.2"/>
		<line class="st4" x1="139.3" y1="17.2" x2="136.8" y2="17.2"/>
	</g>
	<rect x="98.8" y="23.9" class="st6" width="72.2" height="1.2"/>
	<rect x="98.8" y="30.9" class="st6" width="72.2" height="1.2"/>
	<rect x="98.8" y="37.9" class="st6" width="72.2" height="1.2"/>
	<rect x="98.8" y="44.9" class="st6" width="72.2" height="1.2"/>
	<rect x="98.8" y="51.9" class="st6" width="72.2" height="1.2"/>
	<rect x="98.8" y="58.9" class="st6" width="72.2" height="1.2"/>
	<rect x="98.8" y="65.9" class="st6" width="72.2" height="1.2"/>
	<rect x="98.8" y="72.9" class="st6" width="72.2" height="1.2"/>
	<rect x="98.8" y="79.9" class="st6" width="72.2" height="1.2"/>
	<rect x="98.8" y="86.9" class="st6" width="72.2" height="1.2"/>
	<rect x="98.8" y="93.9" class="st6" width="72.2" height="1.2"/>
	<rect x="98.8" y="100.9" class="st6" width="72.2" height="1.2"/>
	<rect x="98.8" y="107.9" class="st6" width="72.2" height="1.2"/>
	<rect x="98.8" y="114.9" class="st6" width="72.2" height="1.2"/>
	<rect x="98.8" y="121.9" class="st6" width="72.2" height="1.2"/>
	<rect x="98.8" y="128.9" class="st6" width="72.2" height="1.2"/>
	<rect x="98.8" y="135.9" class="st6" width="72.2" height="1.2"/>
	<rect x="98.8" y="142.9" class="st6" width="72.2" height="1.2"/>
	<rect x="98.8" y="149.9" class="st6" width="72.2" height="1.2"/>
	<rect x="98.8" y="156.9" class="st6" width="72.2" height="1.2"/>
	<rect x="98.8" y="163.9" class="st6" width="72.2" height="1.2"/>
	<rect x="98.8" y="170.9" class="st6" width="72.2" height="1.2"/>
	<rect x="98.8" y="177.9" class="st6" width="72.2" height="1.2"/>
	<rect x="98.8" y="184.9" class="st6" width="72.2" height="1.2"/>
	<rect x="98.8" y="191.9" class="st6" width="72.2" height="1.2"/>
	<rect x="98.8" y="198.9" class="st6" width="72.2" height="1.2"/>
	<rect x="98.8" y="205.9" class="st6" width="72.2" height="1.2"/>
	<rect x="98.8" y="212.9" class="st6" width="72.2" height="1.2"/>
	<rect x="98.8" y="219.9" class="st6" width="72.2" height="1.2"/>
	<rect x="98.8" y="226.9" class="st6" width="72.2" height="1.2"/>
	<rect x="98.8" y="233.9" class="st6" width="72.2" height="1.2"/>
	<rect x="98.8" y="240.9" class="st6" width="72.2" height="1.2"/>
	<rect x="98.8" y="247.8" class="st6" width="72.2" height="1.2"/>
	<rect x="98.8" y="254.8" class="st6" width="72.2" height="1.2"/>
	<rect x="98.8" y="261.8" class="st6" width="72.2" height="1.2"/>
	<rect x="98.8" y="268.8" class="st6" width="72.2" height="1.2"/>
	<rect x="98.8" y="275.8" class="st6" width="72.2" height="1.2"/>
	<rect x="98.8" y="282.8" class="st6" width="72.2" height="1.2"/>
	<rect x="98.8" y="289.8" class="st6" width="72.2" height="1.2"/>
	<rect x="98.8" y="296.8" class="st6" width="72.2" height="1.2"/>
	<rect x="98.8" y="303.8" class="st6" width="72.2" height="1.2"/>
	<rect x="98.8" y="310.8" class="st6" width="72.2" height="1.2"/>
	<rect x="98.8" y="317.8" class="st6" width="72.2" height="1.2"/>
	<rect x="98.8" y="324.8" class="st6" width="72.2" height="1.2"/>
	<rect x="98.8" y="331.8" class="st6" width="72.2" height="1.2"/>
	<rect x="98.8" y="338.8" class="st6" width="72.2" height="1.2"/>
	<rect x="98.8" y="345.8" class="st6" width="72.2" height="1.2"/>
	<rect x="98.8" y="352.8" class="st6" width="72.2" height="1.2"/>
</g>
<path class="st8" d="M98.8,17.2L0,31.7v2.7v6.1V42v7.5V51v7.5v1.6v7.5v1.6v7.5v1.6v7.5v1.6v7.5v1.6v7.5v1.6v7.5v1.6v7.5v1.6v7.5v1.6
	v7.5v1.6v7.5v1.6v7.5v1.6v7.5v1.6v7.5v1.6v7.5v1.6v7.5v1.6v7.5v1.6v7.5v1.6v7.5v1.6v7.5v1.6v7.5v1.6v7.5v1.6v7.5v1.6v7.5v1.6v7.5
	v1.6v7.5v1.6v7.5v1.6v7.5v1.6v7.5v1.6v7.5v1.6v7.5v1.6v7.5v1.6v7.5v1.6v7.5v1.6v7.5v1.6v9.5h98.8V17.2z M98.8,17.2L98.8,17.2
	c-2,0-12.5,0.4-12.5,0.9"/>
</svg>
