<?xml version="1.0" encoding="utf-8"?>
<!-- Generator: Adobe Illustrator 16.0.0, SVG Export Plug-In . SVG Version: 6.00 Build 0)  -->
<!DOCTYPE svg PUBLIC "-//W3C//DTD SVG 1.1//EN" "http://www.w3.org/Graphics/SVG/1.1/DTD/svg11.dtd">
<svg version="1.1" id="Layer_1" xmlns="http://www.w3.org/2000/svg" xmlns:xlink="http://www.w3.org/1999/xlink" x="0px" y="0px"
	 width="75.955px" height="250.164px" viewBox="0 0 75.955 250.164" enable-background="new 0 0 75.955 250.164"
	 xml:space="preserve">
<g id="Background">
</g>
<g id="Objects">
	<g>
		<g>
			<g>
				<polygon fill="#4CCFB8" points="38.248,35.551 37.086,46.579 38.248,46.579 39.412,46.579 				"/>
				<g>
					<polygon fill="#4CCFB8" points="44.438,51.342 44.438,52.505 44.438,53.668 55.467,52.505 					"/>
					<polygon fill="#4CCFB8" points="32.06,51.342 32.06,52.505 32.06,53.668 21.031,52.505 					"/>
				</g>
				<g>
					<polygon fill="#4CCFB8" points="32.423,51.022 32.861,49.945 33.299,48.868 22.645,45.792 					"/>
					<polygon fill="#4CCFB8" points="43.199,48.868 43.638,49.945 44.074,51.022 53.854,45.792 					"/>
				</g>
				<g>
					<polygon fill="#4CCFB8" points="26.727,40.714 34.367,48.751 35.121,47.866 35.875,46.981 					"/>
					<polygon fill="#4CCFB8" points="49.771,40.714 42.13,48.751 41.375,47.866 40.621,46.981 					"/>
				</g>
				<polygon fill="#1BB5A0" points="45.759,50.721 38.248,49.456 30.738,50.721 28.58,74.727 38.248,74.727 47.917,74.727 				"/>
				<polygon fill="#60E8D3" points="38.248,70.335 33.502,70.335 35.327,59.811 38.248,59.811 41.17,59.811 42.996,70.335 				"/>
				<ellipse fill="#60E8D3" cx="38.248" cy="51.777" rx="8.248" ry="5.985"/>
				<path fill="#4CCFB8" d="M46.413,52.621c-0.564-2.187-4.005-4.581-8.165-4.581s-7.598,2.394-8.164,4.581
					c0.566,2.905,4.004,5.141,8.164,5.141S45.849,55.526,46.413,52.621z"/>
				<path fill="#67FAE3" d="M38.248,50.542c-0.682,0-5.852,1.991-5.852,4.27c0,3.217,2.596,9.637,5.852,9.637
					s5.853-7.368,5.853-9.637C44.101,52.315,38.933,50.542,38.248,50.542z"/>
				<g>
					<path fill="#4CCFB8" d="M37.439,56.115c0,0-0.736,0.71-1.645,0.71s-1.645-0.71-1.645-0.71s0.736-0.71,1.645-0.71
						S37.439,56.115,37.439,56.115z"/>
					<path fill="#4CCFB8" d="M42.349,56.115c0,0-0.738,0.71-1.646,0.71c-0.909,0-1.646-0.71-1.646-0.71s0.736-0.71,1.646-0.71
						C41.61,55.405,42.349,56.115,42.349,56.115z"/>
				</g>
				<path fill="#4CCFB8" d="M39.015,59.294c0,0-0.4,0.403-0.767,0.403c-0.363,0-0.766-0.403-0.766-0.403s0.496,0.658,0.766,0.658
					C38.521,59.952,39.015,59.294,39.015,59.294z"/>
				<path fill="#4CCFB8" d="M40.812,60.913c0,0-1.41,0.167-2.628,0.167c-1.22,0-2.5-0.167-2.5-0.167s1.66,0.376,2.564,0.376
					C39.153,61.29,40.812,60.913,40.812,60.913z"/>
				<path fill="#4CCFB8" d="M39.574,61.654c0,0-0.729,0.102-1.359,0.102s-1.291-0.102-1.291-0.102s0.857,0.229,1.324,0.229
					C38.717,61.884,39.574,61.654,39.574,61.654z"/>
				<g>
					<path fill="#4CCFB8" d="M35.825,55.44c0,0,1.75,0.156,1.969,1.859C37.794,57.3,37.966,55.44,35.825,55.44z"/>
					<path fill="#4CCFB8" d="M40.672,55.44c0,0-1.75,0.156-1.969,1.859C38.703,57.3,38.531,55.44,40.672,55.44z"/>
				</g>
			</g>
			<polygon fill="#1BB5A0" points="55.151,90.787 63.755,80.893 74.16,87.635 74.16,89.913 58.772,107.748 54.149,103.826 
				54.149,101.395 			"/>
			<polygon fill="#59FAE5" points="54.149,89.213 64.155,79.596 74.16,87.635 58.772,105.469 54.149,101.547 			"/>
			<path fill="#60E8D3" d="M69.271,96.975c-0.791,0.913-2.17,1.014-3.084,0.225l0,0c-0.914-0.79-1.015-2.17-0.225-3.084l2.116-2.449
				c0.789-0.912,2.17-1.014,3.083-0.224l0,0c0.913,0.789,1.014,2.169,0.225,3.083L69.271,96.975z"/>
			<path fill="#4CCFB8" d="M54.149,89.213l4.844-4.658c0,0-5.562-3.327-5.617-3.792c-0.419-3.631,0.229-10.144-3.027-11.636
				c-4.787-2.194-18.681,2.194-27.85-18.227c0,0-8.073-0.042-8.722,10.165c0,0,1.976,5.118,4.719,10.487
				c2.744,5.369,3.889,8.028,3.889,16.472c0,8.442,0,74.165,0,74.165l31.767-0.105V89.213H54.149z"/>
			<path fill="#60E8D3" d="M13.996,11.236c0,0-1.893-1.873,0-4.345C15.89,4.419,17.273,2.921,16.982,0c0,0,5.752,8.015,0.801,11.236
				"/>
			<path fill="#60E8D3" d="M18.484,24.182c0,0,0,3.341,0,3.919c0,0.579-1.062,1.09-1.059,1.709
				c0.029,5.197,1.064,12.411,5.073,22.678c0,0-1.225,4.458-6.024,7.096c0,0-3.023-13.588-2.088-32.133l1.503-3.269H18.484z"/>
			<rect x="12.948" y="161.939" fill="#1BB5A0" width="50.059" height="13.912"/>
			<rect x="11.119" y="166.716" fill="#4CCFB8" width="53.718" height="4.357"/>
			<rect x="11.119" y="178.398" fill="#E89F3E" width="53.718" height="29.01"/>
			<rect y="223.328" fill="#E89F3E" width="75.955" height="26.836"/>
			<rect y="218.477" fill="#AB4B01" width="75.955" height="4.851"/>
			<rect x="6.295" y="206.943" fill="#AB4B01" width="63.366" height="5.016"/>
			<path fill="#AB4B01" d="M66.301,177.125c0,0.703-0.569,1.273-1.272,1.273H10.929c-0.704,0-1.273-0.57-1.273-1.273l0,0
				c0-0.703,0.569-1.272,1.273-1.272h54.099C65.729,175.852,66.301,176.421,66.301,177.125L66.301,177.125z"/>
			<polygon fill="#1BB5A0" points="15.89,11.236 13.996,11.236 14.725,32.513 15.89,32.513 17.055,32.513 17.783,11.236 			"/>
			<path fill="#60E8D3" d="M16.475,26.963c0,1.06-0.857,1.919-1.916,1.919l0,0c-1.059,0-1.917-0.859-1.917-1.919v-2.842
				c0-1.06,0.858-1.919,1.917-1.919l0,0c1.059,0,1.916,0.859,1.916,1.919V26.963z"/>
			<path fill="#60E8D3" d="M18.49,24.529c0,0.429-0.348,0.776-0.775,0.776l0,0c-0.43,0-0.777-0.347-0.777-0.776v-0.66
				c0-0.429,0.348-0.776,0.777-0.776l0,0c0.428,0,0.775,0.348,0.775,0.776V24.529z"/>
			<rect x="10.272" y="13.451" fill="#4CCFB8" width="11.235" height="4.593"/>
			<g opacity="0.4">
				<path fill="#AD4207" d="M19.465,206.943v-17.027c0-1.07-0.868-1.938-1.939-1.938c-1.07,0-1.939,0.868-1.939,1.938v17.027H19.465
					z"/>
				<path fill="#AD4207" d="M27.646,206.943v-17.027c0-1.07-0.869-1.938-1.939-1.938c-1.071,0-1.939,0.868-1.939,1.938v17.027
					H27.646z"/>
				<path fill="#AD4207" d="M35.827,206.943v-17.027c0-1.07-0.868-1.938-1.94-1.938c-1.07,0-1.938,0.868-1.938,1.938v17.027H35.827z
					"/>
				<path fill="#AD4207" d="M44.008,206.943v-17.027c0-1.07-0.868-1.938-1.938-1.938c-1.071,0-1.939,0.868-1.939,1.938v17.027
					H44.008z"/>
				<path fill="#AD4207" d="M52.188,206.943v-17.027c0-1.07-0.869-1.938-1.939-1.938s-1.939,0.868-1.939,1.938v17.027H52.188z"/>
				<path fill="#AD4207" d="M60.369,206.943v-17.027c0-1.07-0.868-1.938-1.938-1.938c-1.072,0-1.939,0.868-1.939,1.938v17.027
					H60.369z"/>
			</g>
			<polygon fill="#E89F3E" points="69.661,211.958 30.787,211.958 6.295,211.958 0.002,218.477 30.787,218.477 75.954,218.477 			
				"/>
			<polygon fill="#4CCFB8" points="17.794,161.939 17.794,111.452 44.854,80.893 44.854,161.939 			"/>
			<polygon fill="#4CCFB8" points="58.256,161.939 58.256,133.433 32.195,112.557 32.195,161.939 			"/>
		</g>
		<path opacity="0.2" fill="#FFFFFF" enable-background="new    " d="M38.248,35.551L38.248,35.551L37.162,45.85
			c-0.796,0.076-1.557,0.232-2.265,0.461l-8.171-5.597l6.184,6.505c-0.535,0.331-1.01,0.709-1.414,1.128l-8.852-2.555L30.4,49.94
			c-0.228,0.512-0.356,1.055-0.385,1.617l-6.863,0.724c-0.219-0.451-0.439-0.902-0.653-1.38c0,0-0.22,0-0.587,0.042
			c-3.52-9.448-4.458-16.202-4.486-21.133c-0.004-0.62,1.059-1.131,1.059-1.709c0-0.458,0-2.648,0-3.538
			c0-0.012,0.006-0.022,0.006-0.034v-0.66c0-0.429-0.348-0.776-0.775-0.776c-0.124,0-0.236,0.035-0.34,0.086l0.176-5.135h3.957
			v-4.593h-3.801l0.076-2.214C22.734,8.015,16.982,0,16.982,0c0.291,2.921-1.093,4.419-2.986,6.892c-1.893,2.472,0,4.345,0,4.345
			l0.076,2.214h-3.8v4.593h3.957l0.144,4.177c-0.971,0.095-1.731,0.904-1.731,1.9v2.842c0,0.979,0.735,1.778,1.683,1.895
			c-0.457,11.32,0.533,20.651,1.317,25.956c-0.962,1.467-1.688,3.479-1.864,6.252c0,0,1.976,5.118,4.719,10.487
			c2.744,5.369,3.889,8.028,3.889,16.471c0,2.398,0,9.421,0,18.243l-4.591,5.185v50.487h-4.846v4.777H11.12v4.356h1.829v4.777h-2.02
			c-0.704,0-1.273,0.569-1.273,1.272s0.569,1.273,1.273,1.273h0.19v28.545H6.295v5.016l0,0l-6.293,6.519H0v4.851v26.836h38.248
			V35.551z M29.746,61.758c-2.227-2.154-4.393-5.054-6.369-9.006l6.971,0.735c0.02,0.047,0.039,0.094,0.061,0.142
			c0.018,0.041,0.038,0.081,0.058,0.121L29.746,61.758z"/>
	</g>
</g>
</svg>
