<?xml version="1.0" encoding="utf-8"?>
<!-- Generator: Adobe Illustrator 21.1.0, SVG Export Plug-In . SVG Version: 6.00 Build 0)  -->
<svg version="1.1" id="Layer_1" xmlns="http://www.w3.org/2000/svg" xmlns:xlink="http://www.w3.org/1999/xlink" x="0px" y="0px"
	 viewBox="0 0 69.1 356.6" style="enable-background:new 0 0 69.1 356.6;" xml:space="preserve">
<style type="text/css">
	.st0{fill:#FFFFFF;}
	.st1{fill:#F00008;}
	.st2{fill:#1C75B8;}
	.st3{fill:#8AB0D6;}
	.st4{opacity:0.4;fill:#1F6FAB;enable-background:new    ;}
	.st5{fill:#BCD5E8;}
	.st6{fill:#134E7A;}
	.st7{fill:#518DB8;}
	.st8{fill:#84AFCF;}
</style>
<g id="Background">
</g>
<g>
	<g>
		<polygon class="st0" points="25.4,50.2 24.6,50.2 32,34.2 32.8,34.2 		"/>
		<polygon class="st0" points="43.5,50.2 44.2,50.2 36.9,34.2 36.1,34.2 		"/>
	</g>
	<path class="st1" d="M35,68.5c0,0.5-0.3,0.9-0.6,0.9l0,0c-0.3,0-0.6-0.4-0.6-0.9V0.9c0-0.5,0.3-0.9,0.6-0.9l0,0
		C34.7,0,35,0.4,35,0.9V68.5z"/>
	<rect x="21.6" y="50.2" class="st2" width="25.7" height="2.2"/>
	<rect x="21.6" y="52.4" class="st3" width="25.7" height="7.6"/>
	<g>
		<rect x="24" y="54.9" class="st4" width="1.4" height="5.2"/>
		<rect x="27.9" y="54.9" class="st4" width="1.4" height="5.2"/>
		<rect x="31.8" y="54.9" class="st4" width="1.4" height="5.2"/>
		<rect x="35.7" y="54.9" class="st4" width="1.4" height="5.2"/>
		<rect x="39.6" y="54.9" class="st4" width="1.4" height="5.2"/>
		<rect x="43.4" y="54.9" class="st4" width="1.4" height="5.2"/>
	</g>
	<rect x="29.3" y="30.8" class="st2" width="10.3" height="4"/>
	<rect x="32.7" y="24.5" class="st2" width="3.5" height="1.3"/>
	<rect x="32.7" y="17.9" class="st2" width="3.5" height="1.3"/>
	<rect x="32.7" y="11.2" class="st2" width="3.5" height="1.3"/>
	<rect x="32.7" y="4.6" class="st2" width="3.5" height="1.3"/>
</g>
<rect y="81.3" class="st5" width="69.1" height="275.3"/>
<rect x="10.1" y="75.1" class="st6" width="48.9" height="6.2"/>
<rect x="3.9" y="72.2" class="st7" width="61.3" height="3"/>
<rect x="3.9" y="57.6" class="st7" width="61.3" height="3"/>
<g>
	<rect y="81.3" class="st7" width="69.1" height="8.7"/>
	<rect y="134.6" class="st7" width="69.1" height="8.7"/>
	<rect y="187.9" class="st7" width="69.1" height="8.7"/>
	<rect y="241.3" class="st7" width="69.1" height="8.7"/>
	<rect y="294.6" class="st7" width="69.1" height="8.7"/>
	<rect y="347.9" class="st7" width="69.1" height="8.7"/>
</g>
<rect y="96.5" class="st8" width="69.1" height="1.3"/>
<rect y="104.1" class="st8" width="69.1" height="1.3"/>
<rect y="111.7" class="st8" width="69.1" height="1.3"/>
<rect y="119.3" class="st8" width="69.1" height="1.3"/>
<rect y="126.9" class="st8" width="69.1" height="1.3"/>
<rect y="149.8" class="st8" width="69.1" height="1.3"/>
<rect y="157.4" class="st8" width="69.1" height="1.3"/>
<rect y="165" class="st8" width="69.1" height="1.3"/>
<rect y="172.6" class="st8" width="69.1" height="1.3"/>
<rect y="180.2" class="st8" width="69.1" height="1.3"/>
<rect y="203" class="st8" width="69.1" height="1.3"/>
<rect y="210.7" class="st8" width="69.1" height="1.3"/>
<rect y="218.3" class="st8" width="69.1" height="1.3"/>
<rect y="225.9" class="st8" width="69.1" height="1.3"/>
<rect y="233.5" class="st8" width="69.1" height="1.3"/>
<rect y="256.3" class="st8" width="69.1" height="1.3"/>
<rect y="263.9" class="st8" width="69.1" height="1.3"/>
<rect y="271.5" class="st8" width="69.1" height="1.3"/>
<rect y="279.1" class="st8" width="69.1" height="1.3"/>
<rect y="286.8" class="st8" width="69.1" height="1.3"/>
<rect y="309.6" class="st8" width="69.1" height="1.3"/>
<rect y="317.2" class="st8" width="69.1" height="1.3"/>
<rect y="324.8" class="st8" width="69.1" height="1.3"/>
<rect y="332.4" class="st8" width="69.1" height="1.3"/>
<rect y="340" class="st8" width="69.1" height="1.3"/>
<rect x="5.8" y="60.5" class="st8" width="57.2" height="11.6"/>
<rect x="5.8" y="60.5" class="st5" width="57.2" height="5.8"/>
</svg>
