<?xml version="1.0" encoding="utf-8"?>
<!-- Generator: Adobe Illustrator 16.0.0, SVG Export Plug-In . SVG Version: 6.00 Build 0)  -->
<!DOCTYPE svg PUBLIC "-//W3C//DTD SVG 1.1//EN" "http://www.w3.org/Graphics/SVG/1.1/DTD/svg11.dtd">
<svg version="1.1" xmlns="http://www.w3.org/2000/svg" xmlns:xlink="http://www.w3.org/1999/xlink" x="0px" y="0px"
	 width="437.772px" height="323.379px" viewBox="0 0 437.772 323.379" enable-background="new 0 0 437.772 323.379"
	 xml:space="preserve">
<g id="Background">
</g>
<g id="Objects">
	<g>
		<linearGradient id="SVGID_1_" gradientUnits="userSpaceOnUse" x1="88.584" y1="278.6782" x2="88.584" y2="10.1698">
			<stop  offset="0" style="stop-color:#FFCC00;stop-opacity:0"/>
			<stop  offset="0.1058" style="stop-color:#ECBD00;stop-opacity:0.1058"/>
			<stop  offset="0.3207" style="stop-color:#BA9700;stop-opacity:0.3207"/>
			<stop  offset="0.6258" style="stop-color:#6B5900;stop-opacity:0.6258"/>
			<stop  offset="1" style="stop-color:#000700"/>
		</linearGradient>
		<polygon opacity="0.2" fill="url(#SVGID_1_)" points="88.584,32.283 67.535,47.516 67.535,56.272 67.535,278.678 88.584,278.678 
			109.632,278.678 109.632,56.272 109.632,47.516 		"/>
		<linearGradient id="SVGID_2_" gradientUnits="userSpaceOnUse" x1="196.8027" y1="262.6587" x2="196.8027" y2="-43.2015">
			<stop  offset="0" style="stop-color:#FFCC00;stop-opacity:0"/>
			<stop  offset="0.1058" style="stop-color:#ECBD00;stop-opacity:0.1058"/>
			<stop  offset="0.3207" style="stop-color:#BA9700;stop-opacity:0.3207"/>
			<stop  offset="0.6258" style="stop-color:#6B5900;stop-opacity:0.6258"/>
			<stop  offset="1" style="stop-color:#000700"/>
		</linearGradient>
		<polygon opacity="0.2" fill="url(#SVGID_2_)" points="224.493,11.281 224.493,9.325 218.238,9.325 218.238,2.089 218.238,0 
			175.367,0 175.367,2.089 175.367,9.325 169.112,9.325 169.112,11.281 169.112,15.724 169.112,16.865 169.112,22.358 169.112,23.5 
			169.112,28.993 169.112,30.134 169.112,35.627 169.112,36.769 169.112,42.261 169.112,43.403 169.112,48.896 169.112,50.037 
			169.112,55.53 169.112,56.671 169.112,62.165 169.112,63.306 169.112,68.799 169.112,69.94 169.112,75.434 169.112,76.575 
			169.112,82.068 169.112,83.209 169.112,88.702 169.112,89.843 169.112,95.336 169.112,96.478 169.112,101.971 169.112,103.112 
			169.112,108.605 169.112,109.747 169.112,115.24 169.112,116.381 169.112,121.874 169.112,123.015 169.112,128.509 
			169.112,129.649 169.112,135.144 169.112,136.285 169.112,141.777 169.112,142.919 169.112,148.412 169.112,149.552 
			169.112,155.046 169.112,156.187 169.112,161.681 169.112,162.822 169.112,168.316 169.112,169.457 169.112,174.949 
			169.112,176.091 169.112,181.583 169.112,182.726 169.112,188.218 169.112,189.359 169.112,194.853 169.112,195.994 
			169.112,201.488 169.112,202.628 169.112,208.121 169.112,209.263 169.112,214.755 169.112,215.898 169.112,221.39 
			169.112,222.531 169.112,228.025 169.112,229.166 169.112,234.66 169.112,235.8 169.112,241.292 169.112,242.435 169.112,247.927 
			169.112,249.07 169.112,254.562 169.112,255.703 169.112,262.659 196.803,262.659 224.493,262.659 224.493,262.659 
			224.493,11.281 		"/>
		<linearGradient id="SVGID_3_" gradientUnits="userSpaceOnUse" x1="276.3594" y1="283.8013" x2="276.3594" y2="38.1808">
			<stop  offset="0" style="stop-color:#FFCC00;stop-opacity:0"/>
			<stop  offset="0.1058" style="stop-color:#ECBD00;stop-opacity:0.1058"/>
			<stop  offset="0.3207" style="stop-color:#BA9700;stop-opacity:0.3207"/>
			<stop  offset="0.6258" style="stop-color:#6B5900;stop-opacity:0.6258"/>
			<stop  offset="1" style="stop-color:#000700"/>
		</linearGradient>
		<polygon opacity="0.2" fill="url(#SVGID_3_)" points="314.839,82.034 314.839,80.464 306.146,71.875 246.57,71.875 
			237.878,80.464 237.878,82.034 237.878,85.601 237.878,86.517 237.878,90.925 237.878,91.842 237.878,96.25 237.878,97.167 
			237.878,101.576 237.878,102.492 237.878,106.901 237.878,107.817 237.878,112.226 237.878,113.142 237.878,117.551 
			237.878,118.467 237.878,122.876 237.878,123.792 237.878,128.201 237.878,129.117 237.878,133.526 237.878,134.442 
			237.878,138.851 237.878,139.767 237.878,144.177 237.878,145.093 237.878,149.501 237.878,150.417 237.878,154.828 
			237.878,155.744 237.878,160.152 237.878,161.068 237.878,165.476 237.878,166.392 237.878,170.802 237.878,171.718 
			237.878,176.126 237.878,177.042 237.878,181.453 237.878,182.369 237.878,186.777 237.878,187.693 237.878,192.103 
			237.878,193.019 237.878,197.427 237.878,198.343 237.878,202.751 237.878,203.669 237.878,208.078 237.878,208.994 
			237.878,213.402 237.878,214.318 237.878,218.728 237.878,219.644 237.878,224.052 237.878,224.968 237.878,229.378 
			237.878,230.294 237.878,234.703 237.878,235.619 237.878,240.029 237.878,240.945 237.878,245.353 237.878,246.269 
			237.878,250.677 237.878,251.593 237.878,256.003 237.878,256.919 237.878,261.327 237.878,262.243 237.878,266.653 
			237.878,267.569 237.878,271.977 237.878,272.893 237.878,277.303 237.878,278.219 237.878,283.801 276.358,283.801 
			314.839,283.801 314.84,283.801 314.84,82.034 		"/>
		<linearGradient id="SVGID_4_" gradientUnits="userSpaceOnUse" x1="416.9121" y1="280.2017" x2="416.9121" y2="39.0415">
			<stop  offset="0" style="stop-color:#FFCC00;stop-opacity:0"/>
			<stop  offset="0.1058" style="stop-color:#ECBD00;stop-opacity:0.1058"/>
			<stop  offset="0.3207" style="stop-color:#BA9700;stop-opacity:0.3207"/>
			<stop  offset="0.6258" style="stop-color:#6B5900;stop-opacity:0.6258"/>
			<stop  offset="1" style="stop-color:#000700"/>
		</linearGradient>
		<polygon opacity="0.2" fill="url(#SVGID_4_)" points="437.772,76.533 437.772,75.059 433.061,75.059 433.061,69.608 
			433.061,68.034 400.764,68.034 400.764,69.608 400.764,75.059 396.051,75.059 396.051,76.533 396.051,79.88 396.051,80.74 
			396.051,84.877 396.051,85.738 396.051,89.876 396.051,90.736 396.051,94.874 396.051,95.734 396.051,99.872 396.051,100.732 
			396.051,104.87 396.051,105.73 396.051,109.868 396.051,110.728 396.051,114.866 396.051,115.726 396.051,119.864 
			396.051,120.724 396.051,124.862 396.051,125.722 396.051,129.86 396.051,130.72 396.051,134.859 396.051,135.718 
			396.051,139.857 396.051,140.716 396.051,144.855 396.051,145.714 396.051,149.853 396.051,150.712 396.051,154.851 
			396.051,155.71 396.051,159.849 396.051,160.708 396.051,164.847 396.051,165.707 396.051,169.845 396.051,170.705 
			396.051,174.843 396.051,175.703 396.051,179.841 396.051,180.703 396.051,184.839 396.051,185.701 396.051,189.837 
			396.051,190.699 396.051,194.835 396.051,195.697 396.051,199.833 396.051,200.695 396.051,280.202 416.912,280.202 
			437.772,280.202 437.772,280.202 437.772,76.533 		"/>
		<linearGradient id="SVGID_5_" gradientUnits="userSpaceOnUse" x1="347.4258" y1="323.3794" x2="347.4258" y2="47.6535">
			<stop  offset="0" style="stop-color:#FFCC00;stop-opacity:0"/>
			<stop  offset="0.1058" style="stop-color:#ECBD00;stop-opacity:0.1058"/>
			<stop  offset="0.3207" style="stop-color:#BA9700;stop-opacity:0.3207"/>
			<stop  offset="0.6258" style="stop-color:#6B5900;stop-opacity:0.6258"/>
			<stop  offset="1" style="stop-color:#000700"/>
		</linearGradient>
		<polygon opacity="0.2" fill="url(#SVGID_5_)" points="368.286,119.71 368.286,118.237 363.573,118.237 363.573,112.786 
			363.573,111.212 331.276,111.212 331.276,112.786 331.276,118.237 326.564,118.237 326.564,119.71 326.564,123.058 
			326.564,123.917 326.564,128.056 326.564,128.915 326.564,133.054 326.564,133.913 326.564,138.052 326.564,138.912 
			326.564,143.05 326.564,143.91 326.564,148.048 326.564,148.908 326.564,153.046 326.564,153.906 326.564,158.044 
			326.564,158.904 326.564,163.042 326.564,163.902 326.564,168.041 326.564,168.9 326.564,173.039 326.564,173.9 326.564,178.037 
			326.564,178.896 326.564,183.035 326.564,183.894 326.564,188.033 326.564,188.894 326.564,193.031 326.564,193.892 
			326.564,198.029 326.564,198.89 326.564,203.027 326.564,203.888 326.564,208.025 326.564,208.886 326.564,213.023 
			326.564,213.884 326.564,218.021 326.564,218.882 326.564,223.019 326.564,223.88 326.564,228.017 326.564,228.878 
			326.564,233.015 326.564,233.876 326.564,238.013 326.564,238.875 326.564,243.011 326.564,243.873 326.564,323.379 
			347.425,323.379 368.286,323.379 368.286,323.379 368.286,119.71 		"/>
		<linearGradient id="SVGID_6_" gradientUnits="userSpaceOnUse" x1="30.3906" y1="293.4224" x2="30.3906" y2="48.0655">
			<stop  offset="0" style="stop-color:#FFCC00;stop-opacity:0"/>
			<stop  offset="0.1058" style="stop-color:#ECBD00;stop-opacity:0.1058"/>
			<stop  offset="0.3207" style="stop-color:#BA9700;stop-opacity:0.3207"/>
			<stop  offset="0.6258" style="stop-color:#6B5900;stop-opacity:0.6258"/>
			<stop  offset="1" style="stop-color:#000700"/>
		</linearGradient>
		<polygon opacity="0.2" fill="url(#SVGID_6_)" points="57.19,253.699 57.19,119.516 53.109,119.516 53.109,93.476 47.158,93.476 
			47.158,71.149 45.531,71.149 45.531,59.775 15.25,59.775 15.25,71.149 13.624,71.149 13.624,93.476 7.672,93.476 7.672,119.516 
			3.592,119.516 3.592,253.699 0,253.699 0,293.422 13.624,293.422 19.576,293.422 41.206,293.422 47.158,293.422 60.782,293.422 
			60.782,253.699 		"/>
	</g>
</g>
</svg>
