<?xml version="1.0" encoding="utf-8"?>
<!-- Generator: Adobe Illustrator 16.0.0, SVG Export Plug-In . SVG Version: 6.00 Build 0)  -->
<!DOCTYPE svg PUBLIC "-//W3C//DTD SVG 1.1//EN" "http://www.w3.org/Graphics/SVG/1.1/DTD/svg11.dtd">
<svg version="1.1" id="Objects" xmlns="http://www.w3.org/2000/svg" xmlns:xlink="http://www.w3.org/1999/xlink" x="0px" y="0px"
	 width="266.173px" height="211.825px" viewBox="0 0 266.173 211.825" enable-background="new 0 0 266.173 211.825"
	 xml:space="preserve">
<g>
	<path fill="#F5EBEB" d="M245.271,203.261c-1.898,6.35-8.586,9.957-14.934,8.059l-2.396-0.717
		c-6.348-1.898-9.957-8.586-8.059-14.936l6.021-20.128c1.898-6.35,8.586-9.958,14.936-8.059l2.395,0.717
		c6.35,1.898,9.957,8.586,8.059,14.935L245.271,203.261z"/>
	<path fill="#DACDCD" d="M237.175,181.911l-9.701-2.901l0.824-2.755c1.502-5.019,6.805-7.88,11.824-6.379l0.6,0.179L237.175,181.911
		z"/>
	<path fill="#DACDCD" d="M248.073,185.17l-9.939-2.973l3.545-11.856l0.838,0.251c5.02,1.501,7.881,6.806,6.381,11.824
		L248.073,185.17z"/>
	<path fill="none" stroke="#DACDCD" stroke-width="2" stroke-miterlimit="10" d="M220.124,77.078c0,0-2.973,9.94-4.656,15.568
		c-1.35,4.512,4.357,6.371,4.357,6.371l12.557,3.756c4.291,1.283,2.951,5.47,2.951,5.47l-6.232,20.838l3.961-13.245
		c0,0-2.973,9.94-4.656,15.568c-1.35,4.512,4.355,6.372,4.355,6.372l12.557,3.755c4.291,1.283,2.951,5.47,2.951,5.47l-6.232,20.838"
		/>
	
		<rect x="4.819" y="87.588" transform="matrix(0.9581 0.2866 -0.2866 0.9581 38.609 -25.3854)" fill="#AD9E9E" width="202.433" height="63.261"/>
	<g>
		<g>
			
				<rect x="19.626" y="68.402" transform="matrix(0.958 0.2866 -0.2866 0.958 22.111 -4.0084)" fill="#F5F5F5" width="10.242" height="10.242"/>
			
				<rect x="33.479" y="72.546" transform="matrix(0.9581 0.2865 -0.2865 0.9581 23.8718 -7.8036)" fill="#F5F5F5" width="10.242" height="10.242"/>
			
				<rect x="46.755" y="76.517" transform="matrix(0.958 0.2866 -0.2866 0.958 25.5748 -11.4435)" fill="#F5F5F5" width="10.242" height="10.242"/>
			
				<rect x="60.032" y="80.486" transform="matrix(0.9581 0.2865 -0.2865 0.9581 27.2541 -15.0761)" fill="#F5F5F5" width="10.241" height="10.243"/>
			
				<rect x="73.307" y="84.458" transform="matrix(0.958 0.2866 -0.2866 0.958 28.9649 -18.7202)" fill="#F5F5F5" width="10.242" height="10.242"/>
			
				<rect x="86.583" y="88.429" transform="matrix(0.9581 0.2866 -0.2866 0.9581 30.6556 -22.3563)" fill="#F5F5F5" width="10.24" height="10.243"/>
			
				<rect x="99.86" y="92.4" transform="matrix(0.9581 0.2866 -0.2866 0.9581 32.3506 -25.9947)" fill="#F5F5F5" width="10.24" height="10.242"/>
			
				<rect x="113.136" y="96.371" transform="matrix(0.9581 0.2865 -0.2865 0.9581 34.0382 -29.6283)" fill="#F5F5F5" width="10.242" height="10.242"/>
			
				<rect x="126.414" y="100.341" transform="matrix(0.9581 0.2865 -0.2865 0.9581 35.7275 -33.2626)" fill="#F5F5F5" width="10.24" height="10.243"/>
			
				<rect x="139.688" y="104.312" transform="matrix(0.9581 0.2865 -0.2865 0.9581 37.4268 -36.9031)" fill="#F5F5F5" width="10.242" height="10.242"/>
			
				<rect x="152.965" y="108.283" transform="matrix(0.9581 0.2865 -0.2865 0.9581 39.1212 -40.5409)" fill="#F5F5F5" width="10.242" height="10.242"/>
			
				<rect x="166.242" y="112.254" transform="matrix(0.9581 0.2866 -0.2866 0.9581 40.8247 -44.1855)" fill="#F5F5F5" width="10.24" height="10.242"/>
			
				<rect x="179.519" y="116.225" transform="matrix(0.9581 0.2866 -0.2866 0.9581 42.5194 -47.8237)" fill="#F5F5F5" width="10.24" height="10.242"/>
			
				<rect x="192.795" y="120.196" transform="matrix(0.9581 0.2865 -0.2865 0.9581 44.2046 -51.4538)" fill="#F5F5F5" width="10.242" height="10.242"/>
		</g>
		<g>
			
				<rect x="15.655" y="81.681" transform="matrix(0.958 0.2866 -0.2866 0.958 25.7499 -2.3132)" fill="#F5F5F5" width="10.242" height="10.24"/>
			
				<rect x="29.508" y="85.824" transform="matrix(0.9581 0.2865 -0.2865 0.9581 27.5096 -6.109)" fill="#F5F5F5" width="10.242" height="10.24"/>
			
				<rect x="42.784" y="89.795" transform="matrix(0.958 0.2866 -0.2866 0.958 29.2137 -9.7483)" fill="#F5F5F5" width="10.242" height="10.24"/>
			
				<rect x="56.061" y="93.766" transform="matrix(0.958 0.2866 -0.2866 0.958 30.9118 -13.3875)" fill="#F5F5F5" width="10.241" height="10.24"/>
			
				<rect x="69.335" y="97.737" transform="matrix(0.958 0.2866 -0.2866 0.958 32.6037 -17.0249)" fill="#F5F5F5" width="10.242" height="10.24"/>
			
				<rect x="82.611" y="101.707" transform="matrix(0.958 0.2866 -0.2866 0.958 34.2987 -20.6635)" fill="#F5F5F5" width="10.242" height="10.24"/>
			
				<rect x="95.889" y="105.678" transform="matrix(0.9581 0.2865 -0.2865 0.9581 35.9816 -24.2964)" fill="#F5F5F5" width="10.242" height="10.24"/>
			
				<rect x="109.164" y="109.648" transform="matrix(0.9581 0.2865 -0.2865 0.9581 37.668 -27.9298)" fill="#F5F5F5" width="10.244" height="10.241"/>
			
				<rect x="122.443" y="113.619" transform="matrix(0.9581 0.2865 -0.2865 0.9581 39.3648 -31.5682)" fill="#F5F5F5" width="10.24" height="10.241"/>
			
				<rect x="135.717" y="117.59" transform="matrix(0.9581 0.2865 -0.2865 0.9581 41.0646 -35.2087)" fill="#F5F5F5" width="10.242" height="10.24"/>
			
				<rect x="148.993" y="121.561" transform="matrix(0.9581 0.2866 -0.2866 0.9581 42.768 -38.8521)" fill="#F5F5F5" width="10.24" height="10.24"/>
			
				<rect x="162.272" y="125.532" transform="matrix(0.9581 0.2865 -0.2865 0.9581 44.4472 -42.4795)" fill="#F5F5F5" width="10.24" height="10.24"/>
			
				<rect x="175.548" y="129.504" transform="matrix(0.9581 0.2866 -0.2866 0.9581 46.1579 -46.1289)" fill="#F5F5F5" width="10.24" height="10.24"/>
			
				<rect x="188.824" y="133.474" transform="matrix(0.9581 0.2865 -0.2865 0.9581 47.8424 -49.7594)" fill="#F5F5F5" width="10.242" height="10.24"/>
		</g>
		<g>
			
				<rect x="11.857" y="94.378" transform="matrix(0.958 0.2866 -0.2866 0.958 29.23 -0.6919)" fill="#F5F5F5" width="10.242" height="10.242"/>
			
				<rect x="25.71" y="98.521" transform="matrix(0.9581 0.2865 -0.2865 0.9581 30.9888 -4.4884)" fill="#F5F5F5" width="10.242" height="10.242"/>
			
				<rect x="38.986" y="102.492" transform="matrix(0.9581 0.2865 -0.2865 0.9581 32.6831 -8.126)" fill="#F5F5F5" width="10.242" height="10.242"/>
			
				<rect x="52.263" y="106.462" transform="matrix(0.9581 0.2866 -0.2866 0.9581 34.3808 -11.764)" fill="#F5F5F5" width="10.241" height="10.242"/>
			
				<rect x="65.538" y="110.433" transform="matrix(0.9581 0.2866 -0.2866 0.9581 36.0753 -15.4014)" fill="#F5F5F5" width="10.241" height="10.242"/>
			
				<rect x="78.814" y="114.404" transform="matrix(0.9581 0.2866 -0.2866 0.9581 37.7736 -19.0403)" fill="#F5F5F5" width="10.24" height="10.242"/>
			
				<rect x="92.091" y="118.375" transform="matrix(0.9581 0.2866 -0.2866 0.9581 39.4686 -22.6787)" fill="#F5F5F5" width="10.24" height="10.243"/>
			
				<rect x="105.366" y="122.346" transform="matrix(0.9581 0.2865 -0.2865 0.9581 41.1549 -26.3131)" fill="#F5F5F5" width="10.242" height="10.243"/>
			
				<rect x="118.645" y="126.317" transform="matrix(0.9581 0.2866 -0.2866 0.9581 42.8583 -29.9553)" fill="#F5F5F5" width="10.24" height="10.242"/>
			
				<rect x="131.919" y="130.288" transform="matrix(0.9581 0.2866 -0.2866 0.9581 44.553 -33.5929)" fill="#F5F5F5" width="10.24" height="10.242"/>
			
				<rect x="145.195" y="134.258" transform="matrix(0.9581 0.2865 -0.2865 0.9581 46.2381 -37.2257)" fill="#F5F5F5" width="10.242" height="10.242"/>
			
				<rect x="158.474" y="138.23" transform="matrix(0.9581 0.2865 -0.2865 0.9581 47.9359 -40.8653)" fill="#F5F5F5" width="10.238" height="10.242"/>
			
				<rect x="171.75" y="142.201" transform="matrix(0.9581 0.2865 -0.2865 0.9581 49.6272 -44.5013)" fill="#F5F5F5" width="10.242" height="10.242"/>
			
				<rect x="185.026" y="146.172" transform="matrix(0.9581 0.2866 -0.2866 0.9581 51.3324 -48.1461)" fill="#F5F5F5" width="10.24" height="10.242"/>
		</g>
		
			<rect x="7.973" y="107.366" transform="matrix(0.9581 0.2865 -0.2865 0.9581 32.7763 0.9639)" fill="#F5F5F5" width="10.243" height="10.242"/>
		
			<rect x="21.825" y="111.509" transform="matrix(0.9581 0.2865 -0.2865 0.9581 34.5441 -2.8311)" fill="#F5F5F5" width="10.243" height="10.242"/>
		
			<rect x="33.649" y="125.407" transform="matrix(0.9581 0.2866 -0.2866 0.9581 40.4818 -15.5629)" fill="#F5F5F5" width="79.528" height="10.242"/>
		
			<rect x="114.76" y="139.305" transform="matrix(0.9581 0.2866 -0.2866 0.9581 46.4175 -28.2972)" fill="#F5F5F5" width="10.24" height="10.242"/>
		
			<rect x="128.034" y="143.276" transform="matrix(0.9581 0.2866 -0.2866 0.9581 48.1122 -31.9348)" fill="#F5F5F5" width="10.24" height="10.242"/>
		
			<rect x="141.311" y="147.247" transform="matrix(0.9581 0.2865 -0.2865 0.9581 49.7967 -35.568)" fill="#F5F5F5" width="10.242" height="10.242"/>
		
			<rect x="154.299" y="153.204" transform="matrix(0.9581 0.2865 -0.2865 0.9581 52.3426 -41.0273)" fill="#F5F5F5" width="24.098" height="10.242"/>
	</g>
	<path fill="#F4F4F4" d="M169.435,65.937c-1.002,3.346-4.525,5.248-7.873,4.247l-61.158-18.292c-3.348-1.001-5.25-4.526-4.248-7.872
		l0,0c1-3.347,4.525-5.248,7.871-4.247l61.16,18.292C168.532,59.065,170.435,62.59,169.435,65.937L169.435,65.937z"/>
	<g>
		<path fill="#F4F4F4" d="M255.544,70.591L21.631,0.628C13.752-1.729,5.454,2.75,3.098,10.629l262.446,78.495
			C267.899,81.245,263.423,72.947,255.544,70.591z"/>
		
			<rect x="-3.057" y="49.817" transform="matrix(0.9581 0.2866 -0.2866 0.9581 20.3017 -36.2228)" fill="#AD9E9E" width="273.934" height="2.869"/>
	</g>
</g>
</svg>
