<?xml version="1.0" encoding="utf-8"?>
<!-- Generator: Adobe Illustrator 16.0.0, SVG Export Plug-In . SVG Version: 6.00 Build 0)  -->
<!DOCTYPE svg PUBLIC "-//W3C//DTD SVG 1.1//EN" "http://www.w3.org/Graphics/SVG/1.1/DTD/svg11.dtd">
<svg version="1.1" id="Objects" xmlns="http://www.w3.org/2000/svg" xmlns:xlink="http://www.w3.org/1999/xlink" x="0px" y="0px"
	 width="95.625px" height="144.555px" viewBox="0 0 95.625 144.555" enable-background="new 0 0 95.625 144.555"
	 xml:space="preserve">
<g>
	<g>
		<path fill="#997B67" d="M56.042,5.622c1.026-0.396,1.158-1.271,0.291-1.95L52.438,0.63c-0.867-0.678-2.383-0.833-3.369-0.345
			L27.027,11.181c-0.986,0.486-0.909,1.056,0.172,1.262l5.484,1.045c1.081,0.206,2.805,0.052,3.831-0.344L56.042,5.622z"/>
	</g>
	<g>
		<path fill="#A6856F" d="M66.052,7.027c1.021-0.409,1.148-1.297,0.281-1.976L62.439,2.01c-0.867-0.678-2.381-0.829-3.365-0.341
			L36.538,12.882c-0.985,0.489-0.906,1.058,0.175,1.26l5.9,1.106c1.081,0.202,2.801,0.034,3.823-0.375L66.052,7.027z"/>
	</g>
	<g>
		<polygon fill="#B5917C" points="14.371,51.673 55.854,58.947 62.891,18.815 25.234,12.067 19.277,23.698 		"/>
		<path fill="#B5917C" d="M14.411,51.444c-0.551,3.146,1.553,6.144,4.699,6.696l30.106,5.277c3.146,0.553,6.146-1.551,6.699-4.695
			l0,0c0.551-3.147-1.555-6.146-4.701-6.695l-30.106-5.28C17.961,46.196,14.963,48.298,14.411,51.444L14.411,51.444z"/>
		
			<rect x="18.32" y="54.029" transform="matrix(0.985 0.1727 -0.1727 0.985 13.4522 -4.3331)" fill="#B5917C" width="26.618" height="42.232"/>
		<g>
			<polygon fill="#ED7444" points="33.535,71.344 54.794,75.071 43.25,144.554 21.5,144.554 			"/>
			<polygon opacity="0.19" enable-background="new    " points="33.535,71.344 54.794,75.071 43.25,144.554 21.5,144.554 			"/>
			<polygon fill="#ED7444" points="12.275,67.615 33.535,71.344 21.5,144.554 0,144.554 			"/>
		</g>
		
			<rect x="34.352" y="61.952" transform="matrix(0.985 0.1727 -0.1727 0.985 12.2133 -5.9664)" fill="#A6856F" width="12.09" height="10.513"/>
		<g>
			<g>
				<g>
					<path fill="#B5917C" d="M53.641,21.823c-0.335,0.179,0.222-0.019,1.237-0.438l9.106-3.663c1.022-0.405,2.153,0.112,2.513,1.152
						l1.308,3.777c0.358,1.04,1.504,1.597,2.543,1.237l5.235-1.812c1.041-0.359,1.597-1.504,1.236-2.543L72.273,6.379
						c-0.359-1.039-1.514-1.625-2.564-1.301L38.654,16.104c-1.038,0.366-1.002,0.834,0.078,1.041l14.23,2.729
						C54.042,20.08,53.976,21.645,53.641,21.823z"/>
				</g>
			</g>
		</g>
		<circle fill="#B5917C" cx="72.789" cy="23.085" r="4.969"/>
		<polygon fill="#B5917C" points="68.111,24.792 65.845,16.983 72.082,20.61 		"/>
		<g>
			<g>
				<g>
					<g>
						<g>
							
								<rect x="21.504" y="12.974" transform="matrix(0.2539 -0.9672 0.9672 0.2539 4.9819 36.5136)" fill="#FF1F37" width="9.31" height="4.108"/>
						</g>
					</g>
				</g>
				<g>
					<g>
						<g>
							
								<rect x="23.241" y="15.226" transform="matrix(0.254 -0.9672 0.9672 0.254 2.3622 37.6207)" fill="#FF4A64" width="4.655" height="4.107"/>
						</g>
					</g>
				</g>
				<g>
					<g>
						<g>
							
								<rect x="53.932" y="-3.695" transform="matrix(0.2534 -0.9674 0.9674 0.2534 17.5866 73.3898)" fill="#FC9F3A" width="4.81" height="57.995"/>
						</g>
					</g>
				</g>
				<g>
					<g>
						<g>
							
								<rect x="55.075" y="-8.048" transform="matrix(0.2539 -0.9672 0.9672 0.2539 22.6232 71.2243)" fill="#F98410" width="4.811" height="57.991"/>
						</g>
					</g>
				</g>
				<g>
					<g>
						<g>
							
								<rect x="24.204" y="15.037" transform="matrix(0.2537 -0.9673 0.9673 0.2537 6.2901 39.6787)" fill="#666666" width="9.311" height="1.452"/>
						</g>
					</g>
				</g>
				<polygon fill="#B5917C" points="86.134,25.987 95.625,32.851 83.771,34.992 				"/>
			</g>
			<polygon fill="#666666" points="95.625,32.851 94.082,31.734 93.687,33.199 			"/>
		</g>
		<path fill="#A6856F" d="M55.828,59.229l4.573-26.09l5.902-5.24l0.005,0.004c1.215-0.876,2.766-1.284,4.355-1.005
			c3.135,0.55,5.229,3.536,4.68,6.67c-0.159,0.913-0.543,1.721-1.059,2.417L74.296,36l-0.348,0.409
			c-0.056,0.062-0.105,0.132-0.164,0.192L55.828,59.229z"/>
	</g>
</g>
</svg>
