<?xml version="1.0" encoding="utf-8"?>
<!-- Generator: Adobe Illustrator 16.0.0, SVG Export Plug-In . SVG Version: 6.00 Build 0)  -->
<!DOCTYPE svg PUBLIC "-//W3C//DTD SVG 1.1//EN" "http://www.w3.org/Graphics/SVG/1.1/DTD/svg11.dtd">
<svg version="1.1" id="Objects" xmlns="http://www.w3.org/2000/svg" xmlns:xlink="http://www.w3.org/1999/xlink" x="0px" y="0px"
	 width="115.588px" height="152.687px" viewBox="0 0 115.588 152.687" enable-background="new 0 0 115.588 152.687"
	 xml:space="preserve">
<g>
	<g>
		<g>
			<g>
				<g>
					
						<rect x="45.551" y="-26.676" transform="matrix(0.3821 -0.9241 0.9241 0.3821 7.2453 65.9654)" fill="#2FA3DD" width="14.804" height="108.482"/>
				</g>
			</g>
		</g>
		<g>
			<g>
				<g>
					
						<rect x="53.442" y="-31.949" transform="matrix(0.3826 -0.9239 0.9239 0.3826 13.4444 64.7007)" fill="#258CB0" width="3.386" height="108.479"/>
				</g>
			</g>
		</g>
		<g>
			<g>
				<g>
					
						<rect x="49.446" y="-22.287" transform="matrix(0.3824 -0.924 0.924 0.3824 2.0587 66.9863)" fill="#39B2E2" width="3.386" height="108.48"/>
				</g>
			</g>
		</g>
		<g>
			<g>
				<path fill="#258CB0" d="M10.677,10.084c-0.566,1.369-2.139,2.02-3.509,1.455C5.8,10.974,5.147,9.4,5.713,8.031
					c0.565-1.368,2.14-2.021,3.508-1.455C10.59,7.141,11.243,8.717,10.677,10.084z M7.346,8.706c-0.194,0.469,0.03,1.007,0.499,1.2
					C8.312,10.1,8.851,9.875,9.043,9.409C9.237,8.941,9.015,8.403,8.545,8.21C8.076,8.016,7.54,8.24,7.346,8.706z"/>
			</g>
		</g>
		<g>
			<g>
				<g>
					
						<rect x="14.19" y="5.828" transform="matrix(0.3822 -0.9241 0.9241 0.3822 4.2133 18.4209)" fill="#39B2E2" width="3.386" height="0.464"/>
				</g>
			</g>
			<g>
				<g>
					
						<rect x="19.944" y="8.208" transform="matrix(0.3823 -0.924 0.924 0.3823 5.567 25.2075)" fill="#39B2E2" width="3.386" height="0.464"/>
				</g>
			</g>
			<g>
				<g>
					
						<rect x="25.7" y="10.587" transform="matrix(0.382 -0.9241 0.9241 0.382 6.9295 32.0005)" fill="#39B2E2" width="3.386" height="0.463"/>
				</g>
			</g>
			<g>
				<g>
					
						<rect x="31.455" y="12.967" transform="matrix(0.3821 -0.9241 0.9241 0.3821 8.2861 38.7894)" fill="#39B2E2" width="3.387" height="0.463"/>
				</g>
			</g>
			<g>
				<g>
					
						<rect x="37.212" y="15.348" transform="matrix(0.3823 -0.924 0.924 0.3823 9.6358 45.5737)" fill="#39B2E2" width="3.387" height="0.464"/>
				</g>
			</g>
			<g>
				<g>
					
						<rect x="42.968" y="17.729" transform="matrix(0.3823 -0.924 0.924 0.3823 10.9915 52.3631)" fill="#39B2E2" width="3.386" height="0.463"/>
				</g>
			</g>
			<g>
				<g>
					
						<rect x="48.723" y="20.107" transform="matrix(0.3824 -0.924 0.924 0.3824 12.3439 59.1456)" fill="#39B2E2" width="3.386" height="0.463"/>
				</g>
			</g>
			<g>
				<g>
					
						<rect x="54.476" y="22.486" transform="matrix(0.3818 -0.9242 0.9242 0.3818 13.7253 65.9584)" fill="#39B2E2" width="3.388" height="0.465"/>
				</g>
			</g>
			<g>
				<g>
					
						<rect x="60.231" y="24.865" transform="matrix(0.3817 -0.9243 0.9243 0.3817 15.091 72.7537)" fill="#39B2E2" width="3.387" height="0.465"/>
				</g>
			</g>
			<g>
				<g>
					
						<rect x="65.988" y="27.246" transform="matrix(0.3823 -0.924 0.924 0.3823 16.4169 79.5141)" fill="#39B2E2" width="3.386" height="0.464"/>
				</g>
			</g>
			<g>
				<g>
					
						<rect x="71.743" y="29.626" transform="matrix(0.3821 -0.9241 0.9241 0.3821 17.7869 86.3162)" fill="#39B2E2" width="3.387" height="0.463"/>
				</g>
			</g>
			<g>
				<g>
					
						<rect x="77.499" y="32.006" transform="matrix(0.3819 -0.9242 0.9242 0.3819 19.1542 93.1162)" fill="#39B2E2" width="3.384" height="0.464"/>
				</g>
			</g>
			<g>
				<g>
					
						<rect x="83.255" y="34.385" transform="matrix(0.3817 -0.9243 0.9243 0.3817 20.5267 99.9206)" fill="#39B2E2" width="3.387" height="0.465"/>
				</g>
			</g>
			<g>
				<g>
					
						<rect x="89.012" y="36.768" transform="matrix(0.3824 -0.924 0.924 0.3824 21.8328 106.6626)" fill="#39B2E2" width="3.385" height="0.464"/>
				</g>
			</g>
			<g>
				<g>
					
						<rect x="94.766" y="39.146" transform="matrix(0.3822 -0.9241 0.9241 0.3822 23.2077 113.4671)" fill="#39B2E2" width="3.386" height="0.464"/>
				</g>
			</g>
			<g>
				<g>
					
						<rect x="100.521" y="41.525" transform="matrix(0.3822 -0.9241 0.9241 0.3822 24.5649 120.255)" fill="#39B2E2" width="3.386" height="0.463"/>
				</g>
			</g>
		</g>
	</g>
	<g>
		<g>
			<g>
				
					<rect x="43.81" y="39.794" transform="matrix(0.9365 -0.3506 0.3506 0.9365 -16.9777 26.5637)" fill="#B5917C" width="42.115" height="40.744"/>
				<path fill="#B5917C" d="M50.274,4.532c-2.297,0.86-3.463,3.422-2.603,5.72l11.811,31.547l8.324-3.116L55.996,7.136
					C55.136,4.838,52.575,3.672,50.274,4.532z"/>
				<path fill="#B5917C" d="M38.478,5.283c-2.298,0.859-3.464,3.422-2.604,5.719l13.179,35.2l7.961-4.08L44.196,7.887
					C43.337,5.589,40.776,4.422,38.478,5.283z"/>
				<path fill="#B5917C" d="M31.147,17.725c-2.253,0.844-3.397,3.356-2.554,5.611l12.07,32.24l8.165-3.057l-12.07-32.241
					C35.915,18.024,33.402,16.881,31.147,17.725z"/>
				<path fill="#B5917C" d="M63.787,9.126c-2.158,0.808-3.254,3.216-2.446,5.374l8.538,22.806l8.017-2.4L69.16,11.573
					C68.352,9.415,65.946,8.317,63.787,9.126z"/>
				<path fill="#997B67" d="M52.367,86.9L43.08,62.095l-6.764-4.067l-0.004,0.004c-1.355-0.638-2.954-0.753-4.467-0.188
					c-2.979,1.116-4.492,4.436-3.376,7.417c0.325,0.867,0.852,1.59,1.486,2.181l-0.01,0.016l0.418,0.338
					c0.065,0.053,0.127,0.111,0.196,0.16L52.367,86.9z"/>
				<path fill="#B5917C" d="M91.649,71.645c1.12,2.991-0.397,6.325-3.391,7.446L59.634,89.807c-2.992,1.121-6.327-0.396-7.447-3.388
					l0,0c-1.12-2.992,0.399-6.324,3.392-7.445l28.625-10.717C87.196,67.137,90.529,68.653,91.649,71.645L91.649,71.645z"/>
				
					<rect x="65.765" y="76.991" transform="matrix(0.9365 -0.3506 0.3506 0.9365 -29.3786 33.9529)" fill="#B5917C" width="26.615" height="42.231"/>
			</g>
			<g>
				
					<rect x="65.041" y="96.793" transform="matrix(0.9365 -0.3506 0.3506 0.9365 -38.5568 34.4392)" fill="#ED7444" width="21.584" height="53.818"/>
				
					<rect x="65.041" y="96.793" transform="matrix(0.9365 -0.3506 0.3506 0.9365 -38.5568 34.4392)" opacity="0.19" width="21.584" height="53.818"/>
				
					<rect x="85.254" y="89.225" transform="matrix(0.9365 -0.3507 0.3507 0.9365 -34.6248 41.0533)" fill="#ED7444" width="21.583" height="53.818"/>
			</g>
		</g>
	</g>
</g>
</svg>
