<?xml version="1.0" encoding="utf-8"?>
<!-- Generator: Adobe Illustrator 21.1.0, SVG Export Plug-In . SVG Version: 6.00 Build 0)  -->
<svg version="1.1" id="Layer_1" xmlns="http://www.w3.org/2000/svg" xmlns:xlink="http://www.w3.org/1999/xlink" x="0px" y="0px"
	 viewBox="0 0 54.2 55.8" style="enable-background:new 0 0 54.2 55.8;" xml:space="preserve">
<style type="text/css">
	.st0{fill:#B78668;}
	.st1{fill:#D5A17D;}
	.st2{fill:#3B2519;}
	.st3{fill:#FFFFFF;}
	.st4{fill:#401900;}
	.st5{fill:#CA9773;}
</style>
<g id="Background">
</g>
<g>
	<ellipse class="st0" cx="7.4" cy="36.3" rx="4.9" ry="5.6"/>
	<ellipse class="st0" cx="46.8" cy="36.3" rx="4.9" ry="5.6"/>
	<path class="st1" d="M46.8,25.6c0-8.3-6.1-14.4-19.7-14.4S7.4,17.3,7.4,25.6S6,55.8,27.1,55.8S46.8,33.9,46.8,25.6z"/>
	<ellipse class="st2" cx="17.5" cy="35" rx="2.1" ry="2.3"/>
	<circle class="st3" cx="16.6" cy="34" r="0.6"/>
	<path class="st4" d="M14.1,29.2c1,0.5,2.6-1.7,6.3,0.2c0.7,0.4,1.1-3-2.9-3C14.1,26.4,13.5,28.9,14.1,29.2z"/>
	<ellipse class="st2" cx="36.9" cy="35" rx="2.1" ry="2.3"/>
	<circle class="st3" cx="36" cy="34" r="0.6"/>
	<path class="st4" d="M40.1,29.2c-1,0.5-2.6-1.7-6.3,0.2c-0.7,0.4-1.1-3,2.9-3C40.1,26.4,40.7,28.9,40.1,29.2z"/>
	<path class="st5" d="M27.1,43.2c-2.1,0-3.4-1.6-3.4-0.8c0,0.8,0.6,2.2,3.4,2.2s3.4-1.4,3.4-2.2C30.5,41.6,29.2,43.2,27.1,43.2z"/>
	<path class="st5" d="M27.1,50.2c-0.7,0-1.2-0.5-1.2-0.3s0.2,0.8,1.2,0.8c1,0,1.2-0.5,1.2-0.8S27.8,50.2,27.1,50.2z"/>
	<path class="st0" d="M27.1,48.2c-3.3,0-5.3-1.4-5.3-1s1,1.7,5.3,1.7s5.3-1.4,5.3-1.7S30.4,48.2,27.1,48.2z"/>
	<path d="M47.3,14.1L47.3,14.1l0-0.3C47.2,12.3,47.1,11,47,10l-0.2-1.3c-1.4-4-4.9-3.4-4.9-3.4c-1.3-3.4-5.2-2.2-5.2-2.2
		c-2.2-2.9-5.3-0.5-5.3-0.5C31.2,1.3,29.9,0,27.2,0s-4,1.3-4.2,2.6c0,0-3.1-2.4-5.3,0.5c0,0-3.8-1.1-5.2,2.2c0,0-3.5-0.6-4.9,3.4
		L7.5,9.5C7.3,9.8,7.1,11.8,6.9,16l0,0.2h0c-0.2,8.4-0.1,20.5,0.8,20.5c1.4,0,0.6-12.2,2.6-16.9s10-0.6,16.8-0.6s14.8-4.1,16.8,0.6
		s1.3,16.9,2.6,16.9C47.6,36.8,47.6,22.5,47.3,14.1z"/>
</g>
</svg>
