<?xml version="1.0" encoding="utf-8"?>
<!-- Generator: Adobe Illustrator 16.0.0, SVG Export Plug-In . SVG Version: 6.00 Build 0)  -->
<!DOCTYPE svg PUBLIC "-//W3C//DTD SVG 1.1//EN" "http://www.w3.org/Graphics/SVG/1.1/DTD/svg11.dtd">
<svg version="1.1" xmlns="http://www.w3.org/2000/svg" xmlns:xlink="http://www.w3.org/1999/xlink" x="0px" y="0px"
	 width="54.206px" height="55.764px" viewBox="0 0 54.206 55.764" enable-background="new 0 0 54.206 55.764" xml:space="preserve">
<g id="Background">
</g>
<g id="Objects">
	<g>
		<g>
			<path fill-rule="evenodd" clip-rule="evenodd" fill="#B5917C" d="M27.146,0C-5.81,0,6.042,39.831,8.194,43
				c2.374,3.496,13.628,12.764,18.952,12.764S43.724,46.499,46.098,43C48.251,39.831,60.103,0,27.146,0z"/>
			<path fill-rule="evenodd" clip-rule="evenodd" fill="#FFFFFF" d="M16.581,40.433c2.764,2.169,18.367,2.049,21.132,0
				c-1.228,5.835-5.875,7.806-10.565,7.716C22.663,48.064,18.138,46.182,16.581,40.433z"/>
			
				<ellipse transform="matrix(-0.3127 -0.9498 0.9498 -0.3127 -22.8506 41.5428)" fill-rule="evenodd" clip-rule="evenodd" fill="#B5917C" cx="3.604" cy="29.039" rx="5.702" ry="3.297"/>
			
				<ellipse transform="matrix(0.3127 -0.9498 0.9498 0.3127 7.1959 68.0219)" fill-rule="evenodd" clip-rule="evenodd" fill="#B5917C" cx="50.602" cy="29.039" rx="5.702" ry="3.297"/>
			<path fill-rule="evenodd" clip-rule="evenodd" d="M48.037,29.17c0.274-0.037,0.556-0.062,0.854-0.062
				c0.248,0,0.485,0.016,0.717,0.041c0.191-1.719,0.318-3.501,0.322-5.316C49.952,12.343,50.182,0,27.146,0
				C3.623,0,4.842,11.09,4.396,22.034c-0.107,2.639,0.054,5.259,0.354,7.722c0.284-0.04,0.576-0.067,0.887-0.067
				c0.228,0,0.447,0.011,0.66,0.032C5.607,21.267,6.823,7.611,11.994,7.956c5.411,0.361,8.839,1.263,15.152,1.263
				s9.74-0.902,15.151-1.263C47.358,7.619,48.631,20.686,48.037,29.17z"/>
		</g>
		<path opacity="0.25" fill-rule="evenodd" clip-rule="evenodd" d="M52.385,23.622c-0.775-0.255-1.645,0.001-2.457,0.629
			c0.001-0.115,0-0.23,0.001-0.346c0-0.024,0.002-0.048,0.002-0.073C49.952,12.343,50.182,0,27.146,0c-0.015,0-0.028,0-0.043,0
			V55.76c0.014,0,0.029,0.004,0.043,0.004c5.324,0,16.577-9.266,18.951-12.764c0.56-0.824,1.774-4.128,2.688-8.563
			c0.012,0.004,0.021,0.014,0.033,0.018c1.729,0.57,3.93-1.394,4.915-4.384C54.719,27.079,54.114,24.192,52.385,23.622z"/>
	</g>
</g>
</svg>
