<?xml version="1.0" encoding="utf-8"?>
<!-- Generator: Adobe Illustrator 16.0.0, SVG Export Plug-In . SVG Version: 6.00 Build 0)  -->
<!DOCTYPE svg PUBLIC "-//W3C//DTD SVG 1.1//EN" "http://www.w3.org/Graphics/SVG/1.1/DTD/svg11.dtd">
<svg version="1.1" xmlns="http://www.w3.org/2000/svg" xmlns:xlink="http://www.w3.org/1999/xlink" x="0px" y="0px"
	 width="63.198px" height="101.051px" viewBox="0 0 63.198 101.051" enable-background="new 0 0 63.198 101.051"
	 xml:space="preserve">
<g id="Background">
</g>
<g id="Objects">
	<g>
		<g>
			<g>
				<path fill-rule="evenodd" clip-rule="evenodd" fill="#ED7444" d="M35.448,41.992l11.817,33.384
					c1.506,4.252,6.217,6.5,10.47,4.994l0,0c4.253-1.506,6.499-6.216,4.994-10.469L50.912,36.518
					C47.479,26.82,32.192,32.795,35.448,41.992z"/>
				<path opacity="0.25" fill-rule="evenodd" clip-rule="evenodd" d="M35.448,41.992l11.817,33.384
					c1.506,4.252,6.217,6.5,10.47,4.994l0,0c4.253-1.506,6.499-6.216,4.994-10.469L50.912,36.518
					C47.479,26.82,32.192,32.795,35.448,41.992z"/>
			</g>
			<g>
				<g>
					<path fill-rule="evenodd" clip-rule="evenodd" fill="#B5917C" d="M62.699,100.973c0.003-0.075,0.012-0.146,0.013-0.221
						l0.047-2.679l-16.062-0.13l-0.046,2.679c-0.002,0.121,0.006,0.232,0.007,0.351H62.699z"/>
					<path fill-rule="evenodd" clip-rule="evenodd" fill="#ED7444" d="M46.697,97.943l0.099-25.631
						c0.017-4.509,3.83-8.136,8.342-8.06l0,0c4.51,0.078,8.137,3.832,8.059,8.342l-0.438,25.479L46.697,97.943z"/>
					<polygon opacity="0.19" fill-rule="evenodd" clip-rule="evenodd" points="62.759,98.073 62.819,94.59 46.71,94.45 
						46.697,97.943 					"/>
				</g>
				<path opacity="0.25" fill-rule="evenodd" clip-rule="evenodd" d="M46.697,97.943l0.099-25.631
					c0.017-4.509,3.83-8.136,8.342-8.06l0,0c4.51,0.078,8.137,3.832,8.059,8.342l-0.438,25.479L46.697,97.943z"/>
			</g>
		</g>
		<g>
			<g>
				<g>
					<polygon fill-rule="evenodd" clip-rule="evenodd" fill="#ED7444" points="35.67,100.973 44.077,100.973 44.077,31.557 
						0,31.557 0,101.051 35.67,101.051 					"/>
					<path opacity="0.19" fill-rule="evenodd" clip-rule="evenodd" d="M9.789,31.557h24.499v1.54c0,6.737-5.512,12.249-12.25,12.249
						l0,0c-6.736,0-12.249-5.512-12.249-12.249V31.557z"/>
					<rect y="57.428" opacity="0.19" fill-rule="evenodd" clip-rule="evenodd" width="44.076" height="13.649"/>
				</g>
				<path fill-rule="evenodd" clip-rule="evenodd" fill="#B5917C" d="M22.037,0L22.037,0c5.475,0,9.953,4.479,9.953,9.956v22.812
					c0,5.476-4.479,9.955-9.953,9.955l0,0c-5.475,0-9.953-4.479-9.953-9.955V9.956C12.084,4.479,16.562,0,22.037,0z"/>
				<path opacity="0.2" fill-rule="evenodd" clip-rule="evenodd" fill="#5D5D5D" d="M31.99,15.121v15.011
					c-3.716,2.71-7.432,4.228-9.953,4.228s-6.237-1.518-9.953-4.227V15.121C12.084,3.015,31.99,3.015,31.99,15.121z"/>
			</g>
			<path opacity="0.25" fill-rule="evenodd" clip-rule="evenodd" d="M35.67,100.973h8.407V31.557H31.99V9.956
				c0-5.476-4.478-9.955-9.951-9.956v101.051H35.67V100.973z"/>
		</g>
	</g>
</g>
</svg>
