<?xml version="1.0" encoding="utf-8"?>
<!-- Generator: Adobe Illustrator 21.1.0, SVG Export Plug-In . SVG Version: 6.00 Build 0)  -->
<svg version="1.1" id="Layer_1" xmlns="http://www.w3.org/2000/svg" xmlns:xlink="http://www.w3.org/1999/xlink" x="0px" y="0px"
	 viewBox="0 0 63.2 101.1" style="enable-background:new 0 0 63.2 101.1;" xml:space="preserve">
<style type="text/css">
	.st0{fill:#CA9773;}
	.st1{fill:#C2C2C2;}
	.st2{opacity:0.19;enable-background:new    ;}
	.st3{fill:#B78668;}
</style>
<g id="Background">
</g>
<path class="st0" d="M46.7,100.6c0,0.1,0,0.2,0,0.4h16c0-0.1,0-0.1,0-0.2l0-2.7l-16.1-0.1L46.7,100.6z"/>
<path class="st1" d="M56.9,53.4l-6-16.8c-1.2-3.5-4-4.9-6.8-5v0H0v69.5h35.7V101h8.4V66.4V58L56.9,53.4z"/>
<path class="st0" d="M46.7,97.9l16.1,0.1l0.4-25.5c0-0.1,0-0.1,0-0.2c0-0.1,0-0.1,0-0.2c0-1.2-0.3-2.3-0.8-3.3l-5.5-15.5L44.1,58
	v8.3l2.7,7.7L46.7,97.9z"/>
<polygon class="st2" points="55.7,50.1 44.1,54.3 44.1,58 56.9,53.4 "/>
<path class="st2" d="M9.8,31.6h24.5v1.5c0,6.7-5.5,12.2-12.2,12.2l0,0c-6.7,0-12.2-5.5-12.2-12.2C9.8,33.1,9.8,31.6,9.8,31.6z"/>
<g>
	<path class="st0" d="M12.1,30.4v2.3c0,5.5,4.5,10,10,10c4.9,0,9-3.6,9.8-8.3C21.5,35.2,13.7,31.3,12.1,30.4z"/>
	<path class="st0" d="M32,10c0-5.5-4.5-10-10-10c-5.5,0-10,4.5-10,10v17.7H32V10z"/>
	<path class="st3" d="M32,27.6H12.1v2.8c1.6,0.9,9.4,4.8,19.8,4c0.1-0.5,0.1-1.1,0.1-1.6V27.6z"/>
</g>
</svg>
