<?xml version="1.0" encoding="utf-8"?>
<!-- Generator: Adobe Illustrator 21.0.2, SVG Export Plug-In . SVG Version: 6.00 Build 0)  -->
<svg version="1.1" id="Layer_1" xmlns="http://www.w3.org/2000/svg" xmlns:xlink="http://www.w3.org/1999/xlink" x="0px" y="0px"
	 viewBox="0 0 54 35" style="enable-background:new 0 0 54 35;" xml:space="preserve">
<style type="text/css">
	.st0{opacity:0.25;}
</style>
<g class="st0">
	<path d="M52,17.2c-0.3,0-0.6-0.1-0.9-0.2L27,4.5L2.9,17c-1,0.5-2.2,0.1-2.7-0.9s-0.1-2.2,0.9-2.7l25-13c0.6-0.3,1.3-0.3,1.8,0
		l25,13c1,0.5,1.4,1.7,0.9,2.7C53.4,16.8,52.7,17.2,52,17.2z"/>
</g>
<g class="st0">
	<path d="M4.7,27c-0.4-0.9-1-1-1.6-1c-0.7,0-1.2,0.6-1.2,1.3c0,1,0.9,1.5,1.9,1.9c1.2,0.6,2.3,1.3,2.3,2.9c0,0.9-0.3,1.5-0.7,2.1
		c-0.6,0.6-1.3,0.9-2.2,0.9c-1.6,0-2.9-1.2-3.2-2.6l1-0.6c0.3,1.2,0.9,2.2,2.2,2.2c0.6,0,1-0.1,1.3-0.6C4.8,33.2,5,32.7,5,32.3
		c0-1-0.9-1.5-1.9-1.9c-1.3-0.9-2.5-1.6-2.5-3.1s1.2-2.5,2.5-2.5c1.5,0,2.1,0.6,2.6,1.6L4.7,27z"/>
	<path d="M13.5,31.6H8.2c0,1.3,0.7,2.3,2.1,2.3c1,0,1.6-0.4,2.1-1.3l1,0.4c-0.7,1.5-1.6,2.1-3.1,2.1c-2.2,0-3.2-1.8-3.2-3.7
		c0-1.9,1-3.7,3.2-3.7s3.2,1.6,3.2,3.4V31.6z M8.2,30.4h4c-0.1-1-0.9-1.8-2.1-1.8C9.1,28.6,8.4,29.4,8.2,30.4z"/>
	<path d="M20.8,31.6h-5.3c0,1.3,0.7,2.3,2.1,2.3c1,0,1.6-0.4,2.1-1.3l1,0.4c-0.7,1.5-1.6,2.1-3.1,2.1c-2.2,0-3.2-1.8-3.2-3.7
		c0-1.9,1-3.7,3.2-3.7s3.2,1.6,3.2,3.4V31.6z M15.7,30.4h4c-0.1-1-0.9-1.8-2.1-1.8C16.6,28.6,15.8,29.4,15.7,30.4z"/>
	<path d="M26.9,24.8l2.6,7l2.6-7h1.6v10h-1.3v-7.3l-2.5,6.5h-0.9l-2.5-6.5v7.3h-1.3v-10C25.2,24.8,26.9,24.8,26.9,24.8z"/>
	<path d="M38.6,27.6c2.2,0,3.5,1.8,3.5,3.7s-1.3,3.7-3.5,3.7c-2.2,0-3.5-1.8-3.5-3.7C35.2,29.4,36.5,27.6,38.6,27.6z M38.6,33.9
		c1.5,0,2.2-1.3,2.2-2.6s-0.7-2.6-2.2-2.6c-1.5,0-2.2,1.3-2.2,2.6S37.1,33.9,38.6,33.9z"/>
	<path d="M47.2,28.8c-0.3-0.1-0.6-0.1-0.9-0.1c-1,0-2.1,1.2-2.1,3.5v2.8h-1.2v-7.2h1.2v1.2c0.4-0.7,1.3-1.3,2.1-1.3
		c0.4,0,0.7,0.1,1,0.1L47.2,28.8z"/>
	<path d="M54,31.6h-5.3c0,1.3,0.7,2.3,2.1,2.3c1,0,1.6-0.4,2.1-1.3l1,0.4c-0.7,1.5-1.6,2.1-3.1,2.1c-2.2,0-3.2-1.8-3.2-3.7
		c0-1.9,1-3.7,3.2-3.7c2.2,0,3.2,1.6,3.2,3.4C54,31.1,54,31.6,54,31.6z M48.9,30.4h4c-0.1-1-0.9-1.8-2.1-1.8
		C49.6,28.6,49,29.4,48.9,30.4z"/>
</g>
</svg>
