<?xml version="1.0" encoding="utf-8"?>
<!-- Generator: Adobe Illustrator 21.0.2, SVG Export Plug-In . SVG Version: 6.00 Build 0)  -->
<svg version="1.1" id="Layer_1" xmlns="http://www.w3.org/2000/svg" xmlns:xlink="http://www.w3.org/1999/xlink" x="0px" y="0px"
	 viewBox="0 0 54 35" style="enable-background:new 0 0 54 35;" xml:space="preserve">
<style type="text/css">
	.st0{opacity:0.25;}
</style>
<g class="st0">
	<path d="M2,18c0.3,0,0.6,0.1,0.9,0.2L27,30.7l24.1-12.5c1-0.5,2.2-0.1,2.7,0.9s0.1,2.2-0.9,2.7l-25,13c-0.6,0.3-1.3,0.3-1.8,0
		l-25-13c-1-0.5-1.4-1.7-0.9-2.7C0.6,18.4,1.3,18,2,18z"/>
</g>
<g class="st0">
	<path d="M4.7,2.2c-0.4-0.9-1-1-1.6-1c-0.7,0-1.2,0.6-1.2,1.3c0,1,0.9,1.5,1.9,1.9C5,5,6.2,5.7,6.2,7.3c0,0.9-0.3,1.5-0.7,2.1
		c-0.6,0.6-1.3,0.9-2.2,0.9c-1.6,0-2.9-1.2-3.2-2.6L1,7c0.3,1.2,0.9,2.2,2.2,2.2c0.6,0,1-0.1,1.3-0.6C4.8,8.4,5,7.9,5,7.5
		c0-1-0.9-1.5-1.9-1.9C1.8,4.7,0.6,4,0.6,2.5S1.8,0,3.1,0c1.5,0,2.1,0.6,2.6,1.6L4.7,2.2z"/>
	<path d="M13.5,6.8H8.2c0,1.3,0.7,2.3,2.1,2.3c1,0,1.6-0.4,2.1-1.3l1,0.4c-0.7,1.5-1.6,2.1-3.1,2.1C8.1,10.3,7,8.5,7,6.6
		s1-3.7,3.2-3.7s3.2,1.6,3.2,3.4V6.8z M8.2,5.6h4c-0.1-1-0.9-1.8-2.1-1.8C9.1,3.8,8.4,4.5,8.2,5.6z"/>
	<path d="M20.8,6.8h-5.3c0,1.3,0.7,2.3,2.1,2.3c1,0,1.6-0.4,2.1-1.3l1,0.4c-0.7,1.5-1.6,2.1-3.1,2.1c-2.2,0-3.2-1.8-3.2-3.7
		s1-3.7,3.2-3.7s3.2,1.6,3.2,3.4V6.8z M15.7,5.6h4c-0.1-1-0.9-1.8-2.1-1.8C16.6,3.8,15.8,4.5,15.7,5.6z"/>
	<path d="M26.9,0l2.6,7l2.6-7h1.6v10h-1.3V2.6l-2.5,6.5h-0.9l-2.5-6.5V10h-1.3V0C25.2,0,26.9,0,26.9,0z"/>
	<path d="M38.6,2.8c2.2,0,3.5,1.8,3.5,3.7s-1.3,3.7-3.5,3.7c-2.2,0-3.5-1.8-3.5-3.7C35.2,4.5,36.5,2.8,38.6,2.8z M38.6,9.1
		c1.5,0,2.2-1.3,2.2-2.6s-0.7-2.6-2.2-2.6c-1.5,0-2.2,1.3-2.2,2.6S37.1,9.1,38.6,9.1z"/>
	<path d="M47.2,4c-0.3-0.1-0.6-0.1-0.9-0.1c-1,0-2.1,1.2-2.1,3.5v2.8h-1.2V2.9h1.2v1.2c0.4-0.7,1.3-1.3,2.1-1.3c0.4,0,0.7,0.1,1,0.1
		L47.2,4z"/>
	<path d="M54,6.8h-5.3c0,1.3,0.7,2.3,2.1,2.3c1,0,1.6-0.4,2.1-1.3l1,0.4c-0.7,1.5-1.6,2.1-3.1,2.1c-2.2,0-3.2-1.8-3.2-3.7
		s1-3.7,3.2-3.7C53,2.9,54,4.5,54,6.3C54,6.3,54,6.8,54,6.8z M48.9,5.6h4c-0.1-1-0.9-1.8-2.1-1.8C49.6,3.8,49,4.5,48.9,5.6z"/>
</g>
</svg>
