<?xml version="1.0" encoding="utf-8"?>
<!-- Generator: Adobe Illustrator 16.0.0, SVG Export Plug-In . SVG Version: 6.00 Build 0)  -->
<!DOCTYPE svg PUBLIC "-//W3C//DTD SVG 1.1//EN" "http://www.w3.org/Graphics/SVG/1.1/DTD/svg11.dtd">
<svg version="1.1" id="Capa_1" xmlns="http://www.w3.org/2000/svg" xmlns:xlink="http://www.w3.org/1999/xlink" x="0px" y="0px"
	 width="512px" height="512px" viewBox="0 0 512 512" enable-background="new 0 0 512 512" xml:space="preserve">
<g>
	<path fill="#235986" d="M65.717,0h380.566c36.142,0,65.712,26.758,65.712,65.712v380.576c0,38.954-29.57,65.712-65.712,65.712
		H65.717C29.565,512,0,485.242,0,446.288V65.712C0,26.758,29.565,0,65.717,0L65.717,0z M372.97,56.885
		c-12.68,0-23.041,10.367-23.041,23.052v55.172c0,12.68,10.361,23.051,23.041,23.051h57.868c12.68,0,23.052-10.372,23.052-23.051
		V79.937c0-12.685-10.372-23.052-23.052-23.052H372.97L372.97,56.885z M454.132,216.523h-45.062
		c4.263,13.92,6.571,28.666,6.571,43.922c0,85.162-71.264,154.196-159.154,154.196c-87.886,0-159.138-69.034-159.138-154.196
		c0-15.267,2.302-30.007,6.571-43.922H56.896v216.276c0,11.192,9.158,20.354,20.355,20.354h356.536
		c11.197,0,20.355-9.157,20.355-20.354V216.523H454.132z M256.481,155.253c-56.786,0-102.826,44.605-102.826,99.635
		s46.04,99.635,102.826,99.635c56.791,0,102.836-44.605,102.836-99.635S313.277,155.253,256.481,155.253z"/>
</g>
</svg>
