<?xml version="1.0" encoding="utf-8"?>
<!-- Generator: Adobe Illustrator 16.0.0, SVG Export Plug-In . SVG Version: 6.00 Build 0)  -->
<!DOCTYPE svg PUBLIC "-//W3C//DTD SVG 1.1//EN" "http://www.w3.org/Graphics/SVG/1.1/DTD/svg11.dtd">
<svg version="1.1" id="Capa_1" xmlns="http://www.w3.org/2000/svg" xmlns:xlink="http://www.w3.org/1999/xlink" x="0px" y="0px"
	 width="512px" height="512px" viewBox="0 0 512 512" enable-background="new 0 0 512 512" xml:space="preserve">
<g>
	<g id="post-linkedin">
		<path fill="#2E7DB2" d="M460.8,0H51.2C23.04,0,0,23.04,0,51.2v409.6C0,488.96,23.04,512,51.2,512h409.6
			c28.16,0,51.2-23.04,51.2-51.2V51.2C512,23.04,488.96,0,460.8,0z M153.6,435.2H76.8V204.8h76.8V435.2z M115.2,161.28
			c-25.6,0-46.08-20.48-46.08-46.08c0-25.6,20.48-46.08,46.08-46.08c25.6,0,46.08,20.48,46.08,46.08
			C161.28,140.8,140.8,161.28,115.2,161.28z M435.2,435.2h-76.8V299.52c0-20.479-17.92-38.399-38.4-38.399s-38.4,17.921-38.4,38.399
			V435.2h-76.8V204.8h76.8v30.72c12.801-20.48,40.96-35.84,64-35.84c48.641,0,89.601,40.96,89.601,89.6V435.2z"/>
	</g>
</g>
</svg>
