<?xml version="1.0" encoding="utf-8"?>
<!-- Generator: Adobe Illustrator 21.1.0, SVG Export Plug-In . SVG Version: 6.00 Build 0)  -->
<svg version="1.1" id="Layer_1" xmlns="http://www.w3.org/2000/svg" xmlns:xlink="http://www.w3.org/1999/xlink" x="0px" y="0px"
	 viewBox="0 0 800 800" style="enable-background:new 0 0 800 800;" xml:space="preserve">
<style type="text/css">
	.st0{fill:#4280C2;}
</style>
<g>
	<path class="st0" d="M359.2,39.9l23.3,26.4l17.3,19.6L417,66.3l23.3-26.4l16.8,31l12.5,22.9l21.2-15.3L519.3,58l9.5,33.9l7.1,25.1
		l24.1-10.2l32.4-13.7l1.7,35.2l1.3,26.1l25.7-4.6l34.7-6.1l-6.1,34.7l-4.5,25.7l26.1,1.3l35.2,1.7l-13.7,32.5l-10.1,24l25.1,7.1
		l33.9,9.5l-20.6,28.6l-15.2,21.2l22.9,12.5l31,16.9l-26.5,23.3L713.6,400l19.6,17.3l26.5,23.3l-31,16.8l-22.9,12.5l15.2,21.2
		l20.6,28.6l-33.9,9.5l-25.1,7.1l10.1,24l13.7,32.5l-35.2,1.7l-26.1,1.3l4.5,25.7l6.1,34.7l-34.7-6.1l-25.7-4.6l-1.3,26.1l-1.7,35.2
		l-32.4-13.7L535.9,683l-7.1,25.1l-9.5,33.9l-28.6-20.6l-21.2-15.3l-12.5,22.9l-16.8,31L417,733.7l-17.3-19.6l-17.3,19.6l-23.3,26.4
		l-16.8-31l-12.5-22.9l-21.2,15.3L280.1,742l-9.5-33.9l-7.1-25.1l-24.1,10.2l-32.4,13.7l-1.7-35.2l-1.3-26.1l-25.7,4.6l-34.7,6.1
		l6.1-34.7l4.5-25.7l-26.1-1.3l-35.2-1.7l13.7-32.5l10.1-24l-25.1-7.1l-33.9-9.5l20.6-28.6l15.2-21.2l-22.9-12.5l-31-16.8l26.5-23.3
		L85.9,400l-19.6-17.3l-26.4-23.3l31-16.9l22.9-12.5l-15.2-21.2l-20.6-28.6l33.9-9.5l25.1-7.1l-10.1-24l-13.7-32.5l35.2-1.7
		l26.1-1.3l-4.5-25.7l-6.1-34.7l34.7,6.1l25.7,4.6l1.3-26.1l1.7-35.2l32.4,13.7l24.1,10.2l7.1-25.1l9.5-33.9l28.6,20.6l21.2,15.3
		l12.5-22.9L359.2,39.9 M444.8,0l-45,51.1L354.7,0l-32.5,59.9l-55.3-39.8l-18.4,65.6l-62.7-26.5l-3.4,68.1l-67.1-11.9l11.9,67.1
		l-68,3.3l26.5,62.8L20,267.1l39.8,55.3L0,354.9L51.1,400L0,445.1l59.8,32.6L20,532.9l65.6,18.4l-26.5,62.8l68,3.4l-11.9,67.1
		l67.1-11.9l3.4,68.1l62.7-26.5l18.4,65.6l55.3-39.8l32.5,59.9l45-51.1l45,51.1l32.5-59.9l55.3,39.8l18.4-65.6l62.7,26.5l3.4-68.1
		l67.1,11.9l-11.9-67.1l68-3.4l-26.5-62.8l65.6-18.4l-39.8-55.3l59.8-32.6L748.3,400l51.1-45.1l-59.8-32.6l39.8-55.3l-65.6-18.4
		l26.5-62.8l-68-3.3l11.9-67.1l-67.1,11.9l-3.4-68.1L551,85.7l-18.4-65.6l-55.3,39.8L444.8,0L444.8,0z"/>
</g>
</svg>
