<?xml version="1.0" encoding="utf-8"?>
<!-- Generator: Adobe Illustrator 16.0.0, SVG Export Plug-In . SVG Version: 6.00 Build 0)  -->
<!DOCTYPE svg PUBLIC "-//W3C//DTD SVG 1.1//EN" "http://www.w3.org/Graphics/SVG/1.1/DTD/svg11.dtd">
<svg version="1.1" xmlns="http://www.w3.org/2000/svg" xmlns:xlink="http://www.w3.org/1999/xlink" x="0px" y="0px" width="610.2px"
	 height="101.119px" viewBox="0 0 610.2 101.119" enable-background="new 0 0 610.2 101.119" xml:space="preserve">
<g id="Background">
</g>
<g id="Objects">
	<g>
		<path fill="#005380" d="M582.583,85.021c0,8.891-7.175,16.099-16.025,16.099H43.854c-8.851,0-16.025-7.208-16.025-16.099v-6.405
			c0-8.891,7.175-16.099,16.025-16.099h522.704c8.851,0,16.025,7.208,16.025,16.099V85.021z"/>
		<path fill="#0071AD" d="M610.2,67.772c0,5.723-4.64,10.363-10.363,10.363H10.364C4.641,78.136,0,73.495,0,67.772l0,0
			c0-5.725,4.641-10.364,10.364-10.364h589.473C605.561,57.408,610.2,62.048,610.2,67.772L610.2,67.772z"/>
		<rect x="27.617" y="46.753" fill="#8F989E" width="554.966" height="10.655"/>
		<rect x="27.617" y="42.872" fill="#AFBAC2" width="554.966" height="3.881"/>
		<g opacity="0.6">
			<g>
				<path fill="#00B6E3" d="M24.932,65.215c-7.136,0-12.921,5.785-12.921,12.921h25.842C37.853,71,32.068,65.215,24.932,65.215z"/>
				<path fill="#0071AD" d="M24.932,69.661c-4.681,0-8.475,3.794-8.475,8.475h16.949C33.406,73.455,29.612,69.661,24.932,69.661z"/>
			</g>
			<g>
				<path fill="#00B6E3" d="M54.424,65.215c-7.137,0-12.922,5.785-12.922,12.921h25.842C67.344,71,61.559,65.215,54.424,65.215z"/>
				<path fill="#0071AD" d="M54.424,69.661c-4.682,0-8.476,3.794-8.476,8.475h16.95C62.898,73.455,59.104,69.661,54.424,69.661z"/>
			</g>
			<g>
				<path fill="#00B6E3" d="M83.914,65.215c-7.135,0-12.92,5.785-12.92,12.921h25.842C96.836,71,91.051,65.215,83.914,65.215z"/>
				<path fill="#0071AD" d="M83.914,69.661c-4.68,0-8.475,3.794-8.475,8.475h16.95C92.39,73.455,88.596,69.661,83.914,69.661z"/>
			</g>
			<g>
				<path fill="#00B6E3" d="M113.406,65.215c-7.137,0-12.921,5.785-12.921,12.921h25.842C126.327,71,120.542,65.215,113.406,65.215z
					"/>
				<path fill="#0071AD" d="M113.406,69.661c-4.681,0-8.475,3.794-8.475,8.475h16.949C121.881,73.455,118.087,69.661,113.406,69.661
					z"/>
			</g>
			<g>
				<path fill="#00B6E3" d="M142.897,65.215c-7.136,0-12.921,5.785-12.921,12.921h25.842C155.818,71,150.033,65.215,142.897,65.215z
					"/>
				<path fill="#0071AD" d="M142.897,69.661c-4.681,0-8.476,3.794-8.476,8.475h16.951C151.373,73.455,147.578,69.661,142.897,69.661
					z"/>
			</g>
			<g>
				<path fill="#00B6E3" d="M172.389,65.215c-7.136,0-12.92,5.785-12.92,12.921h25.842C185.311,71,179.525,65.215,172.389,65.215z"
					/>
				<path fill="#0071AD" d="M172.389,69.661c-4.68,0-8.475,3.794-8.475,8.475h16.949C180.863,73.455,177.07,69.661,172.389,69.661z"
					/>
			</g>
			<g>
				<path fill="#00B6E3" d="M201.881,65.215c-7.137,0-12.922,5.785-12.922,12.921h25.842C214.801,71,209.017,65.215,201.881,65.215z
					"/>
				<path fill="#0071AD" d="M201.881,69.661c-4.682,0-8.476,3.794-8.476,8.475h16.95C210.355,73.455,206.561,69.661,201.881,69.661z
					"/>
			</g>
			<g>
				<path fill="#00B6E3" d="M231.372,65.215c-7.136,0-12.921,5.785-12.921,12.921h25.842C244.293,71,238.508,65.215,231.372,65.215z
					"/>
				<path fill="#0071AD" d="M231.372,69.661c-4.681,0-8.476,3.794-8.476,8.475h16.95C239.847,73.455,236.053,69.661,231.372,69.661z
					"/>
			</g>
			<g>
				<path fill="#00B6E3" d="M260.863,65.215c-7.136,0-12.921,5.785-12.921,12.921h25.842C273.784,71,268,65.215,260.863,65.215z"/>
				<path fill="#0071AD" d="M260.863,69.661c-4.681,0-8.475,3.794-8.475,8.475h16.949C269.338,73.455,265.544,69.661,260.863,69.661
					z"/>
			</g>
			<g>
				<path fill="#00B6E3" d="M290.355,65.215c-7.137,0-12.922,5.785-12.922,12.921h25.842C303.275,71,297.49,65.215,290.355,65.215z"
					/>
				<path fill="#0071AD" d="M290.355,69.661c-4.682,0-8.476,3.794-8.476,8.475h16.95C298.83,73.455,295.035,69.661,290.355,69.661z"
					/>
			</g>
			<g>
				<path fill="#00B6E3" d="M319.847,65.215c-7.137,0-12.921,5.785-12.921,12.921h25.842C332.768,71,326.982,65.215,319.847,65.215z
					"/>
				<path fill="#0071AD" d="M319.847,69.661c-4.681,0-8.476,3.794-8.476,8.475h16.95C328.321,73.455,324.527,69.661,319.847,69.661z
					"/>
			</g>
			<g>
				<path fill="#00B6E3" d="M349.338,65.215c-7.136,0-12.921,5.785-12.921,12.921h25.842C362.259,71,356.474,65.215,349.338,65.215z
					"/>
				<path fill="#0071AD" d="M349.338,69.661c-4.681,0-8.476,3.794-8.476,8.475h16.95C357.812,73.455,354.019,69.661,349.338,69.661z
					"/>
			</g>
			<g>
				<path fill="#00B6E3" d="M378.829,65.215c-7.136,0-12.921,5.785-12.921,12.921h25.842C391.75,71,385.965,65.215,378.829,65.215z"
					/>
				<path fill="#0071AD" d="M378.829,69.661c-4.681,0-8.475,3.794-8.475,8.475h16.949C387.304,73.455,383.51,69.661,378.829,69.661z
					"/>
			</g>
			<g>
				<path fill="#00B6E3" d="M408.32,65.215c-7.136,0-12.921,5.785-12.921,12.921h25.842C421.241,71,415.457,65.215,408.32,65.215z"
					/>
				<path fill="#0071AD" d="M408.32,69.661c-4.681,0-8.475,3.794-8.475,8.475h16.95C416.796,73.455,413.001,69.661,408.32,69.661z"
					/>
			</g>
			<g>
				<path fill="#00B6E3" d="M437.812,65.215c-7.137,0-12.921,5.785-12.921,12.921h25.842C450.733,71,444.948,65.215,437.812,65.215z
					"/>
				<path fill="#0071AD" d="M437.812,69.661c-4.681,0-8.476,3.794-8.476,8.475h16.95C446.287,73.455,442.493,69.661,437.812,69.661z
					"/>
			</g>
			<g>
				<path fill="#00B6E3" d="M467.304,65.215c-7.136,0-12.921,5.785-12.921,12.921h25.842C480.225,71,474.439,65.215,467.304,65.215z
					"/>
				<path fill="#0071AD" d="M467.304,69.661c-4.681,0-8.475,3.794-8.475,8.475h16.949C475.778,73.455,471.984,69.661,467.304,69.661
					z"/>
			</g>
			<g>
				<path fill="#00B6E3" d="M496.795,65.215c-7.136,0-12.921,5.785-12.921,12.921h25.842C509.716,71,503.931,65.215,496.795,65.215z
					"/>
				<path fill="#0071AD" d="M496.795,69.661c-4.681,0-8.475,3.794-8.475,8.475h16.949C505.27,73.455,501.476,69.661,496.795,69.661z
					"/>
			</g>
			<g>
				<path fill="#00B6E3" d="M526.286,65.215c-7.136,0-12.921,5.785-12.921,12.921h25.842C539.207,71,533.423,65.215,526.286,65.215z
					"/>
				<path fill="#0071AD" d="M526.286,69.661c-4.681,0-8.475,3.794-8.475,8.475h16.95C534.762,73.455,530.967,69.661,526.286,69.661z
					"/>
			</g>
			<g>
				<path fill="#00B6E3" d="M555.778,65.215c-7.137,0-12.921,5.785-12.921,12.921h25.842C568.699,71,562.914,65.215,555.778,65.215z
					"/>
				<path fill="#0071AD" d="M555.778,69.661c-4.681,0-8.476,3.794-8.476,8.475h16.95C564.253,73.455,560.459,69.661,555.778,69.661z
					"/>
			</g>
			<g>
				<path fill="#00B6E3" d="M585.27,65.215c-7.136,0-12.921,5.785-12.921,12.921h25.842C598.19,71,592.405,65.215,585.27,65.215z"/>
				<path fill="#0071AD" d="M585.27,69.661c-4.681,0-8.475,3.794-8.475,8.475h16.949C593.744,73.455,589.95,69.661,585.27,69.661z"
					/>
			</g>
		</g>
		<g>
			<g>
				<rect x="134.028" y="16.352" fill="#B06321" width="1.967" height="26.521"/>
				<g>
					<ellipse fill="#76D900" cx="135.012" cy="14.998" rx="9.025" ry="7.552"/>
				</g>
			</g>
			<path opacity="0.2" fill="#FFFFFF" d="M135.012,42.872V7.445c-4.984,0-9.025,3.382-9.025,7.553c0,3.893,3.521,7.095,8.042,7.505
				v20.369H135.012z"/>
		</g>
		<g>
			<g>
				<rect x="123.291" y="30.792" fill="#B06321" width="1.462" height="12.08"/>
				<g>
					<ellipse fill="#76D900" cx="124.021" cy="29.786" rx="6.711" ry="5.615"/>
				</g>
			</g>
			<path opacity="0.2" fill="#FFFFFF" d="M124.021,42.872V24.171c-3.706,0-6.711,2.514-6.711,5.615c0,2.894,2.618,5.275,5.98,5.58
				v7.506H124.021z"/>
		</g>
		<g>
			<g>
				<rect x="387.454" y="16.352" fill="#B06321" width="1.967" height="26.521"/>
				<g>
					<ellipse fill="#76D900" cx="388.437" cy="14.998" rx="9.026" ry="7.552"/>
				</g>
			</g>
			<path opacity="0.2" fill="#FFFFFF" d="M388.438,42.872V7.445c-4.984,0-9.026,3.382-9.026,7.553c0,3.893,3.521,7.095,8.043,7.505
				v20.369H388.438z"/>
		</g>
		<g>
			<g>
				<rect x="420.511" y="30.792" fill="#B06321" width="1.462" height="12.08"/>
				<g>
					<ellipse fill="#76D900" cx="421.242" cy="29.786" rx="6.711" ry="5.615"/>
				</g>
			</g>
			<path opacity="0.2" fill="#FFFFFF" d="M421.241,42.872V24.171c-3.706,0-6.711,2.514-6.711,5.615c0,2.894,2.618,5.275,5.98,5.58
				v7.506H421.241z"/>
		</g>
		<g>
			<g>
				<rect x="440.548" y="30.792" fill="#B06321" width="1.462" height="12.08"/>
				<g>
					<ellipse fill="#76D900" cx="441.278" cy="29.786" rx="6.711" ry="5.615"/>
				</g>
			</g>
			<path opacity="0.2" fill="#FFFFFF" d="M441.278,42.872V24.171c-3.706,0-6.711,2.514-6.711,5.615c0,2.894,2.618,5.275,5.98,5.58
				v7.506H441.278z"/>
		</g>
		<g>
			<g>
				<rect x="247.017" y="30.792" fill="#B06321" width="1.462" height="12.08"/>
				<g>
					<ellipse fill="#76D900" cx="247.748" cy="29.786" rx="6.711" ry="5.615"/>
				</g>
			</g>
			<path opacity="0.2" fill="#FFFFFF" d="M247.748,42.872V24.171c-3.707,0-6.711,2.514-6.711,5.615c0,2.894,2.617,5.275,5.979,5.58
				v7.506H247.748z"/>
		</g>
		<g>
			<g>
				<rect x="262.003" y="30.792" fill="#B06321" width="1.462" height="12.08"/>
				<g>
					<ellipse fill="#76D900" cx="262.734" cy="29.786" rx="6.711" ry="5.615"/>
				</g>
			</g>
			<path opacity="0.2" fill="#FFFFFF" d="M262.734,42.872V24.171c-3.707,0-6.711,2.514-6.711,5.615c0,2.894,2.617,5.275,5.979,5.58
				v7.506H262.734z"/>
		</g>
		<path fill="#64B800" d="M93.928,39.89c0,1.647-1.335,2.982-2.982,2.982H32.701c-1.647,0-2.982-1.335-2.982-2.982l0,0
			c0-1.646,1.335-2.981,2.982-2.981h58.244C92.593,36.908,93.928,38.243,93.928,39.89L93.928,39.89z"/>
		<path fill="#64B800" d="M371.531,39.89c0,1.647-1.335,2.982-2.981,2.982h-58.245c-1.646,0-2.981-1.335-2.981-2.982l0,0
			c0-1.646,1.335-2.981,2.981-2.981h58.245C370.196,36.908,371.531,38.243,371.531,39.89L371.531,39.89z"/>
	</g>
</g>
</svg>
