<?xml version="1.0" encoding="utf-8"?>
<!-- Generator: Adobe Illustrator 16.0.0, SVG Export Plug-In . SVG Version: 6.00 Build 0)  -->
<!DOCTYPE svg PUBLIC "-//W3C//DTD SVG 1.1//EN" "http://www.w3.org/Graphics/SVG/1.1/DTD/svg11.dtd">
<svg version="1.1" xmlns="http://www.w3.org/2000/svg" xmlns:xlink="http://www.w3.org/1999/xlink" x="0px" y="0px"
	 width="138.704px" height="59.142px" viewBox="0 0 138.704 59.142" enable-background="new 0 0 138.704 59.142"
	 xml:space="preserve">
<g id="Background">
</g>
<g id="Objects">
	<g>
		<g>
			<line fill="none" stroke="#B82900" stroke-width="2" stroke-miterlimit="10" x1="36.338" y1="30.75" x2="36.338" y2="9.741"/>
			<line fill="none" stroke="#B82900" stroke-width="2" stroke-miterlimit="10" x1="39.482" y1="30.75" x2="39.482" y2="14.401"/>
			<line fill="none" stroke="#B82900" stroke-width="2" stroke-miterlimit="10" x1="42.626" y1="30.75" x2="42.626" y2="17.112"/>
			<line fill="none" stroke="#B82900" stroke-width="2" stroke-miterlimit="10" x1="45.771" y1="30.75" x2="45.771" y2="19.437"/>
			<line fill="none" stroke="#B82900" stroke-width="2" stroke-miterlimit="10" x1="48.915" y1="30.75" x2="48.915" y2="20.985"/>
			<line fill="none" stroke="#B82900" stroke-width="2" stroke-miterlimit="10" x1="52.059" y1="30.75" x2="52.059" y2="22.534"/>
			<line fill="none" stroke="#B82900" stroke-width="2" stroke-miterlimit="10" x1="55.203" y1="30.75" x2="55.203" y2="23.696"/>
			<line fill="none" stroke="#B82900" stroke-width="2" stroke-miterlimit="10" x1="58.348" y1="30.75" x2="58.348" y2="24.084"/>
			<line fill="none" stroke="#B82900" stroke-width="2" stroke-miterlimit="10" x1="61.491" y1="30.75" x2="61.491" y2="24.672"/>
			<line fill="none" stroke="#B82900" stroke-width="2" stroke-miterlimit="10" x1="64.636" y1="30.75" x2="64.636" y2="24.908"/>
			<line fill="none" stroke="#B82900" stroke-width="2" stroke-miterlimit="10" x1="67.78" y1="30.75" x2="67.78" y2="25.398"/>
			<line fill="none" stroke="#B82900" stroke-width="2" stroke-miterlimit="10" x1="70.924" y1="30.75" x2="70.924" y2="25.398"/>
			<line fill="none" stroke="#B82900" stroke-width="2" stroke-miterlimit="10" x1="74.068" y1="30.75" x2="74.068" y2="24.908"/>
			<line fill="none" stroke="#B82900" stroke-width="2" stroke-miterlimit="10" x1="77.213" y1="30.75" x2="77.213" y2="24.672"/>
			<line fill="none" stroke="#B82900" stroke-width="2" stroke-miterlimit="10" x1="80.356" y1="30.75" x2="80.356" y2="24.084"/>
			<line fill="none" stroke="#B82900" stroke-width="2" stroke-miterlimit="10" x1="83.501" y1="30.75" x2="83.501" y2="23.696"/>
			<line fill="none" stroke="#B82900" stroke-width="2" stroke-miterlimit="10" x1="86.646" y1="30.75" x2="86.646" y2="22.534"/>
			<line fill="none" stroke="#B82900" stroke-width="2" stroke-miterlimit="10" x1="89.789" y1="30.75" x2="89.789" y2="20.985"/>
			<line fill="none" stroke="#B82900" stroke-width="2" stroke-miterlimit="10" x1="92.934" y1="30.75" x2="92.934" y2="19.437"/>
			<line fill="none" stroke="#B82900" stroke-width="2" stroke-miterlimit="10" x1="96.078" y1="30.75" x2="96.078" y2="17.112"/>
			<line fill="none" stroke="#B82900" stroke-width="2" stroke-miterlimit="10" x1="99.222" y1="30.75" x2="99.222" y2="14.401"/>
			<line fill="none" stroke="#B82900" stroke-width="2" stroke-miterlimit="10" x1="102.366" y1="30.75" x2="102.366" y2="9.741"/>
		</g>
		<g>
			<g>
				<line fill="none" stroke="#B82900" stroke-width="2" stroke-miterlimit="10" x1="11.185" y1="30.75" x2="11.185" y2="28.501"/>
				<line fill="none" stroke="#B82900" stroke-width="2" stroke-miterlimit="10" x1="14.328" y1="30.75" x2="14.328" y2="27.239"/>
				<line fill="none" stroke="#B82900" stroke-width="2" stroke-miterlimit="10" x1="17.473" y1="30.75" x2="17.473" y2="25.786"/>
				<line fill="none" stroke="#B82900" stroke-width="2" stroke-miterlimit="10" x1="20.617" y1="30.75" x2="20.617" y2="23.455"/>
				<line fill="none" stroke="#B82900" stroke-width="2" stroke-miterlimit="10" x1="23.761" y1="30.75" x2="23.761" y2="20.547"/>
				<line fill="none" stroke="#B82900" stroke-width="2" stroke-miterlimit="10" x1="26.905" y1="30.75" x2="26.905" y2="15.883"/>
			</g>
			<g>
				
					<line fill="none" stroke="#B82900" stroke-width="2" stroke-miterlimit="10" x1="111.799" y1="30.75" x2="111.799" y2="15.906"/>
				
					<line fill="none" stroke="#B82900" stroke-width="2" stroke-miterlimit="10" x1="114.943" y1="30.75" x2="114.943" y2="19.991"/>
				
					<line fill="none" stroke="#B82900" stroke-width="2" stroke-miterlimit="10" x1="118.087" y1="30.75" x2="118.087" y2="22.888"/>
				
					<line fill="none" stroke="#B82900" stroke-width="2" stroke-miterlimit="10" x1="121.231" y1="30.75" x2="121.231" y2="25.398"/>
				
					<line fill="none" stroke="#B82900" stroke-width="2" stroke-miterlimit="10" x1="124.376" y1="30.75" x2="124.376" y2="26.898"/>
				<line fill="none" stroke="#B82900" stroke-width="2" stroke-miterlimit="10" x1="127.52" y1="30.75" x2="127.52" y2="28.235"/>
			</g>
		</g>
		<g>
			<path fill="none" stroke="#871E00" stroke-width="3" stroke-miterlimit="10" d="M1.141,31.138c0,0,28.744-3.673,28.744-27.005"/>
			<path fill="none" stroke="#871E00" stroke-width="3" stroke-miterlimit="10" d="M137.563,31.138c0,0-28.744-3.673-28.744-27.005"
				/>
		</g>
		<path fill="none" stroke="#871E00" stroke-width="3" stroke-miterlimit="10" d="M105.939,3.041c0,0-6.229,22.357-36.587,22.357
			c-30.359,0-36.588-22.357-36.588-22.357"/>
		<g>
			<rect y="30.363" fill="#BD2900" width="138.704" height="7.087"/>
			<rect y="30.363" opacity="0.1" fill="#FFFFFF" width="138.704" height="3.543"/>
		</g>
		<g>
			<rect x="13.904" y="31.587" fill="#871E00" width="4.638" height="4.639"/>
			<rect x="21.494" y="31.587" fill="#871E00" width="4.638" height="4.639"/>
			<rect x="6.314" y="31.587" fill="#871E00" width="4.638" height="4.639"/>
			<rect x="29.084" y="31.587" fill="#871E00" width="4.638" height="4.639"/>
			<rect x="36.674" y="31.587" fill="#871E00" width="4.638" height="4.639"/>
			<rect x="44.264" y="31.587" fill="#871E00" width="4.638" height="4.639"/>
			<rect x="51.854" y="31.587" fill="#871E00" width="4.638" height="4.639"/>
			<rect x="59.443" y="31.587" fill="#871E00" width="4.638" height="4.639"/>
			<rect x="67.033" y="31.587" fill="#871E00" width="4.638" height="4.639"/>
			<rect x="74.623" y="31.587" fill="#871E00" width="4.638" height="4.639"/>
			<rect x="82.213" y="31.587" fill="#871E00" width="4.638" height="4.639"/>
			<rect x="89.803" y="31.587" fill="#871E00" width="4.638" height="4.639"/>
			<rect x="97.393" y="31.587" fill="#871E00" width="4.638" height="4.639"/>
			<rect x="104.982" y="31.587" fill="#871E00" width="4.638" height="4.639"/>
			<rect x="112.572" y="31.587" fill="#871E00" width="4.638" height="4.639"/>
			<rect x="120.162" y="31.587" fill="#871E00" width="4.638" height="4.639"/>
			<rect x="127.752" y="31.587" fill="#871E00" width="4.638" height="4.639"/>
		</g>
		<g>
			<g>
				<rect x="104.84" y="1.632" fill="#D92F00" width="4.923" height="57.51"/>
				<rect x="104.84" y="1.632" opacity="0.1" fill="#FFFFFF" width="2.461" height="57.51"/>
				<rect x="103.94" fill="#BD2900" width="6.722" height="3.742"/>
				<rect x="103.94" opacity="0.1" fill="#FFFFFF" width="6.722" height="1.871"/>
			</g>
			<g>
				<rect x="28.941" y="1.632" fill="#D92F00" width="4.923" height="57.51"/>
				<rect x="28.941" y="1.632" opacity="0.1" fill="#FFFFFF" width="2.462" height="57.51"/>
				<rect x="28.042" fill="#BD2900" width="6.722" height="3.742"/>
				<rect x="28.042" opacity="0.1" fill="#FFFFFF" width="6.722" height="1.871"/>
			</g>
		</g>
	</g>
</g>
</svg>
