<?xml version="1.0" encoding="utf-8"?>
<!-- Generator: Adobe Illustrator 16.0.0, SVG Export Plug-In . SVG Version: 6.00 Build 0)  -->
<!DOCTYPE svg PUBLIC "-//W3C//DTD SVG 1.1//EN" "http://www.w3.org/Graphics/SVG/1.1/DTD/svg11.dtd">
<svg version="1.1" xmlns="http://www.w3.org/2000/svg" xmlns:xlink="http://www.w3.org/1999/xlink" x="0px" y="0px"
	 width="69.088px" height="327.772px" viewBox="0 0 69.088 327.772" enable-background="new 0 0 69.088 327.772"
	 xml:space="preserve">
<g id="Background">
</g>
<g id="Objects">
	<g>
		<g>
			<polygon fill="#755923" points="34.544,0 32.555,33.593 34.544,33.593 36.533,33.593 			"/>
			<polygon fill="#9C8556" points="37.668,31.375 34.544,31.375 31.42,31.375 28.097,44.355 34.544,44.355 40.991,44.355 			"/>
			<path fill="#C49C4A" d="M42.873,51.777v-4.353c0-4.601-3.729-8.329-8.329-8.329c-4.601,0-8.329,3.729-8.329,8.329v4.353H42.873z"
				/>
			<path fill="#755923" d="M44.314,58.492v-5.105c0-5.396-4.374-9.771-9.771-9.771s-9.771,4.375-9.771,9.771v5.105H44.314z"/>
			<path fill="#C49C4A" d="M45.578,65.626v-5.767c0-6.094-4.94-11.033-11.034-11.033S23.51,53.766,23.51,59.859v5.767H45.578z"/>
			<rect x="13.854" y="87.767" fill="#755923" width="41.381" height="173.933"/>
			<g>
				<rect x="13.854" y="92.543" fill="#C49C4A" width="41.381" height="3.812"/>
				<rect x="13.854" y="101.596" fill="#C49C4A" width="41.381" height="3.814"/>
				<rect x="13.854" y="110.65" fill="#C49C4A" width="41.381" height="3.812"/>
				<rect x="13.854" y="119.703" fill="#C49C4A" width="41.381" height="3.813"/>
				<rect x="13.854" y="128.758" fill="#C49C4A" width="41.381" height="3.812"/>
				<rect x="13.854" y="137.811" fill="#C49C4A" width="41.381" height="3.813"/>
				<rect x="13.854" y="146.864" fill="#C49C4A" width="41.381" height="3.813"/>
				<rect x="13.854" y="155.918" fill="#C49C4A" width="41.381" height="3.813"/>
				<rect x="13.854" y="164.972" fill="#C49C4A" width="41.381" height="3.813"/>
				<rect x="13.854" y="174.025" fill="#C49C4A" width="41.381" height="3.812"/>
				<rect x="13.854" y="183.078" fill="#C49C4A" width="41.381" height="3.814"/>
				<rect x="13.854" y="192.133" fill="#C49C4A" width="41.381" height="3.812"/>
				<rect x="13.854" y="201.187" fill="#C49C4A" width="41.381" height="3.812"/>
				<rect x="13.854" y="210.239" fill="#C49C4A" width="41.381" height="3.813"/>
				<rect x="13.854" y="219.293" fill="#C49C4A" width="41.381" height="3.813"/>
				<rect x="13.854" y="228.347" fill="#C49C4A" width="41.381" height="3.813"/>
				<rect x="13.854" y="237.4" fill="#C49C4A" width="41.381" height="3.813"/>
			</g>
			<rect x="3.518" y="281.659" fill="#755923" width="62.053" height="46.113"/>
			<rect x="7.863" y="261.699" fill="#C49C4A" width="53.361" height="19.96"/>
			<rect x="7.863" y="245.28" fill="#C49C4A" width="53.361" height="36.379"/>
			<rect x="17.893" y="62.135" fill="#C49C4A" width="33.303" height="25.632"/>
			<rect x="22.761" y="87.767" fill="#9C8556" width="23.566" height="240.006"/>
			<g>
				<rect x="33.545" y="87.767" fill="#E0D3B7" width="1.998" height="240.006"/>
				<rect x="27.059" y="87.767" fill="#E0D3B7" width="1.998" height="240.006"/>
				<rect x="40.031" y="87.767" fill="#E0D3B7" width="1.998" height="240.006"/>
			</g>
			<path fill="#755923" d="M46.327,87.767V65.89c0-6.508-5.275-11.783-11.783-11.783S22.761,59.382,22.761,65.89v21.877H46.327z"/>
			<path fill="#C49C4A" d="M41.395,87.767V66.854c0-3.783-3.067-6.85-6.851-6.85s-6.851,3.066-6.851,6.85v20.913H41.395z"/>
			<path fill="#E0D3B7" d="M37.148,87.767V69.261c0-1.438-1.166-2.604-2.604-2.604s-2.605,1.166-2.605,2.604v18.506H37.148z"/>
			<rect y="271.68" fill="#9C8556" width="69.088" height="9.979"/>
			<path fill="#C49C4A" d="M39.644,31.288c0,0.78-0.633,1.413-1.414,1.413h-7.372c-0.78,0-1.413-0.633-1.413-1.413l0,0
				c0-0.78,0.633-1.414,1.413-1.414h7.372C39.011,29.874,39.644,30.508,39.644,31.288L39.644,31.288z"/>
			<rect x="22.761" y="241.341" fill="#9C8556" width="23.566" height="3.939"/>
			<rect x="22.761" y="164.908" fill="#9C8556" width="23.566" height="3.939"/>
			<rect x="22.761" y="110.586" fill="#9C8556" width="23.566" height="3.94"/>
		</g>
		<g opacity="0.2">
			<polygon fill="#755923" points="34.544,0 32.555,33.593 34.544,33.593 36.533,33.593 			"/>
			<polygon fill="#9C8556" points="37.668,31.375 34.544,31.375 31.42,31.375 28.097,44.355 34.544,44.355 40.991,44.355 			"/>
			<path fill="#C49C4A" d="M42.873,51.777v-4.353c0-4.601-3.729-8.329-8.329-8.329c-4.601,0-8.329,3.729-8.329,8.329v4.353H42.873z"
				/>
			<path fill="#755923" d="M44.314,58.492v-5.105c0-5.396-4.374-9.771-9.771-9.771s-9.771,4.375-9.771,9.771v5.105H44.314z"/>
			<path fill="#C49C4A" d="M45.578,65.626v-5.767c0-6.094-4.94-11.033-11.034-11.033S23.51,53.766,23.51,59.859v5.767H45.578z"/>
			<rect x="13.854" y="87.767" fill="#755923" width="41.381" height="173.933"/>
			<g>
				<rect x="13.854" y="92.543" fill="#C49C4A" width="41.381" height="3.812"/>
				<rect x="13.854" y="101.596" fill="#C49C4A" width="41.381" height="3.814"/>
				<rect x="13.854" y="110.65" fill="#C49C4A" width="41.381" height="3.812"/>
				<rect x="13.854" y="119.703" fill="#C49C4A" width="41.381" height="3.813"/>
				<rect x="13.854" y="128.758" fill="#C49C4A" width="41.381" height="3.812"/>
				<rect x="13.854" y="137.811" fill="#C49C4A" width="41.381" height="3.813"/>
				<rect x="13.854" y="146.864" fill="#C49C4A" width="41.381" height="3.813"/>
				<rect x="13.854" y="155.918" fill="#C49C4A" width="41.381" height="3.813"/>
				<rect x="13.854" y="164.972" fill="#C49C4A" width="41.381" height="3.813"/>
				<rect x="13.854" y="174.025" fill="#C49C4A" width="41.381" height="3.812"/>
				<rect x="13.854" y="183.078" fill="#C49C4A" width="41.381" height="3.814"/>
				<rect x="13.854" y="192.133" fill="#C49C4A" width="41.381" height="3.812"/>
				<rect x="13.854" y="201.187" fill="#C49C4A" width="41.381" height="3.812"/>
				<rect x="13.854" y="210.239" fill="#C49C4A" width="41.381" height="3.813"/>
				<rect x="13.854" y="219.293" fill="#C49C4A" width="41.381" height="3.813"/>
				<rect x="13.854" y="228.347" fill="#C49C4A" width="41.381" height="3.813"/>
				<rect x="13.854" y="237.4" fill="#C49C4A" width="41.381" height="3.813"/>
			</g>
			<rect x="3.518" y="281.659" fill="#755923" width="62.053" height="46.113"/>
			<rect x="7.863" y="261.699" fill="#C49C4A" width="53.361" height="19.96"/>
			<rect x="7.863" y="245.28" fill="#C49C4A" width="53.361" height="36.379"/>
			<polygon fill="#C49C4A" points="51.195,87.676 17.893,87.767 17.893,62.135 51.195,62.045 			"/>
			<rect x="22.761" y="87.767" fill="#9C8556" width="23.566" height="240.006"/>
			<g>
				<rect x="33.545" y="87.767" fill="#E0D3B7" width="1.998" height="240.006"/>
				<rect x="27.059" y="87.767" fill="#E0D3B7" width="1.998" height="240.006"/>
				<rect x="40.031" y="87.767" fill="#E0D3B7" width="1.998" height="240.006"/>
			</g>
			<path fill="#755923" d="M46.327,87.767V65.89c0-6.508-5.275-11.783-11.783-11.783S22.761,59.382,22.761,65.89v21.877H46.327z"/>
			<path fill="#C49C4A" d="M41.395,87.767V66.854c0-3.783-3.067-6.85-6.851-6.85s-6.851,3.066-6.851,6.85v20.913H41.395z"/>
			<path fill="#E0D3B7" d="M37.148,87.767V69.261c0-1.438-1.166-2.604-2.604-2.604s-2.605,1.166-2.605,2.604v18.506H37.148z"/>
			<rect y="271.68" fill="#9C8556" width="69.088" height="9.979"/>
			<path fill="#C49C4A" d="M39.644,31.288c0,0.78-0.633,1.413-1.414,1.413h-7.372c-0.78,0-1.413-0.633-1.413-1.413l0,0
				c0-0.78,0.633-1.414,1.413-1.414h7.372C39.011,29.874,39.644,30.508,39.644,31.288L39.644,31.288z"/>
			<rect x="22.761" y="241.341" fill="#9C8556" width="23.566" height="3.939"/>
			<rect x="22.761" y="164.908" fill="#9C8556" width="23.566" height="3.939"/>
			<rect x="22.761" y="110.586" fill="#9C8556" width="23.566" height="3.94"/>
		</g>
		<path opacity="0.2" fill="#FFFFFF" d="M34.544,87.766V0l-1.77,29.874h-1.917c-0.78,0-1.413,0.634-1.413,1.414
			s0.633,1.413,1.413,1.413h0.223l-2.212,8.64c-1.629,1.521-2.653,3.68-2.653,6.084v0.872c-0.908,1.483-1.441,3.223-1.441,5.09
			v1.357c-0.803,1.529-1.264,3.268-1.264,5.115v1.926c-0.043,0.116-0.088,0.231-0.128,0.35h-5.489v25.631l-4.039,0.001V245.28h-5.99
			v26.399H0v9.979h3.518v46.113h31.026V87.766z"/>
	</g>
</g>
</svg>
