<?xml version="1.0" encoding="utf-8"?>
<!-- Generator: Adobe Illustrator 16.0.0, SVG Export Plug-In . SVG Version: 6.00 Build 0)  -->
<!DOCTYPE svg PUBLIC "-//W3C//DTD SVG 1.1//EN" "http://www.w3.org/Graphics/SVG/1.1/DTD/svg11.dtd">
<svg version="1.1" xmlns="http://www.w3.org/2000/svg" xmlns:xlink="http://www.w3.org/1999/xlink" x="0px" y="0px"
	 width="571.978px" height="175.232px" viewBox="0 0 571.978 175.232" enable-background="new 0 0 571.978 175.232"
	 xml:space="preserve">
<g id="Background">
</g>
<g id="Objects">
	<g>
		<g opacity="0.4">
			<path fill="#FFFFFF" d="M492.693,95.137c0,6.117-4.958,11.076-11.075,11.076H433.77c-6.117,0-11.075-4.958-11.075-11.076l0,0
				c0-6.117,4.958-11.075,11.075-11.075h47.849C487.735,84.062,492.693,89.02,492.693,95.137L492.693,95.137z"/>
			<circle fill="#FFFFFF" cx="466.87" cy="77.973" r="18.354"/>
			<circle fill="#FFFFFF" cx="441.544" cy="82.438" r="12.398"/>
		</g>
		<g>
			<path fill="#FFFFFF" d="M368.632,109.905c0,7.281-5.902,13.184-13.183,13.184h-56.953c-7.281,0-13.184-5.902-13.184-13.184l0,0
				c0-7.281,5.902-13.183,13.184-13.183h56.953C362.729,96.722,368.632,102.625,368.632,109.905L368.632,109.905z"/>
			<circle fill="#FFFFFF" cx="337.895" cy="89.476" r="21.847"/>
			<circle fill="#FFFFFF" cx="307.75" cy="94.79" r="14.757"/>
		</g>
		<g opacity="0.4">
			<path fill="#FFFFFF" d="M183.754,58.099c0,6.906,5.599,12.504,12.504,12.504h54.02c6.905,0,12.504-5.598,12.504-12.504l0,0
				c0-6.906-5.599-12.504-12.504-12.504h-54.02C189.353,45.595,183.754,51.193,183.754,58.099L183.754,58.099z"/>
			<circle fill="#FFFFFF" cx="212.908" cy="38.721" r="20.722"/>
			<circle fill="#FFFFFF" cx="241.5" cy="43.762" r="13.997"/>
		</g>
		<g>
			<path fill="#FFFFFF" d="M207.491,59.517c0,10.25-8.31,18.559-18.56,18.559h-80.177c-10.25,0-18.56-8.309-18.56-18.559l0,0
				c0-10.25,8.31-18.559,18.56-18.559h80.177C199.182,40.958,207.491,49.267,207.491,59.517L207.491,59.517z"/>
			<circle fill="#FFFFFF" cx="164.22" cy="30.756" r="30.756"/>
			<circle fill="#FFFFFF" cx="121.783" cy="38.237" r="20.774"/>
		</g>
		<g>
			<path fill="#FFFFFF" d="M465.93,99.796c0,9.267,7.513,16.779,16.779,16.779h72.489c9.268,0,16.779-7.512,16.779-16.779l0,0
				c0-9.267-7.512-16.779-16.779-16.779h-72.489C473.442,83.017,465.93,90.529,465.93,99.796L465.93,99.796z"/>
			<circle fill="#FFFFFF" cx="505.052" cy="73.793" r="27.807"/>
			<circle fill="#FFFFFF" cx="543.42" cy="80.557" r="18.782"/>
		</g>
		<g>
			<path fill="#FFFFFF" d="M-0.001,166.297c0,4.935,4.001,8.935,8.936,8.935h38.602c4.934,0,8.935-4,8.935-8.935l0,0
				c0-4.935-4.001-8.935-8.935-8.935H8.935C4,157.362-0.001,161.362-0.001,166.297L-0.001,166.297z"/>
			<circle fill="#FFFFFF" cx="20.833" cy="152.45" r="14.807"/>
			<circle fill="#FFFFFF" cx="41.263" cy="156.052" r="10.001"/>
		</g>
	</g>
</g>
</svg>
