<?xml version="1.0" encoding="utf-8"?>
<!-- Generator: Adobe Illustrator 16.0.0, SVG Export Plug-In . SVG Version: 6.00 Build 0)  -->
<!DOCTYPE svg PUBLIC "-//W3C//DTD SVG 1.1//EN" "http://www.w3.org/Graphics/SVG/1.1/DTD/svg11.dtd">
<svg version="1.1" xmlns="http://www.w3.org/2000/svg" xmlns:xlink="http://www.w3.org/1999/xlink" x="0px" y="0px"
	 width="269.347px" height="269.348px" viewBox="0 0 269.347 269.348" enable-background="new 0 0 269.347 269.348"
	 xml:space="preserve">
<g id="background">
</g>
<g id="objects">
	<g>
		<g>
			<polygon fill="#FFB300" points="177.129,262.824 147.808,240.562 124.849,269.348 106.319,237.526 74.077,255.311 
				69.093,218.828 32.504,222.962 41.887,187.359 6.523,177.129 28.785,147.808 0,124.85 31.82,106.319 14.037,74.078 
				50.519,69.094 46.384,32.504 81.988,41.888 92.218,6.523 121.539,28.785 144.498,0 163.028,31.821 195.269,14.038 200.253,50.52 
				236.843,46.385 227.459,81.988 262.824,92.218 240.562,121.54 269.347,144.498 237.526,163.028 255.31,195.27 218.828,200.254 
				222.962,236.844 187.359,227.46 			"/>
			<rect x="134.673" y="134.674" fill="#FFB300" width="0" height="0"/>
			<polygon fill="#FFB300" points="134.673,134.674 134.673,134.674 134.673,134.674 			"/>
			<polygon fill="#FFB300" points="134.673,134.674 134.673,134.674 134.673,134.674 			"/>
			<polygon fill="#FFB300" points="134.673,134.674 134.673,134.674 134.673,134.674 			"/>
			<rect x="134.673" y="134.674" fill="#FFB300" width="0" height="0"/>
			<rect x="134.673" y="134.674" fill="#FFB300" width="0" height="0"/>
			<polygon fill="#FFB300" points="134.673,134.674 134.673,134.674 134.673,134.674 			"/>
			<polygon fill="#FFB300" points="134.673,134.674 134.673,134.674 134.673,134.674 			"/>
			<polygon fill="#FFB300" points="134.673,134.674 134.673,134.674 134.673,134.674 			"/>
			<polygon fill="#FFB300" points="134.673,134.674 134.673,134.674 134.673,134.674 			"/>
			<polygon opacity="0.25" fill="#FFFFFF" points="147.808,240.562 177.129,262.824 187.359,227.46 134.673,134.674 			"/>
			<polygon fill="#FFB300" points="134.673,134.674 134.673,134.674 134.673,134.674 			"/>
			<polygon fill="#FFB300" points="134.673,134.674 134.673,134.674 134.673,134.674 			"/>
			<polygon fill="#FFB300" points="134.673,134.674 134.673,134.674 134.673,134.674 			"/>
			<rect x="134.673" y="134.674" fill="#FFB300" width="0" height="0"/>
			<polygon opacity="0.25" fill="#FFFFFF" points="134.673,134.674 200.253,50.52 195.27,14.038 163.028,31.821 163.028,31.821 
				134.673,134.674 			"/>
			<polygon opacity="0.25" fill="#FFFFFF" points="50.519,69.094 14.037,74.078 31.82,106.319 31.82,106.319 134.673,134.674 			"/>
			<polygon opacity="0.25" fill="#FFFFFF" points="134.673,134.674 28.785,147.808 28.785,147.808 6.523,177.129 41.887,187.359 
				134.673,134.674 			"/>
			<polygon opacity="0.25" fill="#FFFFFF" points="134.673,134.674 69.093,218.828 69.093,218.828 74.077,255.311 106.319,237.526 
				106.319,237.526 134.673,134.674 			"/>
			<polygon opacity="0.25" fill="#FFFFFF" points="134.673,134.674 240.562,121.54 240.562,121.54 262.824,92.218 227.459,81.988 
				134.673,134.674 			"/>
			<polygon opacity="0.25" fill="#FFFFFF" points="134.673,134.674 134.673,134.674 121.539,28.785 92.218,6.523 81.988,41.888 
				81.988,41.888 134.673,134.674 			"/>
			<polygon opacity="0.25" fill="#FFFFFF" points="134.673,134.674 134.673,134.674 218.828,200.254 255.31,195.27 237.526,163.028 
				237.526,163.028 134.673,134.674 			"/>
			<g>
				<circle fill="#FDD835" cx="134.674" cy="134.674" r="107.082"/>
				<path opacity="0.4" fill="#FFFFFF" d="M182.738,38.985c52.847,26.545,74.169,90.906,47.625,143.753
					c-26.545,52.847-90.906,74.169-143.753,47.624"/>
			</g>
		</g>
	</g>
</g>
</svg>
