<?xml version="1.0" encoding="utf-8"?>
<!-- Generator: Adobe Illustrator 16.0.0, SVG Export Plug-In . SVG Version: 6.00 Build 0)  -->
<!DOCTYPE svg PUBLIC "-//W3C//DTD SVG 1.1//EN" "http://www.w3.org/Graphics/SVG/1.1/DTD/svg11.dtd">
<svg version="1.1" xmlns="http://www.w3.org/2000/svg" xmlns:xlink="http://www.w3.org/1999/xlink" x="0px" y="0px"
	 width="54.142px" height="177.887px" viewBox="0 0 54.142 177.887" enable-background="new 0 0 54.142 177.887"
	 xml:space="preserve">
<g id="Background">
</g>
<g id="Objects">
	<g>
		<g>
			<rect y="27.189" fill="#66532D" width="54.142" height="150.697"/>
			<g>
				<g>
					<rect x="3.197" y="32.604" fill="#B0A489" width="14.132" height="4.024"/>
					<rect x="20.005" y="32.604" fill="#B0A489" width="14.133" height="4.024"/>
					<rect x="36.813" y="32.604" fill="#B0A489" width="14.132" height="4.024"/>
				</g>
				<g>
					<rect x="3.197" y="40.151" fill="#B0A489" width="14.132" height="4.024"/>
					<rect x="20.005" y="40.151" opacity="0.6" fill="#A68D5C" width="14.133" height="4.024"/>
					<rect x="36.813" y="40.151" opacity="0.6" fill="#A68D5C" width="14.132" height="4.024"/>
				</g>
				<g>
					<rect x="3.197" y="47.698" fill="#B0A489" width="14.132" height="4.024"/>
					<rect x="20.005" y="47.698" fill="#B0A489" width="14.133" height="4.024"/>
					<rect x="36.813" y="47.698" fill="#B0A489" width="14.132" height="4.024"/>
				</g>
				<g>
					<rect x="3.197" y="55.245" fill="#B0A489" width="14.132" height="4.024"/>
					<rect x="20.005" y="55.245" fill="#B0A489" width="14.133" height="4.024"/>
					<rect x="36.813" y="55.245" fill="#B0A489" width="14.132" height="4.024"/>
				</g>
				<g>
					<rect x="3.197" y="62.792" fill="#B0A489" width="14.132" height="4.024"/>
					<rect x="20.005" y="62.792" opacity="0.6" fill="#A68D5C" width="14.133" height="4.024"/>
					<rect x="36.813" y="62.792" fill="#B0A489" width="14.132" height="4.024"/>
				</g>
				<g>
					<rect x="3.197" y="70.339" opacity="0.6" fill="#A68D5C" width="14.132" height="4.024"/>
					<rect x="20.005" y="70.339" fill="#B0A489" width="14.133" height="4.024"/>
					<rect x="36.813" y="70.339" fill="#B0A489" width="14.132" height="4.024"/>
				</g>
				<g>
					<rect x="3.197" y="77.886" fill="#B0A489" width="14.132" height="4.024"/>
					<rect x="20.005" y="77.886" fill="#B0A489" width="14.133" height="4.024"/>
					<rect x="36.813" y="77.886" opacity="0.6" fill="#A68D5C" width="14.132" height="4.024"/>
				</g>
				<g>
					<rect x="3.197" y="85.433" fill="#B0A489" width="14.132" height="4.023"/>
					<rect x="20.005" y="85.433" fill="#B0A489" width="14.133" height="4.023"/>
					<rect x="36.813" y="85.433" fill="#B0A489" width="14.132" height="4.023"/>
				</g>
				<g>
					<rect x="3.197" y="92.979" fill="#B0A489" width="14.132" height="4.023"/>
					<rect x="20.005" y="92.979" opacity="0.6" fill="#A68D5C" width="14.133" height="4.023"/>
					<rect x="36.813" y="92.979" fill="#B0A489" width="14.132" height="4.023"/>
				</g>
				<g>
					<rect x="3.197" y="100.526" fill="#B0A489" width="14.132" height="4.023"/>
					<rect x="20.005" y="100.526" fill="#B0A489" width="14.133" height="4.023"/>
					<rect x="36.813" y="100.526" fill="#B0A489" width="14.132" height="4.023"/>
				</g>
				<g>
					<rect x="3.197" y="108.073" fill="#B0A489" width="14.132" height="4.023"/>
					<rect x="20.005" y="108.073" fill="#B0A489" width="14.133" height="4.023"/>
					<rect x="36.813" y="108.073" fill="#B0A489" width="14.132" height="4.023"/>
				</g>
				<g>
					<rect x="3.197" y="115.619" fill="#B0A489" width="14.132" height="4.024"/>
					<rect x="20.005" y="115.619" opacity="0.6" fill="#A68D5C" width="14.133" height="4.024"/>
					<rect x="36.813" y="115.619" fill="#B0A489" width="14.132" height="4.024"/>
				</g>
				<g>
					<rect x="3.197" y="123.166" fill="#B0A489" width="14.132" height="4.024"/>
					<rect x="20.005" y="123.166" fill="#B0A489" width="14.133" height="4.024"/>
					<rect x="36.813" y="123.166" fill="#B0A489" width="14.132" height="4.024"/>
				</g>
				<g>
					<rect x="3.197" y="130.713" opacity="0.6" fill="#A68D5C" width="14.132" height="4.024"/>
					<rect x="20.005" y="130.713" fill="#B0A489" width="14.133" height="4.024"/>
					<rect x="36.813" y="130.713" fill="#B0A489" width="14.132" height="4.024"/>
				</g>
				<g>
					<rect x="3.197" y="138.26" fill="#B0A489" width="14.132" height="4.024"/>
					<rect x="20.005" y="138.26" fill="#B0A489" width="14.133" height="4.024"/>
					<rect x="36.813" y="138.26" fill="#B0A489" width="14.132" height="4.024"/>
				</g>
				<g>
					<rect x="3.197" y="145.807" fill="#B0A489" width="14.132" height="4.024"/>
					<rect x="20.005" y="145.807" fill="#B0A489" width="14.133" height="4.024"/>
					<rect x="36.813" y="145.807" opacity="0.6" fill="#A68D5C" width="14.132" height="4.024"/>
				</g>
				<g>
					<rect x="3.197" y="153.354" fill="#B0A489" width="14.132" height="4.024"/>
					<rect x="20.005" y="153.354" fill="#B0A489" width="14.133" height="4.024"/>
					<rect x="36.813" y="153.354" fill="#B0A489" width="14.132" height="4.024"/>
				</g>
				<g>
					<rect x="3.197" y="160.9" opacity="0.6" fill="#A68D5C" width="14.132" height="4.024"/>
					<rect x="20.005" y="160.9" fill="#B0A489" width="14.133" height="4.024"/>
					<rect x="36.813" y="160.9" fill="#B0A489" width="14.132" height="4.024"/>
				</g>
				<g>
					<rect x="3.197" y="168.447" fill="#B0A489" width="14.132" height="4.024"/>
					<rect x="20.005" y="168.447" fill="#B0A489" width="14.133" height="4.024"/>
					<rect x="36.813" y="168.447" fill="#B0A489" width="14.132" height="4.024"/>
				</g>
			</g>
			<rect y="21.256" fill="#8C7443" width="54.142" height="5.934"/>
			<polygon fill="#8C7443" points="27.071,0 0,21.256 27.071,21.256 54.142,21.256 			"/>
			<polygon fill="#D6B676" points="27.071,9 10.687,21.256 27.071,21.256 43.456,21.256 			"/>
		</g>
		<polygon opacity="0.2" fill="#FFFFFF" points="27.071,0 0,21.256 0,27.189 0,177.887 27.071,177.887 		"/>
	</g>
</g>
</svg>
