<?xml version="1.0" encoding="utf-8"?>
<!-- Generator: Adobe Illustrator 16.0.0, SVG Export Plug-In . SVG Version: 6.00 Build 0)  -->
<!DOCTYPE svg PUBLIC "-//W3C//DTD SVG 1.1//EN" "http://www.w3.org/Graphics/SVG/1.1/DTD/svg11.dtd">
<svg version="1.1" xmlns="http://www.w3.org/2000/svg" xmlns:xlink="http://www.w3.org/1999/xlink" x="0px" y="0px"
	 width="71.324px" height="250.38px" viewBox="0 0 71.324 250.38" enable-background="new 0 0 71.324 250.38" xml:space="preserve">
<g id="Background">
</g>
<g id="Objects">
	<g>
		<g>
			<rect y="173.31" fill="#1B798C" width="71.324" height="77.07"/>
			<g>
				<g>
					<rect x="6.602" y="178.585" fill="#82C5CF" width="4.067" height="66.906"/>
					<rect x="15.539" y="178.585" fill="#82C5CF" width="4.067" height="66.906"/>
				</g>
				<g>
					<rect x="29.16" y="178.585" fill="#82C5CF" width="4.066" height="66.906"/>
					<rect x="38.098" y="178.585" fill="#82C5CF" width="4.066" height="66.906"/>
				</g>
				<g>
					<rect x="51.718" y="178.585" fill="#82C5CF" width="4.067" height="66.906"/>
					<rect x="60.655" y="178.585" fill="#82C5CF" width="4.067" height="66.906"/>
				</g>
			</g>
			<g>
				<rect x="5.183" y="195.26" fill="#1B798C" width="65.643" height="6.174"/>
				<rect x="5.183" y="221.932" fill="#1B798C" width="65.643" height="6.174"/>
			</g>
			<rect x="13.769" y="74.609" fill="#005A69" width="43.787" height="83.94"/>
			<polygon fill="#24A5BF" points="63.106,157.606 35.738,157.606 35.586,157.606 8.218,157.606 0.007,173.31 35.586,173.31 
				35.738,173.31 71.317,173.31 			"/>
			<g>
				<g>
					<rect x="19.914" y="78.884" fill="#82C5CF" width="4.067" height="75.392"/>
					<rect x="28.852" y="78.884" fill="#82C5CF" width="4.067" height="75.392"/>
				</g>
				<g>
					<rect x="38.405" y="78.884" fill="#82C5CF" width="4.067" height="75.392"/>
					<rect x="47.343" y="78.884" fill="#82C5CF" width="4.067" height="75.392"/>
				</g>
			</g>
			<rect x="23.794" y="15.398" fill="#005A69" width="23.736" height="25.1"/>
			<g>
				<rect x="28.852" y="19.523" fill="#82C5CF" width="4.26" height="15.59"/>
				<rect x="38.213" y="19.523" fill="#82C5CF" width="4.26" height="15.59"/>
			</g>
			<rect x="17.44" y="113.492" fill="#005A69" width="36.443" height="6.174"/>
			<g>
				<g>
					<rect x="18.781" y="15.398" fill="#7CD7E6" width="5.013" height="23.279"/>
					<polygon fill="#24A5BF" points="21.305,9.475 21.305,9.422 21.287,9.448 21.27,9.422 21.27,9.475 18.781,15.398 21.27,15.398 
						21.305,15.398 23.793,15.398 					"/>
				</g>
				<g>
					<rect x="47.53" y="15.398" fill="#7CD7E6" width="5.013" height="23.279"/>
					<polygon fill="#24A5BF" points="50.054,9.475 50.054,9.422 50.036,9.448 50.018,9.422 50.018,9.475 47.53,15.398 
						50.018,15.398 50.054,15.398 52.542,15.398 					"/>
				</g>
				<polygon fill="#24A5BF" points="35.629,0 23.794,15.398 35.544,15.398 35.714,15.398 47.464,15.398 				"/>
			</g>
			<rect x="18.781" y="38.678" fill="#1B798C" width="33.762" height="36.687"/>
			<g>
				<g>
					<rect x="24.383" y="42.602" fill="#82C5CF" width="4.067" height="28.839"/>
				</g>
				<g>
					<rect x="33.937" y="42.602" fill="#82C5CF" width="4.067" height="28.839"/>
					<rect x="42.874" y="42.602" fill="#82C5CF" width="4.067" height="28.839"/>
				</g>
			</g>
			<rect x="21.503" y="54.661" fill="#1B798C" width="29.907" height="4.009"/>
		</g>
		<g opacity="0.2">
			<polygon fill="#FFFFFF" points="21.305,9.475 21.305,9.422 21.287,9.448 21.27,9.422 21.27,9.475 18.781,15.398 23.793,15.398 
							"/>
			<rect y="173.31" fill="#FFFFFF" width="35.629" height="77.07"/>
			<polygon fill="#FFFFFF" points="35.629,0 23.794,15.398 23.794,15.398 18.781,15.398 18.781,74.609 13.769,74.609 
				13.769,157.606 8.218,157.606 0.007,173.31 35.629,173.31 			"/>
		</g>
	</g>
</g>
</svg>
