<?xml version="1.0" encoding="utf-8"?>
<!-- Generator: Adobe Illustrator 16.0.0, SVG Export Plug-In . SVG Version: 6.00 Build 0)  -->
<!DOCTYPE svg PUBLIC "-//W3C//DTD SVG 1.1//EN" "http://www.w3.org/Graphics/SVG/1.1/DTD/svg11.dtd">
<svg version="1.1" xmlns="http://www.w3.org/2000/svg" xmlns:xlink="http://www.w3.org/1999/xlink" x="0px" y="0px"
	 width="67.307px" height="148.441px" viewBox="0 0 67.307 148.441" enable-background="new 0 0 67.307 148.441"
	 xml:space="preserve">
<g id="Background">
</g>
<g id="Objects">
	<g>
		<g>
			<ellipse fill="#4C5663" cx="33.653" cy="19.652" rx="17.956" ry="15.241"/>
			<rect y="23.049" fill="#4C5663" width="67.307" height="125.393"/>
			<path fill="#697689" d="M28.243,148.441V26.3c0-3.629,2.422-6.57,5.41-6.57l0,0c2.987,0,5.409,2.941,5.409,6.57v122.142"/>
			<g>
				<g>
					<rect x="0.008" y="29.052" fill="#697689" width="23.904" height="119.39"/>
					<g>
						<g>
							<rect x="2.169" y="31.608" fill="#9AA8BA" width="3.994" height="4.852"/>
							<rect x="7.365" y="31.608" fill="#9AA8BA" width="3.994" height="4.852"/>
							<rect x="12.561" y="31.608" fill="#9AA8BA" width="3.995" height="4.852"/>
							<rect x="17.757" y="31.608" fill="#9AA8BA" width="3.995" height="4.852"/>
						</g>
						<g>
							<rect x="2.169" y="38.903" fill="#9AA8BA" width="3.994" height="4.852"/>
							<rect x="7.365" y="38.903" fill="#9AA8BA" width="3.994" height="4.852"/>
							<rect x="12.561" y="38.903" fill="#9AA8BA" width="3.995" height="4.852"/>
							<rect x="17.835" y="38.998" opacity="0.8" fill="#D3E6FF" width="3.994" height="4.852"/>
						</g>
						<g>
							<rect x="2.169" y="46.198" fill="#9AA8BA" width="3.994" height="4.852"/>
							<rect x="7.365" y="46.198" fill="#9AA8BA" width="3.994" height="4.852"/>
							<rect x="12.561" y="46.198" fill="#9AA8BA" width="3.995" height="4.852"/>
							<rect x="17.757" y="46.198" fill="#9AA8BA" width="3.995" height="4.852"/>
						</g>
						<g>
							<rect x="2.169" y="53.493" fill="#9AA8BA" width="3.994" height="4.852"/>
							<rect x="7.442" y="53.588" opacity="0.8" fill="#D3E6FF" width="3.995" height="4.852"/>
							<rect x="12.561" y="53.493" fill="#9AA8BA" width="3.995" height="4.852"/>
							<rect x="17.757" y="53.493" fill="#9AA8BA" width="3.995" height="4.852"/>
						</g>
						<g>
							<rect x="2.169" y="60.788" fill="#9AA8BA" width="3.994" height="4.852"/>
							<rect x="7.365" y="60.788" fill="#9AA8BA" width="3.994" height="4.852"/>
							<rect x="12.639" y="60.883" opacity="0.8" fill="#D3E6FF" width="3.994" height="4.852"/>
							<rect x="17.757" y="60.788" fill="#9AA8BA" width="3.995" height="4.852"/>
						</g>
						<g>
							<rect x="2.169" y="68.083" fill="#9AA8BA" width="3.994" height="4.852"/>
							<rect x="7.365" y="68.083" fill="#9AA8BA" width="3.994" height="4.852"/>
							<rect x="12.561" y="68.083" fill="#9AA8BA" width="3.995" height="4.852"/>
							<rect x="17.757" y="68.083" fill="#9AA8BA" width="3.995" height="4.852"/>
						</g>
						<g>
							<rect x="2.169" y="75.378" fill="#9AA8BA" width="3.994" height="4.853"/>
							<rect x="7.365" y="75.378" fill="#9AA8BA" width="3.994" height="4.853"/>
							<rect x="12.561" y="75.378" fill="#9AA8BA" width="3.995" height="4.853"/>
							<rect x="17.757" y="75.378" fill="#9AA8BA" width="3.995" height="4.853"/>
						</g>
						<g>
							<rect x="2.169" y="82.674" fill="#9AA8BA" width="3.994" height="4.852"/>
							<rect x="7.365" y="82.674" fill="#9AA8BA" width="3.994" height="4.852"/>
							<rect x="12.561" y="82.674" fill="#9AA8BA" width="3.995" height="4.852"/>
							<rect x="17.757" y="82.674" fill="#9AA8BA" width="3.995" height="4.852"/>
						</g>
						<g>
							<rect x="2.169" y="89.969" fill="#9AA8BA" width="3.994" height="4.852"/>
							<rect x="7.442" y="90.062" opacity="0.8" fill="#D3E6FF" width="3.995" height="4.852"/>
							<rect x="12.561" y="89.969" fill="#9AA8BA" width="3.995" height="4.852"/>
							<rect x="17.757" y="89.969" fill="#9AA8BA" width="3.995" height="4.852"/>
						</g>
						<g>
							<rect x="2.169" y="97.264" fill="#9AA8BA" width="3.994" height="4.852"/>
							<rect x="7.365" y="97.264" fill="#9AA8BA" width="3.994" height="4.852"/>
							<rect x="12.561" y="97.264" fill="#9AA8BA" width="3.995" height="4.852"/>
							<rect x="17.757" y="97.264" fill="#9AA8BA" width="3.995" height="4.852"/>
						</g>
						<g>
							<rect x="2.169" y="104.559" fill="#9AA8BA" width="3.994" height="4.852"/>
							<rect x="7.365" y="104.559" fill="#9AA8BA" width="3.994" height="4.852"/>
							<rect x="12.561" y="104.559" fill="#9AA8BA" width="3.995" height="4.852"/>
							<rect x="17.757" y="104.559" fill="#9AA8BA" width="3.995" height="4.852"/>
						</g>
						<g>
							<rect x="2.169" y="111.854" fill="#9AA8BA" width="3.994" height="4.852"/>
							<rect x="7.365" y="111.854" fill="#9AA8BA" width="3.994" height="4.852"/>
							<rect x="12.561" y="111.854" fill="#9AA8BA" width="3.995" height="4.852"/>
							<rect x="17.835" y="111.947" opacity="0.8" fill="#D3E6FF" width="3.994" height="4.852"/>
						</g>
						<g>
							<rect x="2.169" y="119.148" fill="#9AA8BA" width="3.994" height="4.852"/>
							<rect x="7.365" y="119.148" fill="#9AA8BA" width="3.994" height="4.852"/>
							<rect x="12.561" y="119.148" fill="#9AA8BA" width="3.995" height="4.852"/>
							<rect x="17.757" y="119.148" fill="#9AA8BA" width="3.995" height="4.852"/>
						</g>
						<g>
							<rect x="2.246" y="126.537" opacity="0.8" fill="#D3E6FF" width="3.995" height="4.852"/>
							<rect x="7.365" y="126.443" fill="#9AA8BA" width="3.994" height="4.852"/>
							<rect x="12.561" y="126.443" fill="#9AA8BA" width="3.995" height="4.852"/>
							<rect x="17.757" y="126.443" fill="#9AA8BA" width="3.995" height="4.852"/>
						</g>
						<g>
							<rect x="2.169" y="133.738" fill="#9AA8BA" width="3.994" height="4.852"/>
							<rect x="7.365" y="133.738" fill="#9AA8BA" width="3.994" height="4.852"/>
							<rect x="12.561" y="133.738" fill="#9AA8BA" width="3.995" height="4.852"/>
							<rect x="17.757" y="133.738" fill="#9AA8BA" width="3.995" height="4.852"/>
						</g>
						<g>
							<rect x="2.169" y="141.033" fill="#9AA8BA" width="3.994" height="4.852"/>
							<rect x="7.365" y="141.033" fill="#9AA8BA" width="3.994" height="4.852"/>
							<rect x="12.561" y="141.033" fill="#9AA8BA" width="3.995" height="4.852"/>
							<rect x="17.757" y="141.033" fill="#9AA8BA" width="3.995" height="4.852"/>
						</g>
					</g>
				</g>
				<g>
					<rect x="43.401" y="29.052" fill="#697689" width="23.905" height="119.39"/>
					<g>
						<g>
							<rect x="45.562" y="31.608" fill="#9AA8BA" width="3.994" height="4.852"/>
							<rect x="50.759" y="31.608" fill="#9AA8BA" width="3.994" height="4.852"/>
							<rect x="55.954" y="31.608" fill="#9AA8BA" width="3.995" height="4.852"/>
							<rect x="61.15" y="31.608" fill="#9AA8BA" width="3.995" height="4.852"/>
						</g>
						<g>
							<rect x="45.562" y="38.903" fill="#9AA8BA" width="3.994" height="4.852"/>
							<rect x="50.759" y="38.903" opacity="0.8" fill="#D3E6FF" width="3.994" height="4.852"/>
							<rect x="55.954" y="38.903" fill="#9AA8BA" width="3.995" height="4.852"/>
							<rect x="61.15" y="38.903" fill="#9AA8BA" width="3.995" height="4.852"/>
						</g>
						<g>
							<rect x="45.562" y="46.198" fill="#9AA8BA" width="3.994" height="4.852"/>
							<rect x="50.759" y="46.198" fill="#9AA8BA" width="3.994" height="4.852"/>
							<rect x="55.954" y="46.198" fill="#9AA8BA" width="3.995" height="4.852"/>
							<rect x="61.15" y="46.198" fill="#9AA8BA" width="3.995" height="4.852"/>
						</g>
						<g>
							<rect x="45.562" y="53.493" fill="#9AA8BA" width="3.994" height="4.852"/>
							<rect x="50.759" y="53.493" fill="#9AA8BA" width="3.994" height="4.852"/>
							<rect x="55.954" y="53.493" fill="#9AA8BA" width="3.995" height="4.852"/>
							<rect x="61.15" y="53.493" fill="#9AA8BA" width="3.995" height="4.852"/>
						</g>
						<g>
							<rect x="45.562" y="60.788" fill="#9AA8BA" width="3.994" height="4.852"/>
							<rect x="50.759" y="60.788" fill="#9AA8BA" width="3.994" height="4.852"/>
							<rect x="55.954" y="60.788" fill="#9AA8BA" width="3.995" height="4.852"/>
							<rect x="61.15" y="60.788" fill="#9AA8BA" width="3.995" height="4.852"/>
						</g>
						<g>
							<rect x="45.562" y="68.083" fill="#9AA8BA" width="3.994" height="4.852"/>
							<rect x="50.759" y="68.083" fill="#9AA8BA" width="3.994" height="4.852"/>
							<rect x="55.954" y="68.083" opacity="0.8" fill="#D3E6FF" width="3.995" height="4.852"/>
							<rect x="61.15" y="68.083" fill="#9AA8BA" width="3.995" height="4.852"/>
						</g>
						<g>
							<rect x="45.562" y="75.378" fill="#9AA8BA" width="3.994" height="4.853"/>
							<rect x="50.759" y="75.378" fill="#9AA8BA" width="3.994" height="4.853"/>
							<rect x="55.954" y="75.378" fill="#9AA8BA" width="3.995" height="4.853"/>
							<rect x="61.15" y="75.378" fill="#9AA8BA" width="3.995" height="4.853"/>
						</g>
						<g>
							<rect x="45.562" y="82.674" fill="#9AA8BA" width="3.994" height="4.852"/>
							<rect x="50.759" y="82.674" opacity="0.8" fill="#D3E6FF" width="3.994" height="4.852"/>
							<rect x="55.954" y="82.674" fill="#9AA8BA" width="3.995" height="4.852"/>
							<rect x="61.15" y="82.674" fill="#9AA8BA" width="3.995" height="4.852"/>
						</g>
						<g>
							<rect x="45.562" y="89.969" fill="#9AA8BA" width="3.994" height="4.852"/>
							<rect x="50.759" y="89.969" fill="#9AA8BA" width="3.994" height="4.852"/>
							<rect x="55.954" y="89.969" fill="#9AA8BA" width="3.995" height="4.852"/>
							<rect x="61.15" y="89.969" fill="#9AA8BA" width="3.995" height="4.852"/>
						</g>
						<g>
							<rect x="45.562" y="97.264" fill="#9AA8BA" width="3.994" height="4.852"/>
							<rect x="50.759" y="97.264" fill="#9AA8BA" width="3.994" height="4.852"/>
							<rect x="55.954" y="97.264" fill="#9AA8BA" width="3.995" height="4.852"/>
							<rect x="61.15" y="97.264" fill="#9AA8BA" width="3.995" height="4.852"/>
						</g>
						<g>
							<rect x="45.562" y="104.559" fill="#9AA8BA" width="3.994" height="4.852"/>
							<rect x="50.759" y="104.559" fill="#9AA8BA" width="3.994" height="4.852"/>
							<rect x="55.954" y="104.559" fill="#9AA8BA" width="3.995" height="4.852"/>
							<rect x="61.15" y="104.559" opacity="0.8" fill="#D3E6FF" width="3.995" height="4.852"/>
						</g>
						<g>
							<rect x="45.562" y="111.854" fill="#9AA8BA" width="3.994" height="4.852"/>
							<rect x="50.759" y="111.854" opacity="0.8" fill="#D3E6FF" width="3.994" height="4.852"/>
							<rect x="55.954" y="111.854" fill="#9AA8BA" width="3.995" height="4.852"/>
							<rect x="61.15" y="111.854" fill="#9AA8BA" width="3.995" height="4.852"/>
						</g>
						<g>
							<rect x="45.562" y="119.148" fill="#9AA8BA" width="3.994" height="4.852"/>
							<rect x="50.759" y="119.148" fill="#9AA8BA" width="3.994" height="4.852"/>
							<rect x="55.954" y="119.148" fill="#9AA8BA" width="3.995" height="4.852"/>
							<rect x="61.15" y="119.148" fill="#9AA8BA" width="3.995" height="4.852"/>
						</g>
						<g>
							<rect x="45.562" y="126.443" fill="#9AA8BA" width="3.994" height="4.852"/>
							<rect x="50.836" y="126.537" opacity="0.8" fill="#D3E6FF" width="3.995" height="4.852"/>
							<rect x="55.954" y="126.443" fill="#9AA8BA" width="3.995" height="4.852"/>
							<rect x="61.15" y="126.443" opacity="0.8" fill="#D3E6FF" width="3.995" height="4.852"/>
						</g>
						<g>
							<rect x="45.562" y="133.738" fill="#9AA8BA" width="3.994" height="4.852"/>
							<rect x="50.759" y="133.738" fill="#9AA8BA" width="3.994" height="4.852"/>
							<rect x="55.954" y="133.738" fill="#9AA8BA" width="3.995" height="4.852"/>
							<rect x="61.15" y="133.738" fill="#9AA8BA" width="3.995" height="4.852"/>
						</g>
						<g>
							<rect x="45.562" y="141.033" fill="#9AA8BA" width="3.994" height="4.852"/>
							<rect x="50.759" y="141.033" fill="#9AA8BA" width="3.994" height="4.852"/>
							<rect x="55.954" y="141.033" fill="#9AA8BA" width="3.995" height="4.852"/>
							<rect x="61.15" y="141.033" fill="#9AA8BA" width="3.995" height="4.852"/>
						</g>
					</g>
				</g>
				<path fill="#D3E6FF" d="M47.405,25.408c0-9.209-6.17-16.702-13.752-16.702c-7.583,0-13.752,7.493-13.752,16.702H0v3.644h23.904
					v-3.644l0,0c0-6.528,4.374-11.84,9.749-11.84s9.748,5.312,9.748,11.84l0,0v3.644h23.905v-3.644H47.405z"/>
			</g>
			<path fill="#D3E6FF" d="M53.766,19.405C52.218,8.422,43.789,0,33.652,0C23.517,0,15.089,8.422,13.54,19.405H0v3.644h13.283h3.766
				h0.278c0-10.186,7.323-18.473,16.325-18.473c9.003,0,16.327,8.287,16.327,18.473h0.277h3.766h13.284v-3.644H53.766z"/>
		</g>
		<path opacity="0.2" fill="#FFFFFF" d="M33.653,0L33.653,0C23.517,0,15.089,8.422,13.54,19.405H0v3.644v2.359v3.644v119.39h0.008
			h23.905h4.33h5.41V0z"/>
	</g>
</g>
</svg>
