<?xml version="1.0" encoding="utf-8"?>
<!-- Generator: Adobe Illustrator 16.0.0, SVG Export Plug-In . SVG Version: 6.00 Build 0)  -->
<!DOCTYPE svg PUBLIC "-//W3C//DTD SVG 1.1//EN" "http://www.w3.org/Graphics/SVG/1.1/DTD/svg11.dtd">
<svg version="1.1" xmlns="http://www.w3.org/2000/svg" xmlns:xlink="http://www.w3.org/1999/xlink" x="0px" y="0px"
	 width="71.445px" height="291.745px" viewBox="0 0 71.445 291.745" enable-background="new 0 0 71.445 291.745"
	 xml:space="preserve">
<g id="Background">
</g>
<g id="Objects">
	<g>
		<g>
			<g>
				<rect x="16.015" y="75.205" fill="#467791" width="39.416" height="216.54"/>
				<g>
					<rect x="41.944" y="83.163" opacity="0.8" fill="#FFFFFF" width="2.096" height="205.495"/>
					<rect x="34.675" y="83.163" opacity="0.8" fill="#FFFFFF" width="2.096" height="205.495"/>
					<rect x="27.405" y="83.163" opacity="0.8" fill="#FFFFFF" width="2.096" height="205.495"/>
				</g>
			</g>
			<g>
				<g>
					<g>
						<g>
							<rect y="253.046" fill="#6694AC" width="23.011" height="38.699"/>
							<g>
								<rect x="2.674" y="256.134" opacity="0.6" fill="#FFFFFF" width="1.548" height="32.524"/>
								<rect x="8.046" y="256.134" opacity="0.6" fill="#FFFFFF" width="1.547" height="32.524"/>
								<rect x="13.417" y="256.134" opacity="0.6" fill="#FFFFFF" width="1.549" height="32.524"/>
								<rect x="18.788" y="256.134" opacity="0.6" fill="#FFFFFF" width="1.549" height="32.524"/>
							</g>
						</g>
						<g>
							<rect x="4.222" y="122.324" fill="#93C4DE" width="18.789" height="130.722"/>
							<g>
								<rect x="7.47" y="126.956" fill="#6694AC" width="1.549" height="121.458"/>
								<rect x="12.842" y="126.956" fill="#6694AC" width="1.548" height="121.458"/>
								<rect x="18.214" y="126.956" fill="#6694AC" width="1.548" height="121.458"/>
							</g>
						</g>
						<g>
							<rect x="9.019" y="96.955" fill="#467791" width="13.992" height="25.369"/>
							<g opacity="0.6">
								<rect x="12.554" y="101.588" fill="#FFFFFF" width="1.549" height="16.104"/>
								<rect x="17.927" y="101.588" fill="#FFFFFF" width="1.548" height="16.104"/>
							</g>
						</g>
					</g>
					<g>
						<g>
							<rect x="48.435" y="253.046" fill="#6694AC" width="23.011" height="38.699"/>
							<g>
								<rect x="67.224" y="256.134" opacity="0.6" fill="#FFFFFF" width="1.549" height="32.524"/>
								<rect x="61.853" y="256.134" opacity="0.6" fill="#FFFFFF" width="1.547" height="32.524"/>
								<rect x="56.479" y="256.134" opacity="0.6" fill="#FFFFFF" width="1.549" height="32.524"/>
								<rect x="51.108" y="256.134" opacity="0.6" fill="#FFFFFF" width="1.549" height="32.524"/>
							</g>
						</g>
						<g>
							<rect x="48.435" y="122.324" fill="#93C4DE" width="18.789" height="130.722"/>
							<g>
								<rect x="62.427" y="126.956" fill="#6694AC" width="1.549" height="121.458"/>
								<rect x="57.056" y="126.956" fill="#6694AC" width="1.548" height="121.458"/>
								<rect x="51.684" y="126.956" fill="#6694AC" width="1.548" height="121.458"/>
							</g>
						</g>
						<g>
							<rect x="48.435" y="96.955" fill="#467791" width="13.992" height="25.369"/>
							<g opacity="0.6">
								<rect x="57.343" y="101.588" fill="#FFFFFF" width="1.549" height="16.104"/>
								<rect x="51.971" y="101.588" fill="#FFFFFF" width="1.548" height="16.104"/>
							</g>
						</g>
					</g>
				</g>
				<g>
					<g>
						<rect x="5.594" y="154.332" fill="#93C4DE" width="16.384" height="2.993"/>
						<rect x="49.468" y="154.332" fill="#93C4DE" width="16.384" height="2.993"/>
					</g>
					<g>
						<rect x="5.594" y="188.246" fill="#93C4DE" width="16.384" height="2.992"/>
						<rect x="49.468" y="188.246" fill="#93C4DE" width="16.384" height="2.992"/>
					</g>
					<g>
						<rect x="5.594" y="222.159" fill="#93C4DE" width="16.384" height="2.993"/>
						<rect x="49.468" y="222.159" fill="#93C4DE" width="16.384" height="2.993"/>
					</g>
				</g>
			</g>
			<polyline fill="#467791" points="25.242,251.156 25.242,254.418 46.203,254.418 46.203,251.156 			"/>
			<rect x="25.242" y="188.111" fill="#467791" width="20.961" height="3.262"/>
			<rect x="25.242" y="119.063" fill="#467791" width="20.961" height="3.262"/>
			<rect x="17.927" y="64.125" fill="#6694AC" width="35.592" height="11.081"/>
			<rect x="26.968" y="52.747" fill="#467791" width="17.51" height="3.398"/>
			<polygon fill="#6694AC" points="36.172,0 35.723,0 35.273,0 32.956,52.747 35.723,52.747 38.489,52.747 			"/>
			<rect x="22.364" y="56.145" fill="#93C4DE" width="26.717" height="7.979"/>
			<g>
				<rect x="20.907" y="68.627" opacity="0.4" fill="#FFFFFF" width="3.096" height="6.578"/>
				<rect x="27.54" y="68.627" opacity="0.4" fill="#FFFFFF" width="3.098" height="6.578"/>
				<rect x="34.175" y="68.627" opacity="0.4" fill="#FFFFFF" width="3.096" height="6.578"/>
				<rect x="40.808" y="68.627" opacity="0.4" fill="#FFFFFF" width="3.098" height="6.578"/>
				<rect x="47.442" y="68.627" opacity="0.4" fill="#FFFFFF" width="3.096" height="6.578"/>
			</g>
			<path fill="#467791" d="M39.651,34.069c0,0.638-0.518,1.155-1.155,1.155h-5.542c-0.639,0-1.155-0.517-1.155-1.155l0,0
				c0-0.638,0.517-1.155,1.155-1.155h5.542C39.134,32.914,39.651,33.431,39.651,34.069L39.651,34.069z"/>
		</g>
		<path opacity="0.2" fill="#FFFFFF" d="M35.726,0h-0.003h-0.449l-1.446,32.914h-0.873c-0.639,0-1.155,0.517-1.155,1.155
			s0.517,1.155,1.155,1.155h0.771l-0.77,17.523h-5.988v3.398h-4.604v7.98h-4.438v11.081h-1.912v21.75H9.019v25.369H4.222v130.722H0
			v38.699h16.015h6.996h12.715V0z"/>
	</g>
</g>
</svg>
