<?xml version="1.0" encoding="utf-8"?>
<!-- Generator: Adobe Illustrator 16.0.0, SVG Export Plug-In . SVG Version: 6.00 Build 0)  -->
<!DOCTYPE svg PUBLIC "-//W3C//DTD SVG 1.1//EN" "http://www.w3.org/Graphics/SVG/1.1/DTD/svg11.dtd">
<svg version="1.1" xmlns="http://www.w3.org/2000/svg" xmlns:xlink="http://www.w3.org/1999/xlink" x="0px" y="0px" width="71.07px"
	 height="182.214px" viewBox="0 0 71.07 182.214" enable-background="new 0 0 71.07 182.214" xml:space="preserve">
<g id="Background">
</g>
<g id="Objects">
	<g>
		<g>
			<circle fill="#6EFFCA" cx="35.535" cy="27.554" r="27.553"/>
			<circle opacity="0.4" fill="#00757D" cx="35.535" cy="27.554" r="23.355"/>
			<g>
				<rect x="3.246" y="30.154" fill="#6EFFCA" width="64.578" height="113.881"/>
				<rect x="6.347" y="34.051" fill="#00757D" width="58.377" height="109.984"/>
				<rect y="71.159" fill="#00757D" width="71.07" height="111.055"/>
				<g>
					<rect x="8.75" y="37.162" fill="#5CB2B8" width="3.193" height="6.009"/>
					<rect x="14.348" y="37.162" fill="#5CB2B8" width="3.193" height="6.009"/>
					<rect x="19.945" y="37.162" fill="#5CB2B8" width="3.193" height="6.009"/>
					<rect x="25.542" y="37.162" fill="#5CB2B8" width="3.194" height="6.009"/>
					<rect x="31.14" y="37.162" fill="#5CB2B8" width="3.193" height="6.009"/>
					<rect x="36.736" y="37.162" fill="#5CB2B8" width="3.194" height="6.009"/>
					<rect x="42.334" y="37.162" fill="#5CB2B8" width="3.193" height="6.009"/>
					<rect x="47.932" y="37.162" fill="#BAFBFF" width="3.193" height="6.009"/>
					<rect x="53.529" y="37.162" fill="#5CB2B8" width="3.193" height="6.009"/>
					<rect x="59.126" y="37.162" fill="#5CB2B8" width="3.194" height="6.009"/>
				</g>
				<g>
					<rect x="8.75" y="46.135" fill="#5CB2B8" width="3.193" height="6.008"/>
					<rect x="14.348" y="46.135" fill="#5CB2B8" width="3.193" height="6.008"/>
					<rect x="19.945" y="46.135" fill="#5CB2B8" width="3.193" height="6.008"/>
					<rect x="25.542" y="46.135" fill="#5CB2B8" width="3.194" height="6.008"/>
					<rect x="31.14" y="46.135" fill="#5CB2B8" width="3.193" height="6.008"/>
					<rect x="36.736" y="46.135" fill="#83D1D6" width="3.194" height="6.008"/>
					<rect x="42.334" y="46.135" fill="#5CB2B8" width="3.193" height="6.008"/>
					<rect x="47.932" y="46.135" fill="#5CB2B8" width="3.193" height="6.008"/>
					<rect x="53.529" y="46.135" fill="#5CB2B8" width="3.193" height="6.008"/>
					<rect x="59.126" y="46.135" fill="#5CB2B8" width="3.194" height="6.008"/>
				</g>
				<g>
					<rect x="8.75" y="55.107" fill="#5CB2B8" width="3.193" height="6.008"/>
					<rect x="14.348" y="55.107" fill="#5CB2B8" width="3.193" height="6.008"/>
					<rect x="19.945" y="55.107" fill="#83D1D6" width="3.193" height="6.008"/>
					<rect x="25.542" y="55.107" fill="#5CB2B8" width="3.194" height="6.008"/>
					<rect x="31.14" y="55.107" fill="#5CB2B8" width="3.193" height="6.008"/>
					<rect x="36.736" y="55.107" fill="#5CB2B8" width="3.194" height="6.008"/>
					<rect x="42.334" y="55.107" fill="#5CB2B8" width="3.193" height="6.008"/>
					<rect x="47.932" y="55.107" fill="#5CB2B8" width="3.193" height="6.008"/>
					<rect x="53.529" y="55.107" fill="#BAFBFF" width="3.193" height="6.008"/>
					<rect x="59.126" y="55.107" fill="#5CB2B8" width="3.194" height="6.008"/>
				</g>
				<g>
					<rect x="8.75" y="64.079" fill="#5CB2B8" width="3.193" height="6.009"/>
					<rect x="14.348" y="64.079" fill="#BAFBFF" width="3.193" height="6.009"/>
					<rect x="19.945" y="64.079" fill="#5CB2B8" width="3.193" height="6.009"/>
					<rect x="25.542" y="64.079" fill="#5CB2B8" width="3.194" height="6.009"/>
					<rect x="31.14" y="64.079" fill="#5CB2B8" width="3.193" height="6.009"/>
					<rect x="36.736" y="64.079" fill="#83D1D6" width="3.194" height="6.009"/>
					<rect x="42.334" y="64.079" fill="#5CB2B8" width="3.193" height="6.009"/>
					<rect x="47.932" y="64.079" fill="#5CB2B8" width="3.193" height="6.009"/>
					<rect x="53.529" y="64.079" fill="#5CB2B8" width="3.193" height="6.009"/>
					<rect x="59.126" y="64.079" fill="#5CB2B8" width="3.194" height="6.009"/>
				</g>
				<g>
					<rect x="3.152" y="73.052" fill="#5CB2B8" width="3.194" height="6.008"/>
					<rect x="8.75" y="73.052" fill="#5CB2B8" width="3.193" height="6.008"/>
					<rect x="14.348" y="73.052" fill="#5CB2B8" width="3.193" height="6.008"/>
					<rect x="19.945" y="73.052" fill="#5CB2B8" width="3.193" height="6.008"/>
					<rect x="25.542" y="73.052" fill="#5CB2B8" width="3.194" height="6.008"/>
					<rect x="31.14" y="73.052" fill="#5CB2B8" width="3.193" height="6.008"/>
					<rect x="36.736" y="73.052" fill="#5CB2B8" width="3.194" height="6.008"/>
					<rect x="42.334" y="73.052" fill="#5CB2B8" width="3.193" height="6.008"/>
					<rect x="47.932" y="73.052" fill="#5CB2B8" width="3.193" height="6.008"/>
					<rect x="53.529" y="73.052" fill="#5CB2B8" width="3.193" height="6.008"/>
					<rect x="59.126" y="73.052" fill="#5CB2B8" width="3.194" height="6.008"/>
					<rect x="64.724" y="73.052" fill="#5CB2B8" width="3.193" height="6.008"/>
				</g>
				<g>
					<rect x="3.152" y="82.023" fill="#5CB2B8" width="3.194" height="6.009"/>
					<rect x="8.75" y="82.023" fill="#5CB2B8" width="3.193" height="6.009"/>
					<rect x="14.348" y="82.023" fill="#5CB2B8" width="3.193" height="6.009"/>
					<rect x="19.945" y="82.023" fill="#5CB2B8" width="3.193" height="6.009"/>
					<rect x="25.542" y="82.023" fill="#5CB2B8" width="3.194" height="6.009"/>
					<rect x="31.14" y="82.023" fill="#5CB2B8" width="3.193" height="6.009"/>
					<rect x="36.736" y="82.023" fill="#5CB2B8" width="3.194" height="6.009"/>
					<rect x="42.334" y="82.023" fill="#5CB2B8" width="3.193" height="6.009"/>
					<rect x="47.932" y="82.023" fill="#5CB2B8" width="3.193" height="6.009"/>
					<rect x="53.529" y="82.023" fill="#5CB2B8" width="3.193" height="6.009"/>
					<rect x="59.126" y="82.023" fill="#5CB2B8" width="3.194" height="6.009"/>
					<rect x="64.724" y="82.023" fill="#5CB2B8" width="3.193" height="6.009"/>
				</g>
				<g>
					<rect x="3.152" y="90.996" fill="#5CB2B8" width="3.194" height="6.008"/>
					<rect x="8.75" y="90.996" fill="#5CB2B8" width="3.193" height="6.008"/>
					<rect x="14.348" y="90.996" fill="#5CB2B8" width="3.193" height="6.008"/>
					<rect x="19.945" y="90.996" fill="#5CB2B8" width="3.193" height="6.008"/>
					<rect x="25.542" y="90.996" fill="#BAFBFF" width="3.194" height="6.008"/>
					<rect x="31.14" y="90.996" fill="#5CB2B8" width="3.193" height="6.008"/>
					<rect x="36.736" y="90.996" fill="#5CB2B8" width="3.194" height="6.008"/>
					<rect x="42.334" y="90.996" fill="#5CB2B8" width="3.193" height="6.008"/>
					<rect x="47.932" y="90.996" fill="#5CB2B8" width="3.193" height="6.008"/>
					<rect x="53.529" y="90.996" fill="#5CB2B8" width="3.193" height="6.008"/>
					<rect x="59.126" y="90.996" fill="#5CB2B8" width="3.194" height="6.008"/>
					<rect x="64.724" y="90.996" fill="#5CB2B8" width="3.193" height="6.008"/>
				</g>
				<g>
					<rect x="3.152" y="99.968" fill="#5CB2B8" width="3.194" height="6.009"/>
					<rect x="8.75" y="99.968" fill="#5CB2B8" width="3.193" height="6.009"/>
					<rect x="14.348" y="99.968" fill="#5CB2B8" width="3.193" height="6.009"/>
					<rect x="19.945" y="99.968" fill="#5CB2B8" width="3.193" height="6.009"/>
					<rect x="25.542" y="99.968" fill="#5CB2B8" width="3.194" height="6.009"/>
					<rect x="31.14" y="99.968" fill="#5CB2B8" width="3.193" height="6.009"/>
					<rect x="36.736" y="99.968" fill="#5CB2B8" width="3.194" height="6.009"/>
					<rect x="42.334" y="99.968" fill="#5CB2B8" width="3.193" height="6.009"/>
					<rect x="47.932" y="99.968" fill="#5CB2B8" width="3.193" height="6.009"/>
					<rect x="53.529" y="99.968" fill="#83D1D6" width="3.193" height="6.009"/>
					<rect x="59.126" y="99.968" fill="#5CB2B8" width="3.194" height="6.009"/>
					<rect x="64.724" y="99.968" fill="#5CB2B8" width="3.193" height="6.009"/>
				</g>
				<g>
					<rect x="3.152" y="108.94" fill="#5CB2B8" width="3.194" height="6.008"/>
					<rect x="8.75" y="108.94" fill="#5CB2B8" width="3.193" height="6.008"/>
					<rect x="14.348" y="108.94" fill="#5CB2B8" width="3.193" height="6.008"/>
					<rect x="19.945" y="108.94" fill="#5CB2B8" width="3.193" height="6.008"/>
					<rect x="25.542" y="108.94" fill="#5CB2B8" width="3.194" height="6.008"/>
					<rect x="31.14" y="108.94" fill="#5CB2B8" width="3.193" height="6.008"/>
					<rect x="36.736" y="108.94" fill="#BAFBFF" width="3.194" height="6.008"/>
					<rect x="42.334" y="108.94" fill="#5CB2B8" width="3.193" height="6.008"/>
					<rect x="47.932" y="108.94" fill="#5CB2B8" width="3.193" height="6.008"/>
					<rect x="53.529" y="108.94" fill="#5CB2B8" width="3.193" height="6.008"/>
					<rect x="59.126" y="108.94" fill="#5CB2B8" width="3.194" height="6.008"/>
					<rect x="64.724" y="108.94" fill="#5CB2B8" width="3.193" height="6.008"/>
				</g>
				<g>
					<rect x="3.152" y="117.913" fill="#5CB2B8" width="3.194" height="6.008"/>
					<rect x="8.75" y="117.913" fill="#5CB2B8" width="3.193" height="6.008"/>
					<rect x="14.348" y="117.913" fill="#83D1D6" width="3.193" height="6.008"/>
					<rect x="19.945" y="117.913" fill="#5CB2B8" width="3.193" height="6.008"/>
					<rect x="25.542" y="117.913" fill="#5CB2B8" width="3.194" height="6.008"/>
					<rect x="31.14" y="117.913" fill="#5CB2B8" width="3.193" height="6.008"/>
					<rect x="36.736" y="117.913" fill="#5CB2B8" width="3.194" height="6.008"/>
					<rect x="42.334" y="117.913" fill="#5CB2B8" width="3.193" height="6.008"/>
					<rect x="47.932" y="117.913" fill="#5CB2B8" width="3.193" height="6.008"/>
					<rect x="53.529" y="117.913" fill="#5CB2B8" width="3.193" height="6.008"/>
					<rect x="59.126" y="117.913" fill="#5CB2B8" width="3.194" height="6.008"/>
					<rect x="64.724" y="117.913" fill="#5CB2B8" width="3.193" height="6.008"/>
				</g>
				<g>
					<rect x="3.152" y="126.885" fill="#5CB2B8" width="3.194" height="6.008"/>
					<rect x="8.75" y="126.885" fill="#5CB2B8" width="3.193" height="6.008"/>
					<rect x="14.348" y="126.885" fill="#5CB2B8" width="3.193" height="6.008"/>
					<rect x="19.945" y="126.885" fill="#5CB2B8" width="3.193" height="6.008"/>
					<rect x="25.542" y="126.885" fill="#5CB2B8" width="3.194" height="6.008"/>
					<rect x="31.14" y="126.885" fill="#5CB2B8" width="3.193" height="6.008"/>
					<rect x="36.736" y="126.885" fill="#5CB2B8" width="3.194" height="6.008"/>
					<rect x="42.334" y="126.885" fill="#5CB2B8" width="3.193" height="6.008"/>
					<rect x="47.932" y="126.885" fill="#5CB2B8" width="3.193" height="6.008"/>
					<rect x="53.529" y="126.885" fill="#BAFBFF" width="3.193" height="6.008"/>
					<rect x="59.126" y="126.885" fill="#5CB2B8" width="3.194" height="6.008"/>
					<rect x="64.724" y="126.885" fill="#5CB2B8" width="3.193" height="6.008"/>
				</g>
				<g>
					<rect x="3.152" y="135.857" fill="#5CB2B8" width="3.194" height="6.008"/>
					<rect x="8.75" y="135.857" fill="#5CB2B8" width="3.193" height="6.008"/>
					<rect x="14.348" y="135.857" fill="#5CB2B8" width="3.193" height="6.008"/>
					<rect x="19.945" y="135.857" fill="#BAFBFF" width="3.193" height="6.008"/>
					<rect x="25.542" y="135.857" fill="#5CB2B8" width="3.194" height="6.008"/>
					<rect x="31.14" y="135.857" fill="#5CB2B8" width="3.193" height="6.008"/>
					<rect x="36.736" y="135.857" fill="#83D1D6" width="3.194" height="6.008"/>
					<rect x="42.334" y="135.857" fill="#5CB2B8" width="3.193" height="6.008"/>
					<rect x="47.932" y="135.857" fill="#5CB2B8" width="3.193" height="6.008"/>
					<rect x="53.529" y="135.857" fill="#5CB2B8" width="3.193" height="6.008"/>
					<rect x="59.126" y="135.857" fill="#5CB2B8" width="3.194" height="6.008"/>
					<rect x="64.724" y="135.857" fill="#5CB2B8" width="3.193" height="6.008"/>
				</g>
				<g>
					<rect x="3.152" y="144.829" fill="#5CB2B8" width="3.194" height="6.008"/>
					<rect x="8.75" y="144.829" fill="#5CB2B8" width="3.193" height="6.008"/>
					<rect x="14.348" y="144.829" fill="#5CB2B8" width="3.193" height="6.008"/>
					<rect x="19.945" y="144.829" fill="#5CB2B8" width="3.193" height="6.008"/>
					<rect x="25.542" y="144.829" fill="#5CB2B8" width="3.194" height="6.008"/>
					<rect x="31.14" y="144.829" fill="#5CB2B8" width="3.193" height="6.008"/>
					<rect x="36.736" y="144.829" fill="#5CB2B8" width="3.194" height="6.008"/>
					<rect x="42.334" y="144.829" fill="#5CB2B8" width="3.193" height="6.008"/>
					<rect x="47.932" y="144.829" fill="#5CB2B8" width="3.193" height="6.008"/>
					<rect x="53.529" y="144.829" fill="#5CB2B8" width="3.193" height="6.008"/>
					<rect x="59.126" y="144.829" fill="#5CB2B8" width="3.194" height="6.008"/>
					<rect x="64.724" y="144.829" fill="#5CB2B8" width="3.193" height="6.008"/>
				</g>
				<g>
					<rect x="3.152" y="153.802" fill="#5CB2B8" width="3.194" height="6.008"/>
					<rect x="8.75" y="153.802" fill="#BAFBFF" width="3.193" height="6.008"/>
					<rect x="14.348" y="153.802" fill="#5CB2B8" width="3.193" height="6.008"/>
					<rect x="19.945" y="153.802" fill="#83D1D6" width="3.193" height="6.008"/>
					<rect x="25.542" y="153.802" fill="#5CB2B8" width="3.194" height="6.008"/>
					<rect x="31.14" y="153.802" fill="#5CB2B8" width="3.193" height="6.008"/>
					<rect x="36.736" y="153.802" fill="#5CB2B8" width="3.194" height="6.008"/>
					<rect x="42.334" y="153.802" fill="#5CB2B8" width="3.193" height="6.008"/>
					<rect x="47.932" y="153.802" fill="#83D1D6" width="3.193" height="6.008"/>
					<rect x="53.529" y="153.802" fill="#5CB2B8" width="3.193" height="6.008"/>
					<rect x="59.126" y="153.802" fill="#5CB2B8" width="3.194" height="6.008"/>
					<rect x="64.724" y="153.802" fill="#5CB2B8" width="3.193" height="6.008"/>
				</g>
				<g>
					<rect x="3.152" y="162.773" fill="#5CB2B8" width="3.194" height="6.009"/>
					<rect x="8.75" y="162.773" fill="#5CB2B8" width="3.193" height="6.009"/>
					<rect x="14.348" y="162.773" fill="#5CB2B8" width="3.193" height="6.009"/>
					<rect x="19.945" y="162.773" fill="#5CB2B8" width="3.193" height="6.009"/>
					<rect x="25.542" y="162.773" fill="#5CB2B8" width="3.194" height="6.009"/>
					<rect x="31.14" y="162.773" fill="#BAFBFF" width="3.193" height="6.009"/>
					<rect x="36.736" y="162.773" fill="#5CB2B8" width="3.194" height="6.009"/>
					<rect x="42.334" y="162.773" fill="#5CB2B8" width="3.193" height="6.009"/>
					<rect x="47.932" y="162.773" fill="#5CB2B8" width="3.193" height="6.009"/>
					<rect x="53.529" y="162.773" fill="#5CB2B8" width="3.193" height="6.009"/>
					<rect x="59.126" y="162.773" fill="#5CB2B8" width="3.194" height="6.009"/>
					<rect x="64.724" y="162.773" fill="#5CB2B8" width="3.193" height="6.009"/>
				</g>
				<g>
					<rect x="3.152" y="171.746" fill="#5CB2B8" width="3.194" height="6.008"/>
					<rect x="8.75" y="171.746" fill="#5CB2B8" width="3.193" height="6.008"/>
					<rect x="14.348" y="171.746" fill="#5CB2B8" width="3.193" height="6.008"/>
					<rect x="19.945" y="171.746" fill="#5CB2B8" width="3.193" height="6.008"/>
					<rect x="25.542" y="171.746" fill="#5CB2B8" width="3.194" height="6.008"/>
					<rect x="31.14" y="171.746" fill="#5CB2B8" width="3.193" height="6.008"/>
					<rect x="36.736" y="171.746" fill="#5CB2B8" width="3.194" height="6.008"/>
					<rect x="42.334" y="171.746" fill="#5CB2B8" width="3.193" height="6.008"/>
					<rect x="47.932" y="171.746" fill="#83D1D6" width="3.193" height="6.008"/>
					<rect x="53.529" y="171.746" fill="#5CB2B8" width="3.193" height="6.008"/>
					<rect x="59.126" y="171.746" fill="#5CB2B8" width="3.194" height="6.008"/>
					<rect x="64.724" y="171.746" fill="#5CB2B8" width="3.193" height="6.008"/>
				</g>
			</g>
			<rect x="0.884" y="24.953" fill="#00757D" width="69.302" height="5.201"/>
		</g>
		<path opacity="0.2" fill="#FFFFFF" d="M35.535,0C21.195,0,9.418,10.956,8.107,24.953H0.884v5.201h2.362v41.005H0v111.055h35.535V0
			z"/>
	</g>
</g>
</svg>
