<?xml version="1.0" encoding="utf-8"?>
<!-- Generator: Adobe Illustrator 16.0.0, SVG Export Plug-In . SVG Version: 6.00 Build 0)  -->
<!DOCTYPE svg PUBLIC "-//W3C//DTD SVG 1.1//EN" "http://www.w3.org/Graphics/SVG/1.1/DTD/svg11.dtd">
<svg version="1.1" xmlns="http://www.w3.org/2000/svg" xmlns:xlink="http://www.w3.org/1999/xlink" x="0px" y="0px"
	 width="49.036px" height="359.703px" viewBox="0 0 49.036 359.703" enable-background="new 0 0 49.036 359.703"
	 xml:space="preserve">
<g id="Background">
</g>
<g id="Objects">
	<g>
		<g>
			<g>
				<polygon fill="#FFFFFF" points="11.174,82.644 10.021,82.644 20.921,66.649 22.073,66.649 				"/>
				<polygon fill="#FFFFFF" points="37.862,82.644 39.015,82.644 28.114,66.649 26.962,66.649 				"/>
			</g>
			<path fill="#F0242B" d="M25.38,100.915c0,0.476-0.386,0.862-0.862,0.862l0,0c-0.476,0-0.861-0.386-0.861-0.862V0.862
				C23.656,0.386,24.042,0,24.518,0l0,0c0.477,0,0.862,0.386,0.862,0.862V100.915z"/>
			<rect y="94.543" fill="#BCD4E8" width="49.036" height="265.159"/>
			<polygon fill="#4D8AB8" points="24.518,94.543 0,359.703 24.518,359.703 49.036,359.703 			"/>
			<rect y="92.48" fill="#4D8AB8" width="49.036" height="2.063"/>
			<rect x="5.538" y="82.644" fill="#4D8AB8" width="37.959" height="2.204"/>
			<rect x="5.538" y="84.848" fill="#C8CFD6" width="37.959" height="7.632"/>
			<g>
				<rect x="9.194" y="87.31" opacity="0.4" fill="#5084AB" width="2.013" height="5.17"/>
				<rect x="14.921" y="87.31" opacity="0.4" fill="#5084AB" width="2.013" height="5.17"/>
				<rect x="20.648" y="87.31" opacity="0.4" fill="#5084AB" width="2.012" height="5.17"/>
				<rect x="26.375" y="87.31" opacity="0.4" fill="#5084AB" width="2.013" height="5.17"/>
				<rect x="32.103" y="87.31" opacity="0.4" fill="#5084AB" width="2.012" height="5.17"/>
				<rect x="37.829" y="87.31" opacity="0.4" fill="#5084AB" width="2.012" height="5.17"/>
			</g>
			<rect x="16.934" y="63.197" fill="#4D8AB8" width="15.169" height="3.99"/>
			<rect x="21.654" y="50.445" fill="#4D8AB8" width="5.727" height="1.664"/>
			<rect x="21.654" y="36.145" fill="#4D8AB8" width="5.727" height="1.664"/>
			<rect x="21.654" y="21.844" fill="#4D8AB8" width="5.727" height="1.664"/>
			<rect x="21.654" y="7.543" fill="#4D8AB8" width="5.727" height="1.664"/>
			<rect y="99.23" fill="#84AECF" width="49.036" height="1.204"/>
			<rect y="106.228" fill="#84AECF" width="49.036" height="1.204"/>
			<rect y="113.226" fill="#84AECF" width="49.036" height="1.204"/>
			<rect y="120.224" fill="#84AECF" width="49.036" height="1.204"/>
			<rect y="127.222" fill="#84AECF" width="49.036" height="1.204"/>
			<rect y="134.22" fill="#84AECF" width="49.036" height="1.204"/>
			<rect y="141.219" fill="#84AECF" width="49.036" height="1.204"/>
			<rect y="148.217" fill="#84AECF" width="49.036" height="1.204"/>
			<rect y="155.214" fill="#84AECF" width="49.036" height="1.204"/>
			<rect y="162.213" fill="#84AECF" width="49.036" height="1.204"/>
			<rect y="169.211" fill="#84AECF" width="49.036" height="1.204"/>
			<rect y="176.209" fill="#84AECF" width="49.036" height="1.204"/>
			<rect y="183.207" fill="#84AECF" width="49.036" height="1.204"/>
			<rect y="190.205" fill="#84AECF" width="49.036" height="1.204"/>
			<rect y="197.203" fill="#84AECF" width="49.036" height="1.205"/>
			<rect y="204.201" fill="#84AECF" width="49.036" height="1.205"/>
			<rect y="211.199" fill="#84AECF" width="49.036" height="1.205"/>
			<rect y="218.197" fill="#84AECF" width="49.036" height="1.204"/>
			<rect y="225.196" fill="#84AECF" width="49.036" height="1.203"/>
			<rect y="232.194" fill="#84AECF" width="49.036" height="1.203"/>
			<rect y="239.192" fill="#84AECF" width="49.036" height="1.204"/>
			<rect y="246.19" fill="#84AECF" width="49.036" height="1.203"/>
			<rect y="253.188" fill="#84AECF" width="49.036" height="1.204"/>
			<rect y="260.186" fill="#84AECF" width="49.036" height="1.204"/>
			<rect y="267.184" fill="#84AECF" width="49.036" height="1.204"/>
			<rect y="274.182" fill="#84AECF" width="49.036" height="1.204"/>
			<rect y="281.18" fill="#84AECF" width="49.036" height="1.204"/>
			<rect y="288.178" fill="#84AECF" width="49.036" height="1.204"/>
			<rect y="295.176" fill="#84AECF" width="49.036" height="1.204"/>
			<rect y="302.174" fill="#84AECF" width="49.036" height="1.204"/>
			<rect y="309.172" fill="#84AECF" width="49.036" height="1.204"/>
			<rect y="316.17" fill="#84AECF" width="49.036" height="1.204"/>
			<rect y="323.168" fill="#84AECF" width="49.036" height="1.204"/>
			<rect y="330.167" fill="#84AECF" width="49.036" height="1.204"/>
			<rect y="337.165" fill="#84AECF" width="49.036" height="1.204"/>
			<rect y="344.163" fill="#84AECF" width="49.036" height="1.204"/>
			<rect y="351.161" fill="#84AECF" width="49.036" height="1.204"/>
		</g>
		<path opacity="0.2" fill="#FFFFFF" d="M24.518,0L24.518,0c-0.476,0-0.861,0.386-0.861,0.862v6.681h-2.002v1.664h2.002v12.637
			h-2.002v1.664h2.002v12.637h-2.002v1.664h2.002v12.637h-2.002v1.664h2.002v11.089h-6.723v3.99h3.621L10.021,82.644H5.538v2.204
			v7.632H0v2.063v4.687v1.204v5.794v1.204v5.794v1.204v5.794v1.204v5.794v1.204v5.794v1.204v5.794v1.204v5.794v1.204v5.794v1.204
			v5.794v1.204v5.794v1.204v5.794v1.204v5.794v1.204v5.794v1.204v5.794v1.205v5.793v1.205v5.793v1.205v5.793v1.204v5.794v1.204
			v5.795v1.203v5.795v1.203v5.795v1.203v5.795v1.204v5.794v1.203v5.795v1.204v5.794v1.204v5.794v1.204v5.794v1.204v5.794v1.204
			v5.794v1.204v5.794v1.204v5.794v1.204v5.794v1.204v5.794v1.204v5.794v1.204v5.794v1.204v5.794v1.204v7.338h24.518l0,0V0z
			 M23.656,82.644H11.174l10.533-15.457h1.949V82.644z"/>
	</g>
</g>
</svg>
